<svg width="99" height="38" viewBox="0 0 99 38" fill="none" xmlns="http://www.w3.org/2000/svg">
<path d="M4.0009 33.2048C4.47132 32.2419 7.76556 27.9013 25.1875 11.5461C30.6452 6.42253 33.852 5.09873 36.02 4.49287C37.0514 4.20462 38.0687 4.57644 39.1489 5.94951C44.5488 12.8137 47.9983 19.8785 52.7923 22.7212C60.229 27.1308 61.5636 9.81314 66.6418 4.8917C68.4129 3.17525 69.5921 4.31804 70.2482 5.26103C73.3185 9.67423 76.2974 16.4827 79.4376 19.6324C80.6989 20.8975 83.0702 18.4981 84.8977 17.8935C85.8505 17.8073 86.8548 18.1688 88.1945 18.8702C89.5341 19.5716 91.1786 20.6018 94.1492 22.7236" stroke="black" stroke-width="8" stroke-linecap="round"/>
</svg>
