<svg width="89" height="50" viewBox="0 0 89 50" fill="none" xmlns="http://www.w3.org/2000/svg">
<path d="M4.00969 45.2177C3.86946 44.5422 5.2851 38.2126 8.6068 31.8046C12.3167 24.6476 18.1196 16.499 19.88 14.8602C20.7514 14.049 22.09 13.9342 23.0933 14.1367C30.1223 15.5554 30.4245 31.2565 32.1743 37.3726C32.64 39.0001 33.2431 40.4828 34.0976 38.1826C37.1205 30.0451 38.2603 20.0662 40.1626 15.3309C40.7876 13.7751 41.9314 14.5741 42.7516 17.3415C44.9694 24.825 45.5506 31.0178 46.569 32.874C47.068 33.7836 47.958 34.3583 48.8614 34.7166C49.7649 35.075 50.7641 35.1307 51.5431 34.3585C58.9397 27.0275 65.8621 9.02293 70.3673 4.94678C74.0287 7.12265 76.4027 10.5144 78.7238 13.5987C80.1391 15.4855 82.0363 18.0255 84.9492 22.0837" stroke="black" stroke-width="8" stroke-linecap="round"/>
</svg>
