<svg width="94" height="30" viewBox="0 0 94 30" fill="none" xmlns="http://www.w3.org/2000/svg">
<path d="M4.00082 25.8892C5.65959 22.7068 12.1039 13.4901 17.6481 8.23595C19.8289 6.16923 22.2497 5.08936 24.4197 4.26351C25.5234 3.84347 26.7983 3.94825 27.8758 4.42346C34.0302 7.13782 38.6866 18.007 44.6772 23.3461C45.8603 24.4006 46.8111 24.8918 47.8001 24.9097C53.0264 25.0043 54.6667 16.938 56.1012 15.5231C59.9654 11.7116 67.8974 15.375 74.8532 18.2869C76.4006 18.9348 77.4133 19.0089 78.277 18.3682C80.3647 16.8199 81.3732 13.8666 83.0782 12.4783C83.9954 12.0542 85.0178 12.1994 85.9638 12.8502C86.9097 13.501 87.7482 14.653 89.6724 17.2145" stroke="black" stroke-width="8" stroke-linecap="round"/>
</svg>
