<svg width="150" height="115" viewBox="0 0 150 115" fill="none" xmlns="http://www.w3.org/2000/svg">
<path d="M67.9681 66.1374C64.8113 69.9338 65.98 74.4248 66.2714 78.4248C66.3629 80.4393 66.1737 82.4353 65.0364 84.406C63.9756 86.2496 62.8686 87.539 61.7146 88.7705C59.5593 91.1783 57.0502 93.2324 55.9836 95.6951C55.9191 95.8636 55.8545 96.0379 55.8432 96.062C55.8257 96.1062 55.9124 95.8288 55.9699 95.5253C55.9774 95.478 56.0007 95.396 56.0518 95.0011C56.064 94.9003 56.0777 94.7834 56.0923 94.5888C56.0992 94.4945 56.1056 94.3877 56.1101 94.2632C56.1142 94.1392 56.1182 94.0012 56.1137 93.7675C56.1087 93.5451 56.0961 93.2797 56.057 92.9405C56.0361 92.7646 56.0143 92.6022 55.9681 92.3504C55.9104 92.0414 55.8284 91.6808 55.689 91.2475C55.5486 90.8149 55.3518 90.3068 55.0306 89.718C54.8697 89.4241 54.6768 89.1107 54.4409 88.784C54.2065 88.4533 53.7537 87.9039 53.2703 87.4634C52.292 86.5421 50.8452 85.7145 49.3638 85.3652C48.6271 85.1843 47.8986 85.109 47.2361 85.1111C46.7717 85.1124 46.3544 85.1486 45.9639 85.2059C44.4009 85.4491 43.4434 85.9468 42.7747 86.329C42.385 86.5622 42.3195 86.6155 42.1546 86.7289C42.0101 86.8309 41.8824 86.9273 41.7675 87.0182C41.3264 87.3656 40.9878 87.712 40.8768 87.8283C40.598 88.1192 40.4031 88.3642 40.3184 88.4721C40.1275 88.717 40.0412 88.847 39.9837 88.9304C39.7737 89.2462 39.7936 89.2261 39.7787 89.2419C39.7747 89.2375 39.8305 89.1182 39.8825 88.9952C39.9965 88.7311 40.127 88.4023 40.2583 88.0411C40.6833 86.8753 41.2013 85.6854 41.7689 84.5221C44.9134 78.0553 49.461 72.7108 49.5209 69.1324C49.5864 64.9079 54.5096 66.7443 55.7419 61.2878C55.8372 60.8578 55.9426 60.4328 56.0452 60.0401C57.2634 55.4027 59.1617 52.9229 62.1511 49.5495C62.2264 49.4609 62.3037 49.3668 62.3835 49.2664C62.62 48.9654 62.8681 48.6293 63.1665 48.1953C63.3192 47.9729 63.476 47.7375 63.7069 47.3891C64.0044 47.0363 64.0301 46.5661 65.5144 45.3396C65.8357 45.1099 66.6192 44.5461 67.8611 44.3983C69.0995 44.2553 70.0711 44.6432 70.5591 44.9026C71.5394 45.4596 71.7128 45.7724 71.9585 46.0265C72.3665 46.5174 72.5171 46.8078 72.6903 47.1078C73.0107 47.6893 73.2389 48.1887 73.482 48.7079C74.9086 51.8595 76.5646 55.344 78.4605 58.2589C80.0119 60.6563 81.73 62.547 83.3106 63.5621C83.5757 63.7357 83.8337 63.884 84.0865 64.0102C85.521 64.7135 86.791 65.9406 87.7481 67.3031C89.9258 70.3971 90.8476 74.3074 91.9347 76.7891C92.008 76.9552 92.0791 77.1115 92.1521 77.2621C92.6709 78.3415 92.9721 79.2922 93.0684 80.1863C93.1043 80.5676 92.8507 80.8417 92.5519 80.9858C92.5517 80.9859 92.5515 80.986 92.5513 80.9861C92.1725 81.1613 91.7352 81.1745 91.529 80.9481C91.0353 80.4013 90.2029 79.707 89.2009 79.0019C88.0297 78.1794 86.5799 77.3117 84.8537 76.4993C82.6301 75.4543 81.5 74.4663 80.6429 73.384C79.6247 72.0883 79.0178 70.7781 77.2217 68.7614C76.4475 67.8804 75.4705 66.8549 74.2513 65.6582C73.2462 64.6711 72.3052 63.7576 71.4009 62.8799C68.5162 60.091 65.9326 57.6731 63.8305 54.9306C63.5872 54.6215 63.3441 54.3064 63.2083 54.1446C63.1571 54.0802 63.0781 54.0112 63.3135 54.2756C63.4872 54.4289 63.5473 54.64 64.6803 55.3719C65.2696 55.6994 66.4072 56.4144 68.5896 56.4082C70.8197 56.3815 72.4811 55.2394 72.9086 54.8893C74.5564 53.4741 74.4826 53.0238 74.6061 52.8944C74.6656 52.7576 74.6147 52.8284 74.5608 52.9213C74.4427 53.1246 74.2636 53.4722 74.074 53.8272C73.6742 54.5871 73.1573 55.5224 72.5838 56.4104C70.1531 60.1525 69.9317 63.0899 69.6559 66.2454C69.3003 70.2868 68.8494 74.575 63.3262 80.4445C58.9738 85.0624 57.8765 88.5563 57.551 92.1646C57.4461 93.2691 57.417 94.3727 57.3714 95.5435C57.3473 96.1311 57.3163 96.7419 57.2542 97.3987C57.2185 97.7356 57.1798 98.0767 57.089 98.4998C57.0344 98.7264 56.9903 98.9373 56.8256 99.3343C56.7796 99.4409 56.732 99.5492 56.643 99.7179C56.6021 99.7962 56.5522 99.8878 56.4743 100.017C56.3979 100.143 56.3208 100.272 56.145 100.521C55.9832 100.738 55.784 101.063 55.0435 101.821C54.775 102.088 54.4378 102.405 53.9273 102.794C53.7992 102.891 53.6596 102.993 53.5054 103.099C53.4283 103.152 53.3475 103.206 53.2626 103.261C53.1544 103.332 52.9725 103.445 52.8068 103.541C52.1204 103.934 51.2027 104.397 49.8362 104.731C49.1546 104.895 48.3583 105.019 47.459 105.036C46.3109 105.07 44.6671 104.854 43.2423 104.285C40.3019 103.24 38.1692 100.483 37.7274 99.603C36.3451 97.1561 36.3473 95.6987 36.249 95.194C36.1143 93.8118 36.1918 93.4362 36.2063 93.0347C36.2346 92.6584 36.2567 92.4854 36.2782 92.3064C36.3169 91.9952 36.3392 91.8493 36.3467 91.7682C36.4134 91.0453 36.5627 90.3038 36.6033 89.9638C36.6504 89.6004 36.6361 89.444 36.619 89.2894C36.8657 85.9006 37.2522 83.4709 37.9509 80.6916C37.9852 80.561 38.0183 80.4349 38.0541 80.3024C39.0767 76.5856 40.8534 72.2535 43.0586 68.1941C45.6364 63.4074 48.9977 58.8873 50.3466 57.1064C51.0117 56.0657 51.6141 54.8863 52.2591 53.3969C52.5931 52.6339 52.9107 51.827 53.4462 50.6135C53.7318 49.989 54.0321 49.2869 54.7197 48.1522C55.4855 47.1248 56.3194 45.0303 60.5066 43.1394C61.1648 42.9002 62.1692 42.5015 63.8544 42.2893C65.47 42.0754 68.2962 42.1816 70.8881 43.6755C72.3813 44.5707 72.6096 44.8599 73.083 45.2243C73.4897 45.5606 73.8004 45.832 74.0911 46.0847C76.073 47.8799 77.486 49.1234 79.6585 52.0165C80.6229 53.4689 80.8377 54.113 81.0582 54.5359C81.2647 54.9727 81.4219 55.3166 81.5747 55.6514C81.8781 56.3179 82.1522 56.932 82.4303 57.5631C82.981 58.8129 83.521 60.0692 84.0642 61.371C86.0967 66.2373 88.1216 71.5724 89.744 77.197C90.4997 79.8128 91.5202 82.4912 92.6765 85.1208C93.3983 86.7599 94.1756 88.3993 94.967 89.9455C95.7124 91.4173 96.716 93.1672 96.9376 93.291C97.9031 94.6324 98.5786 95.8457 99.0648 96.7102C99.2915 97.1177 99.5195 97.5063 99.4414 97.3427C99.4132 97.291 99.3639 97.1999 99.2209 96.9884C99.0697 96.7771 98.8767 96.4647 98.2391 95.8046C97.523 95.2646 96.646 93.6444 92.1633 92.8203C89.969 92.4846 87.2993 93.0993 85.7051 94.0198C84.1645 94.8719 83.368 95.7077 82.8048 96.3365C82.707 96.4229 82.0473 97.22 81.6959 98.4376C81.3104 99.6575 81.3781 101.161 81.6339 101.995C81.0742 99.446 80.6515 97.7271 80.0163 94.6262C79.8937 93.98 79.7695 93.3143 79.6484 92.6428C79.198 89.8223 78.7021 87.1873 77.9009 84.2559C76.7002 79.888 75.0466 75.107 73.6392 70.6276C72.5548 67.1917 71.6385 63.9339 70.965 61.2666C70.8616 60.8566 70.7602 60.4552 70.6804 60.1168C70.6427 59.9519 70.6048 59.7939 70.6099 59.7291C70.6146 59.6996 70.6294 59.6963 70.6991 59.7754C70.7595 59.8436 70.9408 60.0637 71.0837 60.1878C71.1716 60.2589 71.4248 60.5348 71.9684 60.848C72.5 61.166 73.3297 61.3921 73.9313 61.3865C75.1709 61.3599 75.4976 61.0483 75.7079 60.9471C76.063 60.7007 75.9339 60.6929 75.8594 60.7055C75.8519 60.7069 75.8438 60.7088 75.8353 60.7111C73.8029 61.7136 71.784 63.703 70.4259 65.094C68.2838 67.3761 66.7455 69.5466 64.6181 73.7169C63.9428 75.0626 63.0873 76.4972 62.2045 77.911C60.3847 80.9233 57.5772 84.2443 55.4286 86.3712C55.417 86.3766 55.4061 86.3787 55.3953 86.3773C54.2891 88.5884 53.0195 88.3497 52.4193 86.1366C52.3937 85.5989 52.4288 85.2899 52.4693 84.9455C53.2303 80.3216 55.5038 78.054 54.8805 75.2879C54.7448 74.6912 54.6221 74.1308 54.519 73.5974C53.9122 69.0271 54.4103 66.6952 58.7231 63.9438C61.0914 62.4551 61.7258 60.5793 62.0077 58.7879C62.361 56.8367 62.3874 54.9373 63.7979 53.7034C64.9179 52.7493 65.7148 52.5468 67.8579 51.2787C68.2956 51.0313 68.6886 50.755 69.8315 50.1793C70.4649 49.922 71.1719 49.3906 73.4735 49.1797C74.6139 49.088 76.3719 49.3486 77.7122 50.0743C79.0604 50.7825 79.7492 51.5762 80.0253 51.8847C81.6513 53.9304 81.4592 54.3321 81.7166 54.8511C81.8872 55.3373 82.0329 55.7667 82.2111 56.2377C82.9652 58.2488 84.2094 60.8034 86.5622 64.3641C86.8535 64.8041 87.1638 65.2629 87.4931 65.7411C90.257 69.7527 92.6557 73.2997 94.6622 76.727C96.7099 80.2106 98.2584 83.5889 99.3458 86.145C100.426 88.6001 101.451 90.6861 102.392 93.1814C102.765 94.1554 103.084 95.2763 103.351 96.456C104.891 100.769 102.396 108.446 99.4898 110.869C98.86 111.568 98.0492 112.407 96.5145 113.305C94.9807 114.226 92.4307 114.993 90.0726 114.801C85.2022 114.265 83.758 112.314 82.8185 111.571C81.1448 109.852 81.0063 109.296 80.6449 108.738C80.0899 107.73 79.9295 107.28 79.7501 106.855C79.432 106.054 79.2736 105.615 79.2402 105.421C76.1043 99.7562 75.5168 96.669 73.7634 92.9804C73.3466 92.0522 72.9202 91.1563 72.479 90.3045C69.825 85.188 66.606 76.6638 63.5839 69.1958C63.051 67.8812 62.527 66.6128 62.0141 65.4234C61.7593 64.8333 61.5068 64.2618 61.276 63.7703C61.163 63.5304 61.0497 63.299 60.9855 63.1946C60.9564 63.1481 60.9349 63.1278 60.9868 63.2558C61.0142 63.3216 61.0623 63.4295 61.1577 63.6099C61.2474 63.7822 61.4073 64.0503 61.5035 64.2002C61.4001 64.161 60.8373 63.5881 60.3629 63.225C59.8733 62.8362 59.3639 62.498 59.0261 62.3811C58.8958 62.3376 58.7932 62.3167 58.7999 62.3791C58.805 62.4112 58.8392 62.4663 58.9535 62.5742C59.0887 62.6919 59.2362 62.8402 59.8589 63.2163C62.8571 64.9363 65.6534 64.7915 66.9024 64.6181C68.2456 64.4191 68.7838 64.1664 69.004 64.095C72.3869 62.6138 73.281 61.001 73.8342 60.319C74.351 59.5602 74.465 59.2319 74.5416 59.0278C74.6619 58.6465 74.5275 58.7361 74.386 58.8552C74.0806 59.1347 73.617 59.6673 73.1063 60.1844C72.0664 61.2589 70.8142 62.4463 69.239 64.4512C68.8097 65.0689 68.3906 65.5988 67.9681 66.1374Z" fill="#84AE7D"/>
<path d="M41.0814 73.2765C41.7174 75.3008 43.8799 75.7103 46.4042 76.3697C49.1251 77.0218 52.2657 77.9454 53.5261 80.838C53.7718 81.4151 53.9457 81.9628 53.9738 82.3328C53.9846 82.5138 53.9641 82.6543 53.8307 82.6491C53.6626 82.624 53.5465 82.5357 52.5142 81.6837C50.8648 81.3345 50.5467 82.5642 50.6952 83.3342C50.8733 84.1604 51.7178 84.8598 53.3143 84.7049C53.3294 84.7033 53.3443 84.7018 53.3593 84.7004C53.199 84.6629 52.9956 84.5985 52.3015 84.5939C51.9284 84.6059 51.4571 84.5899 50.3924 84.8545C49.5019 85.182 46.8622 85.5865 44.714 89.5506C43.7755 91.4644 43.7233 93.3566 43.8673 94.5212C44.0151 95.7163 44.3002 96.4402 44.5035 96.9381C44.9482 97.9545 45.2353 98.3123 45.4523 98.6301C45.8667 99.1925 46.0197 99.3279 46.128 99.4503C46.3279 99.6598 46.2976 99.6289 46.246 99.5926C46.1877 99.5481 46.0815 99.4626 45.9562 99.3615C43.0225 97.1472 39.9352 93.3156 37.4818 93.3582C34.7615 93.3478 36.3566 89.9996 34.4638 88.3177C34.1559 88.043 33.7602 87.8107 33.2366 87.6331C29.458 86.3368 27.9647 84.2877 26.5283 80.8269C26.0887 79.759 25.16 78.2801 24.0265 76.6623C22.3432 74.2939 20.1848 71.4354 18.4209 69.1781C17.4792 68.0108 16.5718 67.0267 15.6847 66.4269C13.2464 64.7795 13.0446 61.4782 13.5763 58.8095C13.629 58.3439 13.6941 57.8781 13.8197 57.2721C13.8889 56.961 13.9541 56.6237 14.155 56.0959C14.2634 55.8285 14.4026 55.4986 14.7279 55.0923C15.035 54.6945 15.6457 54.2468 16.2498 54.1187C16.5588 53.975 17.3576 54.0799 17.6932 54.139C18.2774 54.604 18.6735 55.0519 19.0266 55.413C19.464 55.8661 19.7394 56.3295 19.9186 56.7634L19.8925 56.7444C19.9573 56.9399 20.0556 57.151 20.1576 57.415C20.2215 57.5808 20.2513 57.8183 20.1613 58.0182C20.0695 58.227 19.866 58.2477 19.709 58.2085C19.7088 58.2085 19.7086 58.2084 19.7084 58.2084C19.5107 58.1428 19.271 58.2223 19.1841 58.412C19.0924 58.5803 19.0429 58.6723 18.9706 58.6496C18.8982 58.6259 18.7819 58.5844 18.6346 58.5258C18.6304 58.5218 18.6152 58.5128 18.6111 58.5087C17.9903 58.2749 17.0628 58.0903 16.2872 58.3963L17.5354 58.4138C17.9442 58.3409 18.3751 58.0328 18.5733 57.7923C18.7859 57.5455 18.8666 57.3799 18.9348 57.274C19.0597 57.0662 19.1231 57.036 19.2108 57.0272C19.3782 57.0239 19.5811 57.1444 19.8189 57.2615C19.931 57.3463 20.0478 57.4325 20.1689 57.5175C23.8283 59.7671 21.0333 61.3211 24.7818 64.7153C24.8374 64.7616 24.8933 64.8074 24.9495 64.8529C27.271 66.6935 29.6286 67.1124 31.8272 68.5533C33.1779 69.4246 34.4318 70.6051 35.6594 72.5324C37.6483 75.6026 40.6192 74.921 43.4189 75.5164C45.3583 75.9303 47.3181 76.9801 49.328 80.4186C51.3661 83.8633 53.3522 84.7844 55.9896 85.4022C56.76 85.642 57.4516 85.7032 58.7928 86.4943C59.1447 86.7245 59.5417 86.9757 60.1879 87.6788C60.5202 88.0664 60.9203 88.506 61.4639 89.6002C61.8364 90.5949 63.2649 92.9327 61.5952 97.3512C60.7382 99.3965 59.1743 100.882 58.0328 101.624C56.8835 102.382 56.0211 102.683 55.382 102.895C54.0967 103.29 53.4396 103.343 52.8938 103.42C51.8504 103.54 51.3266 103.558 50.8462 103.597C47.9113 104.378 45.0775 106.32 37.5674 102.422C36.7144 101.906 35.8046 101.263 34.8651 100.415C33.5525 99.1566 33.2627 98.6796 32.9161 98.2596C32.6085 97.8612 32.4246 97.6052 32.2616 97.3777C31.9426 96.9293 31.7403 96.6264 31.5411 96.3204C31.1553 95.7254 30.8368 95.189 30.5129 94.6233C29.8703 93.4985 29.2368 92.3015 28.5802 91.0638C26.1705 86.6606 23.2086 80.9231 20.9651 78.3963C20.9378 78.3663 20.9105 78.3365 20.8832 78.3071C17.0619 74.1555 11.6912 68.8827 8.12266 60.9858C8.11443 60.9672 8.10619 60.9487 8.09793 60.9301C6.20331 56.6446 3.34649 52.3113 1.22312 46.7631C0.941935 45.9898 0.663642 45.293 0.327107 43.8495C0.243755 43.4632 0.150437 43.0308 0.0680666 42.2782C0.0287514 41.8746 -0.0134497 41.4327 0.0040617 40.6552C0.0883942 39.8467 -0.107064 38.9258 1.0407 36.1864C1.67475 34.8069 3.06343 32.5665 5.87143 31.052C8.66212 29.5516 11.4057 29.6286 12.8968 29.881C15.8667 30.4707 16.5467 31.1778 17.2598 31.5571C18.5293 32.3952 18.8741 32.782 19.2849 33.1502C20.7039 34.5428 20.9991 35.0049 21.535 35.6538C22.009 36.2541 22.4039 36.793 22.7787 37.3336C23.5201 38.4061 24.1521 39.4538 24.7076 40.5544C24.8926 40.9223 25.0848 41.2965 25.2843 41.676C27.7459 46.3849 31.6472 52.1519 34.7696 56.6708C36.1335 58.6504 37.3491 60.4106 38.2211 61.7769C41.2658 66.5124 42.078 67.6718 46.7353 70.1544C47.4238 70.5164 48.1349 70.9868 48.8153 71.526C49.6156 72.1588 50.396 72.9092 51.0874 73.7004C51.7783 74.4974 52.3962 75.2956 52.3982 75.7171C52.8837 76.0083 53.3613 76.3218 53.8335 76.6541C54.6447 77.2269 54.9561 77.8245 54.9598 78.4142C54.7997 79.0238 54.2036 79.5716 53.2263 79.8605C52.7896 79.9903 52.3691 80.0723 51.9632 80.1254C49.7652 80.0605 48.9209 79.2301 48.035 78.9331C47.1697 78.5691 46.3987 78.3941 45.451 78.655C44.4147 78.9426 43.5275 79.1828 42.7503 79.3314C40.1747 79.8113 38.8365 79.3209 37.822 76.37C36.5236 72.5358 32.1734 75.2286 30.9871 73.4902C29.9871 71.9989 31.2069 70.2646 25.9258 66.5904C25.0104 65.9468 23.9053 65.2419 22.5577 64.4447C16.7328 60.997 12.8032 58.0152 9.88717 55.5035C8.22448 54.0672 6.93844 52.8346 5.85954 51.8264C5.3966 51.3947 4.92349 50.8264 4.49096 50.2324C4.27582 49.937 4.07025 49.6353 3.91093 49.3819C3.83399 49.2583 3.7682 49.1469 3.74545 49.0838C3.72941 49.0258 3.72838 48.9962 3.94956 49.1711C4.13096 49.306 4.29263 49.4844 5.15401 50.0562C5.67163 50.3503 6.16685 50.8091 8.22146 51.4204C9.29753 51.6817 10.9349 52.0955 13.6233 51.5C16.2662 50.9714 19.0389 48.7721 20.0891 47.091C22.1878 43.6956 21.797 42.6058 21.9659 41.7636C22.0068 41.0094 21.963 40.6102 21.9349 40.3407C21.8682 39.7984 21.8064 39.6476 21.7663 39.5407C21.6845 39.3602 21.6601 39.4762 21.6552 39.6193C21.6513 39.7713 21.6695 39.9871 21.6988 40.2238C21.9765 42.5245 22.8416 45.3644 24.4246 47.3945C24.9893 48.1235 25.6056 49.0122 26.2824 49.9951C29.4543 54.6724 34.6661 62.0457 38.0889 64.2896C38.1283 64.3158 38.167 64.3419 38.2051 64.3678C42.1903 67.0539 39.7952 69.0888 41.0814 73.2765Z" fill="#84AE7D"/>
<path d="M84.4439 60.7084C83.0004 57.3079 82.5003 54.6862 81.9555 52.0786C81.1507 47.5501 81.0376 43.1806 83.5847 37.8419C85.687 33.9871 88.784 32.575 89.8473 31.8556C95.4088 29.1824 98.4284 30.2766 101.05 30.5575C103.638 31.033 105.777 31.7153 107.824 32.4523C112.311 34.6107 113.352 36.1883 114.975 37.5354C116.433 38.8875 117.658 40.0807 118.873 41.2344C122.526 44.8186 125.542 50.0544 127.237 54.2112C129.224 59.4091 129.341 63.8431 129.503 67.2592C129.778 71.9512 126.123 77.8262 124.589 79.2272C120.575 83.2483 118.573 83.7485 116.363 84.9067C114.217 85.8838 112.317 86.579 110.086 87.2169C104.271 88.6177 101.14 88.2162 97.7939 88.0988C93.9495 88.1266 87.7994 85.5144 85.3823 83.1488C84.9864 82.8208 84.6017 82.4776 84.2269 82.1173C80.8042 78.8181 78.7973 74.7071 78.0718 70.4894C77.2673 65.0722 78.1602 61.6514 79.0055 58.5804C81.4214 50.9236 86.0894 48.7851 88.5673 47.3427C91.2743 45.9762 93.4968 45.3913 95.0986 44.9922C106.291 42.882 109.721 46.5093 114.613 49.8298C122.3 56.9692 121.088 62.8102 121.495 66.4981C121.805 70.746 120.022 74.7554 118.035 77.1502C113.59 82.0362 111.419 81.7497 109.611 82.7039C105.819 84.2867 102.145 84.6293 99.2217 84.8024C96.6161 84.9306 93.9307 85.0022 90.0354 83.5262C85.3506 81.4069 84.1645 78.8373 82.9777 77.2395C79.7443 71.9175 80.5727 67.7658 80.7516 65.0479C80.8228 60.3732 86.3457 55.9283 85.8959 56.4321C88.81 54.1382 90.4084 53.9139 91.9948 53.3928C93.5409 52.969 94.9044 52.7327 96.265 52.551C98.719 52.2401 100.973 52.1363 103.552 52.2844C109.902 53.1293 111.743 55.7242 113.761 57.4216C115.631 59.2733 116.974 61.0292 118.241 62.9334C122.767 69.5662 120.939 77.8643 118.523 82.1714C115.212 87.8609 111.363 88.6459 108.916 89.5927C106.365 90.39 104.004 90.6955 102.481 90.9122C101.081 91.1257 99.5812 91.2049 97.8175 90.9502C96.0443 90.5894 94.0101 90.413 91.0081 87.6577C88.0701 84.5441 87.7681 81.8738 87.4524 80.1375C87.2091 78.3412 87.25 77.0156 87.2871 75.892C87.5967 69.9725 90.7581 66.8038 92.7125 64.8578C94.84 62.8688 96.7562 61.6221 98.5385 60.4883C103.448 57.6989 106.185 58.3486 108.719 58.4399C111.233 58.7196 113.307 59.2139 115.767 60.2386C120.104 62.4117 120.4 64.3831 121.131 65.4567C121.71 66.6179 121.988 67.4401 122.243 68.1942C122.729 69.6796 123.019 70.8302 123.311 71.902C124.192 74.7577 124.143 78.7549 123.424 81.256C122.557 84.9707 119.919 87.5999 118.071 88.859C116.149 90.1925 114.572 90.8129 113.374 91.3154C107.585 93.185 105.003 92.9058 99.8775 91.3131C94.2957 88.5762 93.8293 84.9625 93.113 83.2141C92.5384 81.2469 92.3674 79.803 92.2193 78.4792C91.952 75.582 92.0245 73.5009 92.4929 70.8643C93.679 65.2936 97.6506 62.6644 99.8348 61.5401C102.225 60.3429 104.113 59.9581 105.775 59.6931C109.794 58.95 112.83 60.0942 114.566 60.8787C118.832 62.5727 120.226 65.5132 121.033 67.2597C121.824 69.1431 122.118 70.6772 122.379 72.1599C123.167 75.6587 122.246 78.8538 121.534 80.792C119.068 87.4295 113.732 88.747 109.729 89.7274C107.36 90.2178 104.218 89.9037 101.623 87.4852C98.0569 83.9135 98.2721 79.8076 98.4516 77.2847C98.6861 74.8967 99.2189 72.9988 99.7131 71.328C101.266 66.9579 104.198 65.3576 106.098 64.2547C108.123 63.1804 109.887 62.6109 111.495 62.1322C114.925 61.1172 118.473 62.2927 120.453 63.6798C125.806 67.9123 125.208 71.9124 125.487 74.4318C125.516 77.1139 125.145 79.3324 124.631 81.4959C124.249 83.7744 122.027 87.0857 120.039 88.2759C118.115 89.568 116.986 89.9208 116.09 90.3503C113.493 91.587 110.276 91.7934 107.311 90.466C105.354 89.6332 103.952 87.8688 103.403 86.6492C102.808 85.3808 102.671 84.4706 102.576 83.7139C102.426 82.2216 102.554 81.2582 102.684 80.3539C102.973 78.5856 103.404 77.2248 103.982 75.7526C105.743 71.6085 108.493 70.6166 110.132 69.8213C111.892 69.0875 113.398 68.7501 114.588 68.4654C117.367 67.7199 119.403 68.3156 120.322 68.4994C123.391 69.0643 125.264 71.0415 126.248 72.456C127.273 73.9461 127.791 75.2871 128.206 76.601C128.913 78.6244 128.811 81.1261 128.165 82.9137C127.749 84.1409 127.158 85.1849 126.541 86.0831C125.816 87.1239 124.893 88.3027 123.434 89.4043C122.101 90.5141 119.572 91.3011 119.135 91.3588C117.175 91.9774 115.924 91.7347 114.689 91.4359C112.984 91.0551 111.755 89.5635 111.428 88.8141C111.025 87.9907 110.959 87.5088 110.889 87.1099C110.778 86.3375 110.806 85.9095 110.82 85.5068C110.863 84.7331 110.948 84.183 111.011 83.6926C111.372 80.807 112.932 79.3147 113.958 78.3093C115.059 77.2956 116.067 76.6111 116.964 75.9664C119.997 73.7145 123.476 73.6826 125.86 73.688C126.913 73.6426 128.257 74.0996 129.037 74.7247C129.838 75.335 130.226 75.9353 130.438 76.2413C132.33 79.5349 131.533 81.4817 131.233 83.2678C130.788 85.0369 130.132 86.5904 129.19 88.1595C125.697 92.9584 121.697 92.3785 119.17 93.152C117.623 93.5156 115.87 93.3344 114.851 93.1381C113.086 92.8056 112.293 92.0121 111.657 91.4553C111.037 90.8655 110.608 90.3247 110.217 89.8117C108.487 87.2105 108.813 85.5404 108.77 83.9587C108.832 82.3941 109.057 80.978 109.344 79.5859C109.892 76.6733 112.345 74.9498 113.877 74.1958C115.529 73.3623 116.994 72.8976 118.401 72.4162C121.165 71.4296 124.476 71.7665 126.941 73.0839C129.182 74.0641 131.684 76.8478 132.249 79.2254C132.861 80.8304 132.274 82.8904 131.584 83.8351C129.639 86.595 127.028 86.7235 125.426 86.9051C123.246 87.0031 121.246 87.0685 118.567 85.7683C113.708 82.6893 113.218 78.4319 112.223 75.4337C111.131 72.053 111.7 67.0882 114.199 64.3014C115.126 63.0745 116.85 61.6961 118.692 61.2434C120.5 60.7827 121.682 60.8819 122.478 60.7956C123.026 60.7883 123.74 60.826 124.629 61.188C125.514 61.5295 126.479 62.357 126.958 63.1904C127.696 64.371 127.849 65.7014 127.805 66.5792C127.771 67.4079 127.603 68.0506 127.52 68.4224C126.551 71.2584 125.165 71.9062 124.23 72.6823C123.24 73.3813 122.346 73.8523 121.523 74.2719C119.028 75.3683 116.886 75.3537 114.41 74.3983C112.86 73.6849 112.255 72.6508 111.932 72.0853C111.609 71.4784 111.495 71.078 111.398 70.7373C111.225 70.0834 111.179 69.6612 111.137 69.2786C111.063 68.5305 111.057 67.9677 111.055 67.423C111.056 66.3471 111.103 65.4034 111.149 64.4759C111.21 62.6022 112.086 60.3534 113.436 58.9042C114.715 57.4456 116.409 56.5818 117.117 56.2227C118.697 55.4453 119.315 55.4914 119.979 55.3677C120.607 55.2869 121.114 55.2557 121.595 55.229C123.044 55.0606 125.676 55.7103 127.043 57.7175C128.435 59.772 128.33 61.4395 128.31 62.5064C128.246 63.6094 128.065 64.4112 127.93 65.0619C126.911 69.1015 124.757 70.4028 123.137 71.7537C121.436 73.0124 119.718 73.9286 118.153 74.7013C116.035 75.7585 114.576 75.5966 113.332 75.5312C112.675 75.5128 111.812 75.2619 111.179 74.8176C110.537 74.3803 110.156 73.8667 109.93 73.4872C109.489 72.7105 109.437 72.278 109.366 71.9356C109.261 71.2748 109.286 70.9331 109.296 70.6107C109.33 69.9922 109.4 69.5699 109.456 69.1909C110.199 64.8626 113.275 63.8734 114.245 63.1541C116.511 61.8033 118.25 61.3606 121.108 61.7558C121.727 61.8129 123.012 62.5107 123.433 63.5322C123.86 64.4994 123.743 65.0726 123.703 65.4428C123.569 66.1732 123.388 66.4424 123.239 66.7217C122.934 67.2364 122.653 67.5394 122.343 67.8372C117.824 71.3798 113.784 70.8735 110.326 71.0102C109.119 71.0625 107.797 70.5063 107.081 69.9581C105.983 69.2021 105.473 68.1291 105.184 67.4413C104.765 66.4875 104.706 65.5545 104.776 64.7417C104.901 63.7348 105.025 63.0317 105.72 61.9244C106.272 61.1541 107.046 60.8956 107.664 60.838C108.43 60.7247 109.428 61.1847 109.827 61.7886C110.616 63.0524 110.43 63.7089 110.486 64.3939C110.487 65.0563 110.441 65.6439 110.394 66.2029C110.396 66.3102 110.335 66.5936 110.297 66.6938C109.258 68.8392 107.591 70.3505 105.985 71.0784C105.835 71.1483 105.691 71.2073 105.554 71.2564C105.54 71.2641 105.498 71.2833 105.483 71.2895C104.169 71.6169 103.605 71.0277 103.67 70.7781C103.67 70.7778 103.67 70.7776 103.67 70.7774C103.728 70.4498 104.247 70.3087 104.901 69.8507L104.818 69.8896C105.063 69.6995 105.341 69.4899 105.645 69.2497C106.68 68.4386 107.531 67.2494 108.048 65.7772L107.966 66.1908C107.945 65.6368 107.921 65.0774 107.859 64.5571C107.827 64.2984 107.785 64.0481 107.728 63.8444C107.679 63.6448 107.577 63.4829 107.594 63.5446C107.616 63.631 107.897 63.7738 108.004 63.7531C107.99 63.7665 108.087 63.7918 108.232 63.6207C108.236 63.6344 108.132 63.9045 108.096 64.1152C108.051 64.34 108.025 64.5786 108.024 64.8073C108.02 65.2664 108.125 65.6809 108.295 65.9333C108.601 66.4896 108.87 66.7514 109.08 66.8251C109.566 67.0743 109.767 67.0714 110.107 67.013C113.187 66.643 116.997 65.6982 118.337 63.8789C118.321 63.8753 118.304 63.8479 118.21 63.9771C118.165 64.0614 118.079 64.1269 117.986 64.5974C117.962 64.8386 117.857 65.256 118.201 66.0432C118.54 66.8782 119.611 67.4548 120.075 67.4922C120.172 67.5349 119.9 67.5486 119.713 67.6063C119.506 67.6599 119.285 67.7345 119.08 67.8247C118.668 68.0044 118.323 68.2496 118.12 68.4911C117.527 68.9869 117.156 69.306 116.897 69.6064C116.69 69.844 116.599 70.0349 116.628 70.0823C116.653 70.1382 116.787 69.9912 116.842 69.8115C116.843 70.1983 116.853 70.5365 116.887 70.6759C116.899 70.7301 116.939 70.7699 116.903 70.4738C116.867 70.3122 116.865 70.0642 116.509 69.4504C116.328 69.1545 116.004 68.7281 115.453 68.3647C114.911 67.9958 114.183 67.7923 113.646 67.7761C114.215 67.752 114.612 67.4763 114.116 67.6313C115.653 66.6054 116.892 65.682 117.82 64.7984C118.276 64.3656 118.637 63.9469 118.829 63.6494C119.032 63.3544 119.002 63.2004 118.924 63.479C119.024 62.8432 119.077 62.3705 119.072 62.1841C119.072 62.0964 119.055 62.0928 119.083 62.2538C119.111 62.4065 119.206 62.7724 119.509 63.1918C119.874 63.7137 120.509 64.175 121.047 64.3632C121.591 64.5627 122.005 64.5679 122.278 64.5485C121.894 64.574 121.539 64.6036 121.304 64.6329C121.19 64.6465 121.105 64.6619 121.11 64.6582C121.121 64.6464 121.203 64.6522 121.601 64.4412C121.038 64.7332 120.857 64.8218 120.675 64.9312C120.508 65.03 120.432 65.0916 120.408 65.1015C120.377 65.1341 120.435 64.8793 120.376 65.0237C120.301 65.8863 120.225 66.7453 120.185 67.5148C120.164 67.8917 120.157 68.2625 120.162 68.469C120.161 68.5626 120.175 68.6326 120.133 68.4723C120.104 68.3844 120.076 68.2405 119.896 67.8862C119.712 67.5712 119.332 66.7848 118.056 66.187C117.881 66.1342 118.006 66.197 118.029 66.202C118.066 66.2168 118.036 66.215 117.911 66.2819C118.543 66.0144 119.12 65.7408 119.515 65.5012C119.709 65.3867 119.852 65.2751 119.864 65.2684C119.888 65.2694 119.691 65.3711 119.478 66.0269C119.559 65.7805 119.53 65.7935 119.517 66.0133C119.501 66.2215 119.543 66.8129 119.876 67.3621C120.167 67.8967 120.849 68.4873 121.395 68.6976C121.946 68.9262 122.286 68.9265 122.463 68.9312C121.394 68.9138 120.633 68.9345 120.555 68.9845C120.501 69.0043 120.55 68.9863 120.505 69.0184C120.465 69.0499 120.343 69.1554 120.179 69.3601C119.314 70.4722 119.135 71.3605 119.714 73.5865C120.191 75.3163 120.782 77.0103 121.497 78.0452C121.901 78.6411 122.255 78.8596 122.388 78.8705C122.251 78.7765 122.764 78.9315 123.237 78.9393C123.735 78.9653 124.305 78.9392 124.867 78.8609C125.311 78.8021 125.605 78.691 125.578 78.6597C125.579 78.6166 125.062 78.7964 124.668 79.35C124.584 79.4533 124.397 79.7287 124.28 80.2364C124.157 80.7356 124.199 81.4199 124.335 81.8478C124.183 81.4668 124.108 81.37 124.046 81.3042C123.985 81.245 123.946 81.234 123.88 81.1972C123.757 81.1317 123.48 80.966 123.018 80.7894C122.218 80.5344 121.859 80.6664 121.334 80.9424C120.019 81.4762 118.788 82.0176 118.183 82.4333C117.886 82.6278 117.798 82.7909 118.005 82.6463C118.206 82.529 118.637 81.904 118.744 81.4331C118.613 82.4464 118.553 83.4564 118.602 84.1893C118.624 84.5469 118.683 84.8399 118.723 84.8738C118.732 84.9081 118.868 84.6264 118.173 83.6103C118.4 83.8634 118.6 84.0307 118.563 83.9566C118.489 83.9288 118.292 83.3629 116.396 82.9553C117.351 83.0529 116.956 82.9109 116.819 82.9259C118.343 82.5207 119.593 82.2053 120.255 81.9217C120.578 81.79 120.723 81.6678 120.584 81.7217C120.46 81.7636 120 82.0928 119.676 82.6182C119.914 82.1386 120.183 81.3596 120.257 80.8601C120.299 80.6196 120.285 80.4309 120.267 80.5732C120.293 80.7045 120.109 81.3092 121.055 82.801C121.032 82.7544 121.298 83.2637 122.199 83.9553C123.065 84.6696 124.857 85.2862 126.102 85.2109C125.192 85.2438 124.427 85.3253 124.113 85.4054C123.767 85.4986 124.057 85.4488 124.199 85.3281C123.35 85.9857 122.662 86.5355 122.393 86.8023C122.262 86.9236 122.257 86.9713 122.426 86.7173C122.58 86.4801 122.971 85.7944 123.061 84.7297C123.011 85.2554 122.975 85.6794 122.972 85.7455C122.963 85.7533 122.995 85.7233 122.911 85.1363C122.846 84.8212 122.813 84.3702 122.326 83.3383C121.953 82.4239 120.224 80.1591 117.638 79.5862C117.117 79.518 116.695 79.2633 114.939 79.8199C115.96 79.475 116.055 79.464 116.038 79.4734C116.002 79.4935 115.814 79.6027 115.724 79.6857C115.52 79.8709 115.664 79.8271 115.903 79.4764C116.096 79.2119 116.091 79.14 116.034 79.4704C115.967 79.7787 116.012 80.562 116.221 80.9922C116.098 80.5537 115.912 80.1846 115.97 80.2234C116.008 80.2418 116.119 80.382 116.477 80.6303C116.82 80.8714 117.5 81.2142 118.288 81.314C117.281 81.0794 117.318 81.2327 118.213 81.0085C118.275 80.9904 118.342 80.9695 118.41 80.9454C117.086 81.2864 116.167 81.5424 115.673 81.7392C115.439 81.8249 115.345 81.8943 115.502 81.7509C115.639 81.6187 116.133 81.1492 116.447 80.2512C116.198 80.8668 115.987 81.6713 115.932 82.0816C115.896 82.2678 115.931 82.4052 115.885 81.9974C115.846 81.7841 115.811 81.4018 115.441 80.6518C115.111 79.9392 114.1 78.6933 112.737 78.1258C112.117 77.8658 111.795 77.8378 111.33 77.839C110.889 77.8491 110.449 77.9716 110.155 78.1102C111.279 77.565 112.185 77.0662 112.049 77.0944C111.995 77.1106 111.677 77.3648 111.455 77.6915C111.225 78.0166 111.132 78.2908 111.104 78.3328C111.371 76.9146 111.453 75.4759 111.325 74.5423C111.27 74.0897 111.136 73.766 111.111 73.8867C111.083 73.9583 111.28 74.812 112.373 75.6382C112.522 75.781 112.801 75.9927 113.345 76.1577C113.876 76.3261 114.682 76.3678 115.335 76.2212C114.197 76.6365 113.245 77.106 112.828 77.4583C112.626 77.6228 112.584 77.7588 112.807 77.6395C113.01 77.5322 113.561 77.0447 113.933 76.1232C113.607 77.4515 113.445 78.6079 113.505 79.1935C113.527 79.4646 113.638 79.5658 113.63 79.132C113.632 78.7491 113.332 77.496 112.276 76.4147C110.336 74.5083 108.125 74.2771 106.582 74.5382C107.149 74.3496 107.741 74.0244 107.698 73.9532C107.68 73.9286 107.481 73.9816 107.094 74.3409C106.718 74.6833 106.157 75.4462 105.877 76.3688C106.208 75.1388 105.762 75.3776 106.06 76.7484C105.844 76.0501 105.589 75.4702 105.563 75.4772C105.566 75.4878 105.619 75.6724 106.036 76.1643C106.434 76.6269 107.392 77.5301 108.951 78.0433C108.164 77.7614 108.63 78.1661 110.057 77.8506C109.305 78.0101 108.759 78.2433 108.877 78.1703C108.938 78.1182 109.218 77.9672 109.698 77.4239C110.168 76.9068 110.796 75.8303 110.991 74.726C110.812 75.3384 110.615 76.9343 110.604 77.8548C110.584 78.3188 110.638 78.7224 110.551 78.5315C110.491 78.4264 110.412 78.1444 109.977 77.4892C109.57 76.8776 108.546 75.668 106.82 74.9667C106.479 74.8403 106.418 74.8505 106.39 74.8551C106.368 74.8644 106.408 74.8898 106.465 74.9145C106.581 74.9657 106.766 75.0166 106.92 75.0524C107.227 75.1411 107.452 75.0928 106.978 75.3387C107.839 75.0758 108.328 74.869 108.283 74.9793C108.26 75.0433 108.074 75.2185 107.806 75.6255C107.54 76.0207 107.234 76.6907 107.131 77.3255C107.136 77.3118 107.141 77.2987 107.146 77.2861C107.3 76.8833 107.329 76.9677 107.392 76.8792C107.446 76.8147 107.489 76.6703 107.47 76.4155C107.214 75.2433 106.978 74.1613 106.795 73.4486C106.713 73.1052 106.62 72.8404 106.702 72.94C106.752 72.9948 106.84 73.1534 107.166 73.5293C107.494 73.8824 108.117 74.5956 109.534 75.1916C109.058 74.8914 107.941 74.5499 107.219 74.4437C106.851 74.3822 106.544 74.3711 106.471 74.356C106.396 74.3245 106.601 74.3519 107.312 73.883C105.794 74.7989 104.502 75.7192 103.774 76.4163C103.412 76.7547 103.215 77.0262 103.202 77.0402C103.182 77.07 103.347 76.73 103.351 76.2604C103.329 77.0079 103.366 77.5809 103.402 77.7415C103.415 77.8159 103.429 77.7721 103.335 77.5132C103.24 77.265 103.007 76.7438 102.432 76.1599C101.626 75.3781 101.109 75.1855 100.766 75.0338C100.422 74.8977 100.228 74.8611 100.095 74.8344C99.8382 74.7897 99.8144 74.7985 99.8401 74.774C101.791 74.4272 103.007 74.1318 103.897 73.7533C104.313 73.5786 104.577 73.3864 104.514 73.3679C104.476 73.3464 103.963 73.5848 103.452 74.4495C103.809 73.5329 103.862 72.7323 103.733 72.4845C103.589 72.2071 103.489 72.5774 103.4 72.6671C102.616 71.742 101.68 70.8299 100.955 70.3486C100.604 70.1112 100.289 69.9854 100.28 70.0864C100.284 70.1563 100.61 70.6327 102.182 70.8799C101.059 70.9819 99.5772 71.2058 98.38 71.5382C97.7862 71.7012 97.233 71.9012 96.9681 72.0707C96.8424 72.1513 96.7883 72.2297 96.952 72.2158C97.1242 72.1764 97.4989 72.1554 98.5489 71.3633C98.029 71.8162 97.852 71.9509 97.7495 72.0491C97.6541 72.1383 97.6612 72.1525 97.7177 72.1247C97.834 72.0657 98.1588 71.8329 98.5542 71.4108C99.3714 70.6097 100.331 68.758 100.503 67.2767C100.506 68.032 100.608 68.4691 100.7 68.3783C100.769 68.3124 100.881 67.4434 100.021 65.9349C100.23 66.1603 100.387 66.2346 100.202 65.951C100.016 65.6996 99.4007 64.8933 97.6846 64.1342C97.0178 63.8201 96.9088 63.7944 96.8706 63.7235C96.8485 63.6647 96.9667 63.6169 97.1524 63.5427C99.1748 63.2218 100.255 62.7486 100.237 62.5837C100.952 62.2056 101.542 61.8674 101.667 61.7467C101.805 61.6938 101.309 61.5685 99.6864 63.5221C99.0977 64.1609 98.0101 66.2118 98.2155 68.6469C98.0739 67.585 97.861 66.8128 97.7964 66.7868C97.7498 66.6798 97.9058 67.9444 99.8668 69.5242C99.9704 69.6194 99.9342 69.6047 99.8894 69.5994C99.8245 69.5833 99.7067 69.589 99.9854 69.665C100.266 69.7003 101.001 69.9748 102.992 69.3974C101.762 69.7983 101.19 70.099 101.274 70.0729C101.336 70.0341 101.644 69.8984 102.302 69.2475C102.929 68.6253 104.02 67.2321 104.545 65.1947C104.316 65.9444 104.46 66.6308 104.325 65.5913C104.084 64.2945 103.385 63.1219 102.316 62.2609C102.492 62.395 101.759 61.8437 101.041 61.5826C100.304 61.2902 99.6401 61.205 99.3355 61.1971C100.488 61.2744 101.542 61.3175 102.361 61.312C103.149 61.3223 103.825 61.2035 103.4 61.3083C104.248 61.1106 105.346 60.7679 106.073 60.4859C106.437 60.3481 106.73 60.2124 106.781 60.1951C106.813 60.2235 106.668 60.1596 105.572 61.2769C105.763 61.0982 105.201 61.6408 104.658 62.7232C104.096 63.7971 103.745 65.3223 103.742 66.348C103.931 63.7107 103.746 62.0307 103.736 61.9389C102.843 58.9365 102.259 57.7327 101.046 56.0712C100.02 54.7752 99.0301 53.5163 98.2448 52.5789C97.8605 52.1176 97.5183 51.7387 97.4014 51.6042C97.3232 51.4647 97.3181 51.6333 98.6932 52.2898C97.6323 51.7443 96.6044 51.3329 96.1123 51.1725C95.883 51.088 95.7852 51.0849 96.1753 51.0732C96.5498 51.0232 97.5834 51.1167 99.5905 50.0703C99.0167 50.3469 99.0078 50.3801 99.425 50.052C99.8264 49.7362 100.75 48.8836 101.415 47.6133C101.66 47.1033 101.621 47.0419 101.616 47.0061C101.599 46.9844 101.561 47.0493 101.531 47.1416C101.469 47.3324 101.433 47.637 101.466 48.0033C101.753 49.9741 102.484 52.1345 102.376 51.9732C102.708 52.5661 102.762 52.6791 102.869 52.8659C102.964 53.0315 103.051 53.1696 103.161 53.3199C103.377 53.6166 103.686 53.9507 104.116 54.311C105.158 55.1287 106.155 55.8862 106.875 56.3851C107.225 56.6308 107.517 56.8086 107.519 56.8293C107.468 56.8759 107.342 56.6074 105.402 56.443C107.05 56.5928 108.4 56.6943 109.211 56.698C109.59 56.7098 109.846 56.6645 109.495 56.7656C109.232 56.9761 107.698 56.8337 105.267 60.0184C104.52 61.1892 104.478 61.8188 104.432 62.1713C104.408 62.5199 104.461 62.5838 104.469 62.5034C104.25 60.073 103.622 57.8238 102.61 55.4702C101.45 52.7897 100.448 50.7413 99.475 49.2888C98.5376 47.9019 97.6217 46.5797 96.7716 45.4216C96.352 44.8499 95.9369 44.3066 95.6239 43.9261C95.4753 43.7437 95.3334 43.5871 95.3597 43.6159C95.384 43.6378 95.427 43.6952 95.7219 43.9467C95.8868 44.081 96.0793 44.2513 96.6067 44.5901C97.2498 44.8666 97.5784 45.6084 101.148 46.0501C102.637 46.1014 105.193 46.132 108.178 43.5868C111.154 40.8871 111.433 37.5422 111.401 36.3073C111.389 35.8207 111.373 35.8335 111.375 35.8125C111.376 35.8116 111.387 35.8739 111.404 35.949C111.439 36.106 111.497 36.3227 111.567 36.5402C111.931 37.7121 112.618 38.8801 113.161 39.4119C113.782 40.0872 114.365 40.675 114.585 40.8498C114.67 40.9284 114.707 40.894 114.166 40.5574C113.648 40.3696 112.196 39.004 108.07 39.7408C107.362 39.9222 106.617 40.0846 105.219 40.9285C104.527 41.3718 103.613 42.0203 102.619 43.3029C101.629 44.5442 100.689 46.664 100.57 48.6917C100.597 48.3549 100.571 48.6027 100.562 48.8383C100.552 49.0906 100.554 49.3731 100.569 49.617C100.597 50.0998 100.655 50.4206 100.696 50.6322C100.784 51.0526 100.818 51.1175 100.812 51.1188C100.797 51.0925 100.646 50.7512 100.453 50.381C100.058 49.6123 99.4933 48.6351 98.8793 47.6343C97.5673 45.5107 95.8475 42.9419 94.3304 40.849C94.2015 40.6734 94.0747 40.5044 93.9895 40.3961C93.9485 40.3439 93.9143 40.3032 93.9328 40.329C93.9451 40.3453 93.967 40.375 94.0501 40.4731C94.0957 40.5262 94.1508 40.5908 94.2678 40.7168C94.3209 40.7737 94.4009 40.8585 94.5156 40.9724C94.5739 41.0303 94.6323 41.0872 94.7175 41.1671C94.8161 41.2593 94.9329 41.3654 95.0818 41.4919C95.1563 41.5552 95.239 41.6236 95.3329 41.6984C95.4381 41.7823 95.6053 41.9111 95.786 42.0392C95.9708 42.1703 96.1891 42.3173 96.4653 42.4832C96.6177 42.5735 96.7095 42.6287 96.9716 42.7682C97.2489 42.9141 97.5752 43.0719 97.981 43.2343C98.3872 43.396 98.873 43.564 99.4833 43.7086C99.7885 43.7805 100.125 43.8459 100.498 43.8965C100.888 43.9436 101.198 43.9925 102.033 43.9921C103.496 43.9876 105.465 43.6117 107.267 42.5557C109.068 41.5633 110.542 39.7473 111.046 38.8406C112.339 36.6282 112.475 35.0054 112.558 33.9428C112.596 33.1359 112.562 32.769 112.527 32.346C112.489 31.9505 112.438 31.6419 112.389 31.3824C112.346 31.157 112.319 31.0393 112.285 30.8959C112.22 30.6254 112.16 30.4193 112.107 30.2474C112.024 29.982 111.961 29.8092 111.906 29.6644C111.728 29.2039 111.685 29.1355 111.649 29.0528C111.588 28.9222 111.605 28.9583 111.628 28.9959C111.679 29.0857 111.784 29.268 111.893 29.4526C113.479 32.1165 115.486 35.0904 117.466 37.5903C119.449 40.0854 121.863 42.7059 124.302 45.0388C124.777 45.4915 125.256 45.9413 125.572 46.2173C125.721 46.3499 125.834 46.4343 125.731 46.3498C125.678 46.308 125.559 46.217 125.356 46.0879C125.158 45.9603 124.864 45.7983 124.635 45.6916C125.265 45.977 126.561 46.4335 127.455 46.6555C127.89 46.7714 128.343 46.8378 128.191 46.8106C128.055 46.818 127.929 46.6995 126.528 46.8914C125.794 47.072 124.629 47.0664 122.223 48.7818C121.042 49.6619 119.669 51.2231 118.918 53.0986C118.164 54.9366 118.072 56.6373 118.173 57.8634C118.227 58.4646 118.305 58.5943 118.295 58.5924C118.289 58.5815 118.211 58.4088 118.066 58.17C117.776 57.6847 117.225 56.95 116.52 56.1817C114.038 53.467 111.407 50.7232 108.918 48.4567C106.636 46.3853 104.345 44.6514 101.612 42.9221C98.9703 41.2404 96.6168 39.8504 94.7634 39.1053C93.4218 38.5667 92.0684 38.0362 90.6975 37.5083C90.0069 37.2422 89.319 36.9797 88.5915 36.7012C88.2261 36.5611 87.8559 36.4193 87.4304 36.2523C87.2066 36.1642 86.9875 36.0781 86.6585 35.9414C86.4753 35.8639 86.3164 35.8006 85.9132 35.6126C85.8055 35.5615 85.7152 35.519 85.5161 35.4176C85.3067 35.3067 85.1967 35.2614 84.6603 34.9341C84.5366 34.8571 84.3981 34.7678 84.2375 34.6577C84.0613 34.5334 83.9586 34.4724 83.5167 34.1188C83.1266 33.7956 82.6308 33.3781 81.9568 32.5649C81.7887 32.3597 81.61 32.1268 81.4225 31.8554C81.3283 31.7191 81.234 31.5764 81.1341 31.4158C80.9363 31.0973 80.7313 30.7321 80.5301 30.3049C79.732 28.7042 78.9292 25.471 80.0733 22.1981C80.5769 20.642 81.6108 19.1362 82.3246 18.3824C82.9127 17.7372 83.5021 17.2435 84.0421 16.8576C85.1287 16.0892 86.0063 15.7219 86.6962 15.4701C87.3885 15.2243 87.9115 15.1062 88.3403 15.0235C88.656 14.965 88.7909 14.9472 88.9833 14.9216C89.6901 14.834 90.1136 14.8325 90.4538 14.832C92.551 14.882 94.0403 14.8962 95.4076 14.8074C96.5826 14.789 98.9208 14.172 102.817 13.9893C105.042 13.9429 107.214 13.8525 110.257 14.0663C111.827 14.2686 113.328 14.1178 116.968 15.6638C121.15 17.5462 125.418 20.9824 128.226 23.9981C131.767 27.7398 135.019 31.4685 138.307 35.7775C140.923 39.272 143.25 42.5742 145.696 46.8981C146.039 47.5448 146.589 48.4443 147.217 50.1261C147.849 51.8175 148.117 53.6518 148.202 54.7835C148.365 57.092 148.299 58.3724 148.295 59.8254C148.218 66.0448 148.433 72.4425 147.792 80.0767C147.621 81.8326 147.44 83.6049 147.197 85.4994C147.073 86.4528 146.938 87.4303 146.724 88.5962C146.613 89.1864 146.488 89.8209 146.255 90.6825C145.879 91.6464 146.13 92.3961 143.842 95.6236C142.369 97.6976 138.981 100.642 136.531 101.891C133.981 103.302 131.781 104.126 129.663 104.859C124.27 106.687 118.994 108.825 111.745 110.479C107.738 110.899 104.578 113.354 94.8857 110.634C94.3485 110.436 93.1215 110.026 91.715 109.381C90.9542 109.011 90.1689 108.691 88.6481 107.592C87.8789 106.939 86.7956 106.388 85.1581 103.635C84.3765 102.244 83.4602 99.7552 83.7986 96.828C84.1266 93.9077 85.4967 91.788 86.5443 90.5881C85.7101 91.5814 85.5726 91.9303 85.413 92.1879C85.2834 92.4215 85.2456 92.506 85.2319 92.5325C85.2101 92.5788 85.2876 92.4077 85.3979 92.1656C85.6332 91.6639 85.9876 90.8558 86.7317 89.708C87.502 88.5982 88.6488 86.8533 91.5353 85.2476C94.4237 83.5515 98.7803 83.5297 101.015 84.3432C102.133 84.697 102.503 84.8919 102.816 85.0192C103.109 85.1462 103.263 85.2151 103.395 85.2711C103.649 85.3794 103.79 85.4333 103.961 85.4936C104.287 85.6074 104.674 85.7149 105.152 85.8131C106.108 86.011 107.364 86.1463 108.732 86.1972C111.484 86.2924 114.748 86.2194 117.529 86.0134C119.574 85.864 121.783 85.5769 122.785 85.3308C124.743 84.8402 125.853 84.4247 126.47 84.0782C127.664 83.3865 127.842 83.119 127.734 83.3323C128.178 82.7345 127.987 82.9902 127.928 83.2808C127.856 83.5765 127.919 83.6415 127.953 83.3311C128.039 81.7372 128.014 79.7371 127.93 77.8874C127.899 77.2151 127.858 76.5419 127.806 75.8744C127.588 73.0852 127.216 69.955 126.83 68.3918C126.572 67.4575 126.305 66.5341 126.058 65.7477C125.938 65.3635 125.814 64.9975 125.751 64.8123C125.724 64.7262 125.704 64.6763 125.784 64.8107C125.828 64.8817 125.893 64.9983 126.067 65.2546C126.266 65.5174 126.461 65.9015 127.436 66.7981C127.377 66.7423 127.004 66.4073 126.664 66.0406C126.318 65.6713 126.01 65.2887 125.783 64.979C125.312 64.3346 125.069 63.9051 124.859 63.5313C124.46 62.8029 124.245 62.317 124.038 61.8477C123.639 60.9322 123.35 60.172 123.067 59.4153C122.513 57.9216 122.029 56.5097 121.546 55.0812C118.693 46.5648 115.81 37.7783 112.846 29.0519C112.267 27.3225 111.513 25.2713 111.358 24.944C111.341 24.8851 111.428 25.0145 111.634 25.2124C111.833 25.4104 112.11 25.5955 112.169 25.6106C112.31 25.6432 111.614 25.2616 110.808 24.8997C105.826 22.6441 100.387 20.3903 95.195 18.2991C93.0703 17.4533 90.6637 16.5089 89.6376 16.2894C88.6879 16.0615 87.64 15.982 86.1205 15.9416C83.4763 15.8812 80.634 15.8512 78.5086 15.9722C76.6221 16.0246 73.539 16.9292 70.0816 17.3954C65.5669 17.9341 62.0523 18.3654 58.1165 19.0892C50.5279 20.4861 43.0452 22.1352 36.4978 24.0083C32.0012 25.3194 28.5899 26.6742 25.4154 28.9539C22.3549 31.1011 19.3737 33.4327 17.4506 35.4436C16.6378 36.3275 15.8622 37.19 15.1945 37.9871C14.8635 38.3821 14.5574 38.7673 14.3424 39.0623C14.237 39.2049 14.1551 39.3305 14.1365 39.3447C14.1275 39.3489 14.1361 39.3254 14.1689 39.213C14.1977 39.0961 14.2708 38.8995 14.2935 38.4104C14.2953 38.0919 14.2749 38.0271 14.2297 37.8116C14.1988 37.6964 14.184 37.5843 14.0298 37.2147C13.9247 37.0104 13.8855 36.7833 13.3259 36.121C13.0201 35.8122 12.5567 35.236 11.2521 34.8505C9.90428 34.4283 8.24049 35.016 7.66946 35.4939C7.48717 35.6353 7.51311 35.6367 7.53896 35.6174C7.57087 35.5957 7.63501 35.5398 7.70641 35.4724C7.85033 35.3368 8.0276 35.1536 8.20475 34.9648C10.0916 32.9074 12.0533 30.5232 14.2533 28.4546C16.2822 26.5165 18.4826 25.1519 20.4661 24.04C23.368 22.4313 26.1368 21.1444 28.8344 20.0485C32.0673 18.7497 35.0585 17.7347 37.9889 16.8019C38.4874 16.6452 38.985 16.49 39.5275 16.3356C40.0719 16.2039 40.6559 15.9479 41.8799 15.9452C42.141 15.9522 42.3848 15.9678 42.7171 16.0216C42.8926 16.0536 43.0639 16.0777 43.4221 16.1992C43.6216 16.286 43.8103 16.2924 44.4085 16.7512C44.6706 16.992 45.3077 17.4833 45.4743 18.7339C45.5831 20.0229 44.9608 20.7507 44.7091 21.0375C44.3826 21.3815 44.2142 21.4717 44.0689 21.5695C43.9295 21.6567 43.8285 21.708 43.7463 21.7484C43.5785 21.8295 43.466 21.8722 43.3641 21.9099C43.1668 21.9813 43.0228 22.0218 42.8891 22.0579C42.6252 22.1277 42.4079 22.1721 42.1985 22.212C41.7824 22.29 41.4062 22.3432 41.0346 22.3903C37.1625 22.8457 33.6349 23.2365 30.2413 24.2699C27.7839 25.0236 25.4594 25.8142 23.709 27.1715C21.8166 28.6246 19.5306 30.3737 18.7769 31.6976C18.1202 32.8769 17.5178 34.2628 17.1583 35.5926C16.9801 36.2527 16.8697 36.9149 16.8734 37.4156C16.862 37.9315 17.0435 38.1423 16.9437 37.945C16.7224 37.6461 16.1495 37.1815 15.5261 37.0362C14.9085 36.8833 14.5039 36.9701 14.2991 37.0124C13.8954 37.1191 13.9331 37.1416 13.9601 37.1128C15.536 36.2019 17.1074 34.6839 18.7246 32.878C18.8427 32.7456 18.9635 32.6094 19.0855 32.4713C21.2023 30.0714 23.4249 27.4202 26.0078 24.6952C27.6589 23.0158 29.4608 20.9746 32.3401 19.4439C35.6521 17.7507 39.076 16.0932 43.4472 15.2833C44.0066 15.1985 44.8813 14.9644 45.9761 14.8123C46.5375 14.7415 47.1706 14.6705 48.0383 14.7587C48.8628 14.843 50.2038 15.179 51.2345 16.2889C51.4917 16.571 51.7584 16.9003 51.9796 17.5292C52.1887 18.1272 52.2009 18.8426 52.0626 19.3879C51.7857 20.4029 51.3975 20.7221 51.2071 20.9496C50.7852 21.3696 50.6358 21.428 50.483 21.5327C50.2123 21.6975 50.0817 21.7535 49.9584 21.8125C49.7217 21.9211 49.5618 21.9837 49.4024 22.0469C49.0915 22.1687 48.8199 22.2688 48.5479 22.3701C48.0088 22.5701 47.4856 22.7649 46.9611 22.9655C43.9729 24.1142 40.9565 25.3693 38.1261 26.772C35.686 27.9892 33.3002 29.3904 31.0052 30.9157C30.0008 31.5909 29.0426 32.2177 28.4647 32.7968C26.6259 34.6475 25.116 36.8846 23.799 39.2723C22.3992 41.8062 21.0524 44.1404 20.5298 46.5936C20.5188 46.6489 20.5079 46.7039 20.497 46.7586C18.532 58.1231 17.2627 56.7457 17.4762 46.2463C17.5268 45.2384 17.7045 44.1957 17.9776 43.143C18.5158 41.073 19.3225 39.2134 20.0229 37.5249C21.2213 34.6471 22.7581 31.8821 24.7344 29.5354C25.846 28.2341 26.9332 27.4799 27.8928 26.7138C30.38 24.7907 32.8768 23.1265 35.3389 21.6877C38.6372 19.7778 41.6892 18.2821 44.4533 16.8715C45.0102 16.5893 45.5629 16.3112 46.0758 16.0453C46.3324 15.9121 46.5833 15.7802 46.7818 15.6636C46.8765 15.6074 46.9675 15.5493 46.9639 15.5324C46.9536 15.5302 46.9404 15.5183 46.7514 15.626C46.6356 15.7072 46.5247 15.7269 46.0907 16.1707C45.8844 16.4271 45.4708 16.7807 45.2121 17.9142C45.09 18.5032 45.1365 19.2489 45.3642 19.8546C45.6037 20.4887 45.8716 20.8186 46.1328 21.106C46.4729 21.5283 46.9347 21.7584 47.1333 21.8435C47.3473 21.9352 47.3806 21.9587 47.3379 22.0058C47.2409 22.0914 46.8901 22.2348 46.4922 22.4247C46.0645 22.6205 45.5746 22.854 44.843 23.0911C42.1018 24.4062 39.3672 26.435 36.979 28.2798C36.2988 29.0486 35.2501 30.5095 33.8525 32.3255C31.9077 34.8932 29.8332 37.6421 27.0309 40.7153C25.2025 42.6408 23.0663 44.8763 19.3592 46.8533C18.9267 47.0589 18.513 47.3833 16.9122 47.8077C16.1063 47.9875 14.7649 48.2564 12.8493 47.8C10.9145 47.3676 9.11234 45.9482 8.33787 44.9179C4.48488 39.2373 6.20268 35.666 6.71454 33.2197C7.51923 30.6795 8.54322 28.7079 9.96952 26.5333C10.9483 25.0184 11.8737 24.1536 12.7285 23.3901C14.8303 21.5941 16.481 20.5924 17.9824 19.554C21.6786 17.0082 24.9907 16.1796 27.4813 15.3302C32.2675 13.8184 36.4062 13.1563 39.5858 12.3504C39.8161 12.2837 40.0272 12.2123 40.1255 12.1561C40.1691 12.1298 40.1943 12.1027 40.0868 12.114C40.028 12.1223 39.9422 12.1348 39.7108 12.2116C39.5877 12.2545 39.4338 12.3071 39.1339 12.4496C38.9866 12.5212 38.7906 12.6189 38.4977 12.8018C38.1871 13.0124 37.8118 13.207 37.0366 14.0222C36.4244 14.7175 34.8234 16.5826 35.1348 19.8813C35.5971 23.0594 37.1925 24.231 37.8164 24.808C39.2506 25.8949 39.6203 25.8694 40.015 26.0505C40.6994 26.284 40.8968 26.3013 41.1037 26.348C41.4696 26.4175 41.6033 26.433 41.7809 26.4525C41.9571 26.4725 42.3727 26.4605 42.5699 26.4423C42.7838 26.4251 42.8675 26.4176 42.8962 26.4263C42.9461 26.4434 42.8139 26.5091 42.6713 26.5849C42.3691 26.7405 41.9599 26.9414 41.5572 27.1438C38.8008 28.5295 36.1796 29.9829 33.8555 31.3191C31.646 32.5985 29.4441 33.9061 27.2059 35.144C27.115 35.1943 27.0281 35.2421 26.9391 35.2912C25.2481 36.2352 24.3036 36.7628 23.3632 37.4482C22.5186 38.0988 21.5564 38.955 20.4451 40.0477C19.8848 40.5987 19.2903 41.2072 18.5908 41.9376C18.238 42.3053 17.8632 42.7001 17.4026 43.1737C17.1673 43.4152 16.9135 43.6746 16.5775 44.0007C16.1979 44.3471 15.9502 44.6673 14.7771 45.5147C13.6946 46.4028 10.6863 47.4869 8.17444 46.7424C5.7377 46.0574 4.8103 44.9596 4.20664 44.3487C3.0938 43.0473 2.97205 42.5182 2.73836 42.0401C2.37507 41.1501 2.3019 40.7251 2.20993 40.2932C2.05957 39.4559 2.00118 38.8873 2.04461 37.8545C2.23349 35.5979 2.73955 34.8648 3.04041 34.1593C3.37158 33.4944 3.65031 33.0595 3.91487 32.6596C4.43776 31.8822 4.89755 31.3059 5.35661 30.7427C6.27297 29.6284 7.17786 28.6222 8.15318 27.5452C11.0778 24.3743 14.071 21.9995 17.9369 19.0713C21.5756 16.1948 27.1168 13.4957 32.4318 11.759C38.9935 9.55602 46.2659 7.49992 55.1574 5.31414C58.9675 4.36909 63.7168 3.4701 67.6183 2.76352C67.6577 2.75538 67.6969 2.7472 67.7359 2.73899C70.0513 2.30796 72.7198 1.22013 76.8881 0.660014C80.4333 0.242865 83.1103 0.156598 85.9841 0.0360117C87.7421 -0.0263481 90.0771 -0.0496893 92.4126 0.328015C96.4338 1.03572 98.4503 1.9129 100.866 2.66271C106.781 4.64827 112.161 6.52111 117.642 8.63077C118.663 9.05333 119.844 9.42958 121.832 10.6451C123.886 11.8312 126.105 14.416 126.951 15.9896C128.733 19.1796 129.187 20.7526 129.976 22.5967C133.773 32.0118 137.072 40.4975 140.118 48.1985C140.643 49.5218 141.164 50.8063 141.656 51.9398C141.901 52.5049 142.147 53.0455 142.321 53.3836C142.4 53.5402 142.481 53.6662 142.399 53.5046C142.35 53.4161 142.264 53.245 141.969 52.8427C141.824 52.6473 141.609 52.3803 141.359 52.1161C141.117 51.8564 140.858 51.6266 140.929 51.6878C142.219 52.8744 142.598 53.5266 142.969 54.0483C143.312 54.5634 143.522 54.9394 143.698 55.2611C144.043 55.9002 144.253 56.3603 144.438 56.7748C144.802 57.5952 145.052 58.2413 145.287 58.8601C145.749 60.0853 146.118 61.1638 146.473 62.2228C147.948 67.0412 148.257 70.1688 148.741 73.4488C149.199 77.013 149.451 80.159 149.458 83.7544C149.745 87.3367 147.366 93.7411 145.553 95.8545C143.089 99.4128 140.083 101.463 138.087 102.757C134.575 104.989 131.211 106.023 128.753 106.75C128.698 106.766 128.643 106.782 128.588 106.798C125.121 107.738 122.435 108.03 119.46 108.314C115.768 108.622 112.256 108.735 107.978 108.582C105.817 108.489 103.501 108.286 100.884 107.749C99.5734 107.477 98.1796 107.111 96.7455 106.603C96.0395 106.354 95.3021 106.058 94.6854 105.786C94.3829 105.653 94.105 105.525 93.9655 105.46C93.8498 105.398 93.7778 105.402 94.5259 105.64C96.0614 106.22 99.6348 106.252 101.94 104.906C104.237 103.639 104.923 102.433 105.293 101.925C105.637 101.383 105.657 101.245 105.57 101.43C105.519 101.532 105.439 101.709 105.247 102.106C105.15 102.304 105.021 102.569 104.793 102.977C104.53 103.415 104.292 103.935 103.295 105.119C104.209 104.066 105.478 102.15 105.815 99.4124C106.162 96.68 105.326 94.3127 104.629 93.0521C103.17 90.5666 102.377 90.2816 101.926 89.8658C101.469 89.5308 101.271 89.4343 101.149 89.3679C101.031 89.3077 101.005 89.3019 101.018 89.3121C101.049 89.3362 101.236 89.4252 101.487 89.5295C101.758 89.6428 102.013 89.7403 102.628 89.9769C102.269 89.8486 101.737 89.8038 101.793 89.8337C101.818 89.8561 102.251 89.865 102.834 89.8128C104.023 89.7123 105.716 89.4384 107.444 89.1279C111.477 88.3835 117.19 86.476 122.949 84.6525C124.339 84.2285 125.598 83.7451 126.31 83.3826C126.668 83.2036 126.846 83.0868 126.915 83.047C126.992 82.9931 127.001 83.0352 127.423 82.5321C126.442 83.8231 126.335 84.3284 126.19 84.6431C126.077 84.9429 126.062 85.0282 126.057 85.0533C126.055 85.0904 126.114 84.8769 126.167 84.6291C126.279 84.1132 126.404 83.3869 126.516 82.652C126.745 81.1597 126.951 79.5214 127.144 77.8834C127.725 72.5414 127.706 65.966 127.803 59.4559C127.827 58.1902 127.829 56.7845 127.785 56.4008C127.778 56.322 127.774 56.3477 127.8 56.4987C127.824 56.643 127.895 56.918 127.962 57.1012C128.12 57.5096 128.015 57.2334 127.715 56.7099C126.215 54.0754 123.988 50.8961 121.877 48.2365C121.771 48.1028 121.662 47.9677 121.554 47.8337C119.246 44.9786 116.327 41.6997 113.223 38.5675C112.333 37.6782 111.451 36.9007 110.644 36.3117C109.797 35.7036 109.249 35.3832 108.058 34.8444C108.774 35.1716 109.076 35.2209 109.21 35.2589C109.34 35.2891 109.299 35.2792 109.188 35.271C108.957 35.2504 108.453 35.2281 107.881 35.2275C106.716 35.224 105.257 35.2821 103.741 35.357C102.982 35.3512 100.807 35.8963 97.2813 36.2602C94.7175 36.4935 92.2275 36.4831 90.3486 36.4695C90.6527 36.4689 91.0427 36.4681 91.7059 36.3878C91.8729 36.3669 92.0586 36.3399 92.2697 36.302C92.6535 36.232 93.1463 36.1266 93.7841 35.9138C94.4226 35.6953 95.2297 35.3787 96.2475 34.7198C97.2959 33.9075 98.3214 33.5772 100.068 30.3668C101.562 27.4358 101.237 23.7891 100.459 21.922C100.274 21.4269 100.075 20.9999 99.8774 20.6274C99.7785 20.4412 99.6799 20.2684 99.5827 20.1075C99.5584 20.0672 99.5341 20.0277 99.51 19.9889C99.496 19.9664 99.4856 19.9498 99.4734 19.9305C99.4498 19.893 99.4262 19.8561 99.4027 19.8199C99.215 19.5303 99.0348 19.2819 98.8647 19.0632C98.182 18.1968 97.6752 17.7587 97.2825 17.4232C97.0903 17.2621 96.901 17.1171 96.7801 17.0279C96.69 16.9613 96.6069 16.9021 96.5297 16.8484C96.3754 16.7412 96.2441 16.6557 96.1287 16.5831C95.637 16.2796 95.5359 16.2389 95.3758 16.1531C95.2258 16.0763 95.1608 16.046 95.0982 16.0162C94.8651 15.9079 94.8721 15.915 94.8681 15.912C94.8854 15.9185 95.0124 15.968 95.1478 16.0188C95.4202 16.1214 95.7605 16.2466 96.1025 16.372C96.7945 16.6256 97.5207 16.8908 98.2522 17.161C99.7149 17.7011 101.204 18.2626 102.692 18.8399C106.947 20.5111 110.271 22.5827 113.216 24.4028C116.761 26.593 120.423 29.3045 123.616 32.1994C127.033 35.2974 129.914 38.3236 132.766 41.4332C135.499 44.7624 138.884 47.8555 140.038 56.0622C140.599 58.6364 138.5 64.3964 135.556 66.2036C132.821 68.1735 131.251 68.2818 130.11 68.5345C127.888 68.8611 126.921 68.7026 125.964 68.6331C124.158 68.4385 123 68.1513 121.833 67.8541C119.542 67.2341 117.716 66.6173 115.375 65.5605C112.797 64.3214 111.663 63.1336 110.927 62.5218C110.17 61.8438 109.613 61.3075 109.053 60.7717C105.794 57.6168 102.93 54.4877 100.171 50.9911C97.3547 47.3708 95.1164 44.0163 92.9164 40.3028C92.7416 40.0023 92.5625 39.6919 92.3426 39.2871C92.2276 39.073 92.1126 38.862 91.9197 38.4634C91.8204 38.25 91.7111 38.0446 91.4634 37.4029C91.3875 37.1994 91.318 37.0127 91.2039 36.6392C91.0814 36.1165 90.9135 36.0081 90.7346 34.0028C90.7258 33.4613 90.6339 33.1474 90.8672 31.5112C91.2228 29.9879 91.3706 28.0703 94.3213 25.1075C97.4161 21.9274 102.947 21.9699 103.706 22.2762C105.207 22.5281 106.12 22.9286 106.803 23.249C106.972 23.3309 107.127 23.4104 107.268 23.487C107.372 23.5428 107.447 23.5854 107.53 23.6328C107.691 23.7254 107.835 23.8133 107.965 23.8965C108.227 24.0631 108.438 24.2114 108.618 24.345C109.018 24.6441 109.12 24.7372 109.299 24.8889C109.456 25.0243 109.595 25.1522 109.694 25.2452C109.782 25.3282 109.859 25.4035 109.929 25.4732C110.073 25.6165 110.171 25.7206 110.251 25.8053C110.421 25.9883 110.519 26.1002 110.615 26.2112C110.792 26.4161 110.904 26.5535 111.01 26.6843C111.207 26.929 111.343 27.1064 111.474 27.2779C111.728 27.611 111.934 27.8918 112.131 28.1631C114.244 31.1116 115.89 33.5652 117.681 36.4511C118.504 37.7982 119.298 39.1395 120.133 40.7789C120.786 42.641 122.437 43.5515 122.436 50.3159C122.298 52.6884 121.206 55.1546 120.035 56.627C118.858 58.1458 117.748 58.9456 116.873 59.5059C115.108 60.5786 114.032 60.8506 112.991 61.1156C107.16 62.2072 104.486 60.1716 102.966 59.4367C101.414 58.5085 100.59 57.784 99.8559 57.1534C98.449 55.904 97.5979 54.9775 96.8198 54.167C93.4152 50.4583 91.6141 46.7308 90.3863 43.1684C90.0962 42.3034 89.842 41.4271 89.6228 40.4729C89.411 39.4415 89.1934 38.7272 89.1053 36.615C89.0413 34.7507 89.5232 30.29 93.3623 26.9005C97.1818 23.7031 100.518 23.6939 102.63 23.7671C105.263 23.9897 106.436 24.6333 107.262 24.9956C108.095 25.4039 108.54 25.6963 108.959 25.9763C109.688 26.4749 110.108 26.8379 110.427 27.1133C111.072 27.6815 111.422 28.0457 111.747 28.382C112.366 29.0318 112.779 29.514 113.165 29.9697C113.923 30.8692 114.522 31.6346 115.085 32.3673C116.205 33.829 117.155 35.1453 118.039 36.3985C120.726 40.2824 122.097 43.4916 123.179 45.9746C125.239 50.6986 126.297 55.4034 126.537 59.6569C126.722 63.1574 126.754 67.3088 123.26 72.3858C119.891 76.7467 116.763 77.1859 114.953 77.6868C113.032 78.0797 111.673 78.0847 110.422 78.0633C107.973 77.9892 105.991 77.6512 104.173 77.3457C98.9172 76.562 97.8839 75.0605 96.1519 74.0168C94.6157 72.8993 93.3624 71.8206 92.0823 70.7173C89.6432 68.775 86.7101 65.3533 85.2238 62.284C84.9208 61.7378 84.6664 61.2125 84.4439 60.7084Z" fill="#84AE7D"/>
<path d="M72.6501 53.8065C68.2552 54.1441 65.4135 55.2065 62.3308 56.7198C59.3113 57.7884 53.779 58.1616 48.9515 55.4128C42.8389 51.0518 42.1867 46.3622 41.5385 43.5791C41.044 40.5955 41.2064 38.2486 41.7705 35.8715C41.8091 35.7138 41.849 35.5579 41.8897 35.4053C43.2421 29.8519 45.7053 27.9545 46.9083 26.7669C48.2395 25.6213 49.0871 25.1992 49.735 24.9195C54.5941 21.8346 57.7413 21.8777 61.4411 20.7276C63.7761 20.1427 65.551 19.0436 71.0076 18.0977C71.3364 18.0589 71.6841 18.0284 72.0814 18.0134C72.2678 18.006 72.497 18.0031 72.7087 18.0057C72.8248 18.0074 72.9322 18.0103 73.0232 18.0131C73.0596 18.014 73.1071 18.0157 73.0937 18.0135C73.0879 18.0125 73.0597 18.0099 72.9826 18.0055C72.9454 18.0036 72.8937 18.0003 72.7526 17.9969C72.6149 17.9947 72.4275 17.9895 72.064 18.0089C72.0229 18.0111 71.9694 18.0139 71.8718 18.0214C71.8472 18.0233 71.8195 18.0255 71.7872 18.0283C71.7407 18.0325 71.6444 18.0413 71.519 18.0563C71.3864 18.0729 71.2227 18.0913 70.8881 18.1544C70.7168 18.188 70.5032 18.2308 70.16 18.3257C70.1968 18.3155 69.9761 18.3761 69.7809 18.4406C69.5744 18.5085 69.3269 18.5956 69.0008 18.7361C68.3566 19.0792 67.3457 19.2953 65.5503 21.3527C64.6977 22.3851 63.6531 24.2462 63.537 26.5876C63.3872 28.926 64.3058 31.1092 65.1912 32.3134C67.0582 34.7356 68.2123 34.9719 68.8963 35.358C69.5954 35.6649 69.9752 35.7621 70.2749 35.8456C70.4223 35.8847 70.5433 35.9131 70.6483 35.9363C70.7123 35.9503 70.6909 35.9455 70.7117 35.95C70.7632 35.961 70.8105 35.9706 70.8546 35.9793C71.5186 36.1019 71.6468 36.0958 71.8049 36.1142C71.9515 36.1267 71.9437 36.1254 71.9951 36.1292C72.0697 36.1343 72.1204 36.137 72.1405 36.1382C72.2308 36.1434 72.2282 36.1438 72.2337 36.145C72.2349 36.147 72.2033 36.1479 72.1733 36.1488C72.1089 36.1504 72.0283 36.1514 71.9443 36.1517C71.7743 36.1521 71.5874 36.15 71.3718 36.1423C71.1537 36.134 70.9133 36.122 70.5768 36.0887C70.197 36.0366 69.9295 36.0587 68.7307 35.7354C67.7124 35.3405 65.5907 35.0332 63.2277 31.6391C62.1318 29.9711 61.6854 27.7696 61.7566 26.2912C61.8085 24.7723 62.1291 23.8026 62.3889 23.0897C64.2236 18.7939 66.524 17.8616 67.7858 17.0266C69.1526 16.2738 70.1583 15.9284 71.0735 15.6317C72.8772 15.0716 74.2902 14.8278 75.6087 14.6164C76.3983 14.4652 77.0725 14.4028 77.6592 14.3726C77.9507 14.3579 78.2225 14.3524 78.4424 14.3526C78.5504 14.3528 78.6481 14.3542 78.6932 14.358C78.7146 14.36 78.7236 14.3623 78.6864 14.3677C78.6342 14.3761 78.6026 14.3731 78.2092 14.4255C78.1247 14.4383 78.0222 14.4549 77.8917 14.4796C77.8264 14.492 77.7541 14.5064 77.6726 14.5241C77.5716 14.5457 77.4318 14.5776 77.2768 14.6186C76.9172 14.7354 76.7322 14.703 75.4722 15.3181C74.8173 15.7739 74.4015 15.5549 72.4254 17.9502C70.4631 20.0884 70.386 25.4191 71.8548 27.3778C72.1576 27.9227 72.4681 28.3511 72.7553 28.7003C72.9204 28.8991 72.9854 28.9687 73.0741 29.0659C73.1589 29.1579 73.2414 29.2434 73.3214 29.3234C73.6418 29.6428 73.9217 29.8762 74.166 30.0645C74.4104 30.2521 74.62 30.3938 74.8036 30.5104C75.0034 30.6359 75.0645 30.6694 75.1791 30.7347C75.5769 30.9583 75.8919 31.0926 76.0203 31.146C76.3486 31.2808 76.4918 31.3222 76.5975 31.3552C76.9624 31.4582 76.8683 31.4087 76.8272 31.3883C76.6944 31.3293 76.4046 31.2373 76.0886 31.1374C75.7632 31.0345 75.4 30.9239 74.8968 30.7572C74.6353 30.6695 74.3499 30.5753 73.8948 30.3982C73.6563 30.3035 73.3807 30.1945 72.9429 29.9803C72.6916 29.8542 72.4765 29.7477 72.0359 29.4746C71.6543 29.2224 71.0489 28.8636 70.1654 27.9162C68.1375 25.8731 67.589 22.2772 67.9075 20.7361C68.1521 19.0404 68.5732 18.2678 68.8646 17.6517C70.7214 14.0986 73.5499 12.7138 74.7951 12.0696C76.1963 11.3894 77.0551 11.0685 77.7998 10.7048C79.7226 9.82921 81.2949 9.29359 82.5285 8.71952C88.1659 6.53041 88.7464 9.78337 94.5904 11.3265C94.7721 11.3838 94.9481 11.4446 95.1407 11.5179C95.347 11.5987 95.5078 11.6566 95.92 11.854C96.0445 11.9163 96.148 11.9623 96.4554 12.1424C96.6326 12.2603 96.7701 12.2928 97.4399 12.8592C97.6701 13.0679 97.9659 13.333 98.377 13.8909C98.6896 14.3401 99.1582 15.0154 99.4455 16.2935C99.8196 17.1815 99.4487 20.5727 97.8374 21.9727C97.4821 22.3455 97.1205 22.6348 96.7852 22.8601C96.4798 23.0619 96.3567 23.126 96.1583 23.2309C95.7937 23.4187 95.4749 23.5408 95.1977 23.6305C94.6565 23.8054 94.2042 23.8686 93.9746 23.8951C93.5813 23.939 93.3116 23.9388 93.093 23.9342C92.4067 23.9057 92.2761 23.8566 92.0938 23.8294C91.9328 23.7992 91.8477 23.7789 91.7637 23.7589C91.6147 23.7227 91.5256 23.6968 91.4456 23.6733C91.165 23.5883 91.0494 23.5423 90.9272 23.4973C90.6162 23.3506 89.973 23.2071 89.2389 23.1769C85.8698 23.0335 83.1257 22.6745 80.4723 21.9123C78.8555 21.4051 76.9678 20.7727 74.7048 20.0629C73.8265 19.7885 72.6233 19.5403 71.2119 19.3675C69.1497 19.1264 67.1139 18.9893 65.0794 19.9318C62.8129 20.9405 60.5848 22.3734 58.7784 24.0196C57.9603 24.7623 57.1849 25.5121 56.4323 26.2646C56.0533 26.6424 55.6859 27.017 55.2848 27.4108C55.082 27.6089 54.8745 27.8101 54.6147 28.0371C54.4796 28.1536 54.3358 28.275 54.1266 28.425C54.0187 28.5013 53.8968 28.5843 53.7151 28.6868C53.5259 28.7859 53.3137 28.9211 52.7579 29.0679C51.2376 29.5709 50.4362 30.0468 49.8122 30.6388C49.0304 31.3973 48.2838 32.0038 47.4609 32.5897C46.1865 33.4914 44.2779 34.7838 42.3699 36.0225C40.2041 37.4083 38.0458 38.7825 36.6468 40.0403C36.3331 40.3236 36.0296 40.582 35.7401 40.814C35.0848 41.3423 34.4854 41.7466 34.0145 42.044C33.7374 42.2091 33.3737 42.2347 33.0625 42.1076C33.0623 42.1076 33.0621 42.1075 33.0619 42.1074C32.6745 41.9674 32.3989 41.5062 32.6298 41.022C32.903 40.4442 33.2016 39.8655 33.5187 39.2047C34.4304 37.3276 35.433 34.9073 36.5386 31.8908C36.6338 31.6339 36.7331 31.3851 36.8339 31.1467C38.1623 27.9668 39.772 26.3705 42.2145 24.9313C44.2863 23.7367 47.348 22.6219 50.9916 21.5555C50.224 21.7546 50.1647 21.8517 50.0371 21.8985C49.9378 21.9469 49.9157 21.9544 49.9069 21.9491C49.8956 21.9356 49.9551 21.8673 50.0236 21.7847C50.1648 21.6169 50.3622 21.3839 50.5693 21.1283C51.4311 20.0648 52.302 18.9046 53.1302 17.8004C55.2324 15.1221 57.4087 12.8143 60.0062 10.8301C62.831 8.60495 67.2445 7.4513 70.5342 7.35598C72.7806 7.25768 75.1845 7.37923 77.9399 7.88853C79.4611 8.17308 80.8695 8.37107 82.2581 8.54184C87.1486 9.20938 90.2098 7.92343 96.0761 8.78716C96.031 8.76006 95.9956 8.73178 95.7405 8.64504C95.6707 8.62221 95.5936 8.5969 95.4282 8.55297C95.3536 8.53323 95.2489 8.50675 95.1018 8.47494C95.0336 8.4602 94.9385 8.44057 94.8127 8.41817C94.6778 8.39503 94.5838 8.3772 94.3081 8.34363C94.0224 8.3174 93.86 8.2745 93.0078 8.28396C92.5474 8.3228 92.3384 8.22788 90.7419 8.62398C90.3724 8.72765 89.9479 8.86873 89.4573 9.08679C89.212 9.19609 88.9504 9.32513 88.6733 9.48129C88.5347 9.55939 88.3923 9.64435 88.2465 9.73707C88.0248 9.87783 87.7631 10.0592 87.5109 10.2566C86.4974 11.0371 85.3515 12.3262 84.6648 13.9683C83.9496 15.5258 83.8471 17.6667 83.9681 18.5028C84.2046 20.6741 84.9329 21.8917 85.431 22.6918C85.7327 23.1477 85.8263 23.2539 85.9737 23.4429C86.1107 23.6138 86.238 23.7608 86.3565 23.891C86.8255 24.4041 87.1879 24.6985 87.3475 24.8313C87.7471 25.1562 87.9963 25.3178 88.1508 25.4208C88.7871 25.827 88.9193 25.8716 89.0943 25.9668C89.4005 26.1215 89.5265 26.1761 89.6529 26.2339C89.7729 26.2878 89.8659 26.3277 89.9503 26.3632C90.1197 26.434 90.26 26.4885 90.4136 26.5418C90.7873 26.6601 90.7306 26.6574 90.7548 26.6831C90.7579 26.7022 90.7292 26.7146 90.6941 26.726C90.6184 26.7478 90.5147 26.7643 90.399 26.7788C90.1668 26.8076 89.9018 26.8298 89.6279 26.8476C89.0796 26.8832 88.4883 26.9 87.8956 26.8962C86.7145 26.8827 85.4865 26.8189 84.6019 26.563C83.9663 26.6786 83.3498 26.7648 82.9028 26.7719C82.4711 26.7727 82.2676 26.7427 82.4381 26.4496C82.5911 26.1828 83.1528 25.4431 83.3693 24.7202C83.4913 24.3746 83.7489 23.893 83.8941 22.6099C84.1068 21.4498 83.5819 18.5845 82.0094 17.0628C81.5983 16.6212 81.2552 16.3481 80.9752 16.1429C80.7393 15.9727 80.5566 15.8605 80.3951 15.7673C80.0856 15.5916 79.9207 15.5224 79.7797 15.4627C79.5206 15.3578 79.4133 15.3345 79.3416 15.3196C79.2086 15.2965 79.2295 15.3273 79.2707 15.3571C79.3668 15.4222 79.5865 15.5086 79.8355 15.5937C80.0927 15.6813 80.3712 15.7646 80.7857 15.8855C81.0204 15.9574 81.1935 15.9937 81.8248 16.2162C81.8965 16.2424 82.021 16.2888 82.1477 16.3406C82.2836 16.397 82.4035 16.445 82.6755 16.5774C82.8022 16.6399 82.9455 16.7143 83.1141 16.8113C83.2508 16.8906 83.5501 17.0652 83.9182 17.3458C84.1034 17.4873 84.3114 17.6586 84.5458 17.8831C84.6629 17.9954 84.7866 18.1214 84.9163 18.2652C84.9706 18.3255 85.0713 18.4395 85.1835 18.5793C85.2929 18.7155 85.4054 18.8655 85.5192 19.0321C86.4648 20.178 87.3832 23.5093 86.2007 25.9514C85.6932 27.1347 84.9952 27.9327 84.4227 28.4571C84.2818 28.5862 84.1244 28.7171 84.0161 28.8018C83.9373 28.8638 83.8606 28.9215 83.7859 28.9755C83.6367 29.0836 83.4958 29.177 83.3632 29.2596C82.8325 29.5872 82.4341 29.7559 82.1115 29.8815C81.9268 29.9515 81.8679 29.97 81.7743 30.0013C81.6875 30.0298 81.607 30.0545 81.5314 30.0765C81.3804 30.1205 81.2493 30.1538 81.1316 30.1813C80.8682 30.2415 80.7874 30.2536 80.6539 30.277C80.5327 30.2974 80.4266 30.3127 80.3298 30.3252C79.9224 30.3753 79.8323 30.3733 79.7193 30.3816C79.6184 30.3872 79.5595 30.3894 79.5073 30.3916C79.4072 30.3955 79.3484 30.3977 79.2986 30.4001C79.2016 30.4049 79.1462 30.4102 79.1062 30.4164C79.029 30.4284 79.0216 30.446 79.1034 30.4458C77.8882 30.7946 76.8876 31.2765 76.4093 31.7649C76.1862 31.9963 76.0863 32.2581 76.432 32.2776C76.7044 32.2341 77.9256 32.1801 79.3223 29.5234C79.5526 28.9639 79.8581 28.1569 79.9329 26.8023C80.0257 25.4874 79.6492 23.4489 78.6612 21.8939C76.5182 18.7265 74.6782 18.4658 73.9224 18.0924C73.3973 17.9203 73.1985 17.8729 73.0323 17.8206C72.8754 17.7729 72.7886 17.7413 72.7268 17.7126C72.6069 17.6565 72.5838 17.6138 72.583 17.5707C72.5845 17.5281 72.6144 17.4869 72.663 17.4457C72.6881 17.4251 72.716 17.4045 72.7617 17.3843C72.7857 17.3742 72.8103 17.3641 72.8677 17.3552C72.9032 17.3511 72.928 17.346 73.0517 17.3464C73.0756 17.3462 73.1415 17.348 73.2257 17.3522C73.3644 17.3725 73.207 17.3043 74.3932 17.4945C74.437 17.5026 74.4838 17.5117 74.5346 17.5219C74.56 17.527 74.5864 17.5324 74.6139 17.5382C74.6681 17.5508 74.5648 17.524 74.922 17.6084C75.203 17.6799 75.5573 17.7665 76.1834 18.0101C76.8173 18.3109 77.7338 18.507 79.5393 20.2295C80.403 21.1105 81.5976 22.6315 82.1228 25.0007C82.6884 27.3517 82.0928 30.1377 81.145 31.7542C79.1397 35.0273 77.6271 35.3467 76.8435 35.8406C76.0192 36.2318 75.5601 36.353 75.2457 36.4467C75.1981 36.4601 75.1531 36.4724 75.1102 36.4839C75.0245 36.5068 74.9473 36.5261 74.8766 36.5432C74.7354 36.5771 74.6196 36.6019 74.5192 36.6221C74.1246 36.7001 73.9379 36.7214 73.7851 36.7416C73.639 36.7598 73.5372 36.7696 73.4706 36.776C73.434 36.7797 73.4022 36.7827 73.3737 36.7853C73.261 36.7956 73.1955 36.8008 73.142 36.8053C72.7583 36.8279 72.5504 36.8253 72.3931 36.825C72.2342 36.8236 72.1554 36.8212 72.1109 36.821C72.0106 36.8198 71.9578 36.8198 71.9269 36.8214C71.8792 36.8253 71.8765 36.832 71.883 36.8394C71.8988 36.8542 71.942 36.8704 71.9848 36.8859C72.0644 36.9168 72.1472 36.9456 72.2091 36.973C72.3384 37.0278 72.4249 37.0784 72.4861 37.1299C72.6074 37.2323 72.6399 37.3377 72.6378 37.4519C72.6289 37.6795 72.4769 37.9405 72.2753 38.2288C71.8582 38.8074 71.2212 39.4906 70.4174 40.2536C69.2176 41.323 67.9463 42.481 67.5999 43.0152C67.5435 43.1016 67.5255 43.1572 67.5501 43.1651C66.8522 43.8944 66.4043 44.3911 66.5252 44.285C66.5647 44.1875 67.6833 43.2391 68.2886 40.2712C68.1886 40.6483 68.1472 41.1355 68.0759 40.871C68.0231 40.7223 67.9918 40.3762 67.6297 39.4364C67.2651 38.5637 66.4347 36.6656 64.0313 34.9266C63.5532 34.633 62.426 34.1892 61.8201 34.1628C61.1705 34.1013 60.8878 34.2285 60.8915 34.3208C64.3085 34.5508 67.8439 34.3704 67.9651 34.6326C71.2261 33.701 74.1917 32.4203 75.7118 31.3877C76.3648 30.9127 76.8032 30.5983 76.8213 30.5844C76.8641 30.5815 76.3242 30.8987 75.5403 32.2383C75.1125 32.979 74.7048 34.1054 74.5828 35.1717C74.5846 34.8659 74.4736 34.5448 74.485 34.967C74.5057 35.1822 74.561 35.6242 74.9473 36.3934C75.3143 37.1415 76.1793 38.2657 77.3728 39.0164C77.71 39.2534 77.5456 39.1822 77.4384 39.1913C77.3109 39.1845 77.1454 39.1802 77.0123 39.1945C76.7321 39.2222 76.6242 39.3051 76.5875 39.353C75.337 39.7857 74.3213 40.2579 73.7795 40.5886C73.5078 40.7502 73.3635 40.8646 73.3339 40.8698C73.3011 40.8787 73.3815 40.7612 73.4439 40.5728C73.0053 41.2389 72.9446 41.3955 72.8034 41.2749C72.7716 41.5936 72.74 41.8921 72.7097 42.175C72.5158 43.8133 72.5719 45.1502 72.6653 45.5148C72.8224 46.1509 72.8573 46.1483 72.7907 46.0012C72.7268 45.8452 72.5421 45.5582 72.4241 45.4188C73.1323 46.1334 73.0063 45.8137 72.3315 45.4093C71.652 44.9871 70.7534 44.8161 70.5406 44.7909C72.2923 44.7345 74.0307 44.6383 75.6093 44.4862C76.3937 44.4103 77.1413 44.3185 77.7521 44.2155C78.3373 44.1236 78.8958 43.9644 78.6828 43.996C79.6674 43.6725 80.6142 43.3645 81.3492 43.106C81.7125 42.9786 82.0221 42.8617 82.188 42.7946C82.3474 42.7358 82.3804 42.6933 81.9955 42.9373C83.39 42.1051 83.9945 41.7567 84.0573 41.7607C84.0717 41.793 83.876 41.9431 83.4222 42.6063C82.9948 43.2316 82.2266 44.6779 82.1435 46.5473C82.2624 46.3031 82.3708 45.6868 82.4478 45.1762C82.5159 44.7432 82.5429 44.315 82.5947 44.0789C82.6658 43.8455 82.6838 43.8175 83.2634 44.344C82.3763 42.7982 81.9378 42.0843 81.0544 41.2965C80.2779 40.768 79.782 40.452 79.5965 40.2666C79.395 40.0827 79.6553 39.9847 79.8785 39.7472C78.6248 39.9366 77.3791 40.2291 76.4859 40.4973C76.0484 40.6209 75.6966 40.7624 75.6403 40.6887C75.613 40.6437 75.6724 40.5428 75.8383 40.2164C75.9915 39.9002 76.296 39.2723 76.3616 38.3178C76.1372 39.0957 75.9924 39.791 75.8908 39.9563C75.8285 40.0297 75.7968 39.9365 75.5458 39.5043C75.3243 39.0946 74.6222 38.2687 73.827 37.9303C73.3097 37.6616 73.1626 37.6398 73.0243 37.594C72.9146 37.564 72.846 37.5522 72.8106 37.5495C72.7309 37.5423 72.7272 37.5568 72.7339 37.5714C72.7535 37.6026 72.8438 37.6449 72.9413 37.6841C73.1441 37.7641 73.4024 37.8397 73.6657 37.9058C74.1968 38.0385 74.757 38.1369 75.2982 38.2054C76.3826 38.3425 77.3936 38.3608 78.2638 38.3023C78.7027 38.2699 79.1743 38.2026 79.6174 38.1291C81.5814 37.7937 83.2508 37.2617 84.6585 36.685C86.5297 35.897 87.9823 35.1499 88.4493 34.5806C88.7327 34.2297 88.9568 33.8588 89.08 33.5406C89.2107 33.2263 89.1939 32.9683 89.1685 33.0381C89.084 32.6908 88.9503 32.6794 89.0312 32.831C88.7088 32.5838 88.624 32.5642 88.5571 32.5621C88.4952 32.5648 88.4446 32.5783 88.3062 32.5889C87.8594 32.5663 87.2052 32.563 86.5347 32.5905C84.4302 32.6758 81.9156 32.7286 79.301 32.7746C77.2871 32.8086 75.7851 32.7966 74.0416 33.2014C72.3133 33.6486 70.5571 34.085 68.836 34.4868C67.2304 34.8567 66.4563 34.7592 66.1302 34.2599C65.9589 33.5851 66.5219 32.5031 67.7942 31.3304C69.1012 30.1295 70.4714 29.2398 71.7648 28.4801C74.4471 26.9153 77.1418 26.5634 78.6355 25.3184C78.6842 25.2805 78.7323 25.2419 78.7798 25.2025C82.8863 22.0231 84.8694 20.315 90.3937 21.6725C91.3464 21.9075 92.4877 22.328 93.574 23.0057C94.6439 23.6513 95.6379 24.6473 95.7842 24.9489C96.7327 25.885 97.4884 27.0756 97.9149 28.1988C98.3978 29.4623 98.5406 30.501 98.6124 31.3524C98.8101 36.7445 97.0628 38.2223 96.3424 40.099C93.5369 44.4293 92.3457 45.7922 91.1657 47.3136C90.5224 47.966 89.797 48.4986 88.9275 48.83C86.665 49.6415 85.4527 49.3616 81.6503 50.0282C80.3057 50.2435 78.7399 50.4486 76.8306 50.5642C75.8743 50.6206 74.8333 50.6556 73.6501 50.6349C73.0566 50.6236 72.4285 50.5996 71.7119 50.5396C71.3474 50.5081 70.9678 50.4698 70.4994 50.3993C70.2714 50.3646 70.0012 50.3191 69.6668 50.2447C69.4784 50.2015 69.3009 50.1598 69.0103 50.0729C68.7204 49.9722 68.4343 49.9348 67.4674 49.4288C65.7337 48.54 64.1936 46.8067 63.4654 45.3159C62.7019 43.8098 62.4478 42.5698 62.2796 41.5416C61.9823 39.4928 62.0456 38.0497 62.0723 36.653C62.438 33.3729 63.96 31.487 64.9987 30.2636C69.3889 25.8597 71.9418 25.2328 74.8089 23.8619C81.2939 21.6228 86.1796 23.7864 88.7654 24.6557C93.1164 26.3269 96.5656 29.3541 98.5714 31.5279C104.523 39.7482 103.596 43.2648 103.896 48.1861C103.346 54.1888 100.316 56.8497 98.8951 58.3508C96.9026 60.2612 94.8316 61.3839 93.9271 61.9009C89.3585 64.4165 87.5367 64.3622 85.09 65.0277C78.1671 66.477 74.8025 65.6776 70.3338 65.5889C68.0655 65.5439 65.113 64.9437 62.6316 63.5619C60.1424 62.2123 58.5222 60.4664 57.7928 59.7518C55.4223 57.46 53.711 54.016 52.9991 51.8128C52.8708 51.4491 52.7596 51.1099 52.6662 50.8259C51.5403 47.1335 51.4771 43.5949 51.4777 40.7568C51.5052 36.8075 52.7929 33.0175 54.3625 30.1333C58.6744 22.4938 65.4357 20.0296 69.9337 18.4506C76.8826 16.3779 82.7522 17.1321 88.8293 20.4001C94.2541 23.7874 95.5141 28.6497 96.0816 31.1866C96.6254 33.9572 96.5995 35.8918 96.5506 37.6412C96.3971 39.4454 95.8283 41.2513 95.1604 42.608C93.3886 46.0225 91.896 47.0465 91.1355 47.8407C90.33 48.5802 89.9456 48.9022 89.7028 49.1208C83.8523 53.6385 81.5976 52.3414 76.2939 53.2152C75.0599 53.5176 73.8588 53.6898 72.6501 53.8065Z" fill="#84AE7D"/>
<path d="M56.3264 59.6937C55.2542 61.9235 54.5338 64.066 53.8863 66.3691C53.0746 69.2388 52.3416 72.2934 51.2937 75.4015C49.8317 78.7713 49.4335 83.8807 40.5894 88.472C36.9553 90.3586 29.0291 89.3896 25.5131 85.3023C23.2381 82.8543 22.8918 81.5385 22.4365 80.5713C22.051 79.6128 21.8793 78.9954 21.7354 78.4756C21.4623 77.4458 21.3529 76.826 21.2514 76.2592C21.0631 75.1596 20.9787 74.3998 20.9109 73.6699C20.7837 72.2438 20.7649 71.0541 20.8126 69.8703C20.8122 69.2508 20.8426 68.6247 20.9033 68.0083C21.9022 61.1044 23.908 59.5127 24.7167 58.1115C28.2672 52.5093 31.4804 50.5602 35.1199 47.7426C36.9337 46.4189 39.3633 43.7292 45.5403 43.8021C50.3792 44.2723 51.6911 46.4418 52.586 47.298C53.4374 48.3232 53.8029 49.0352 54.1411 49.7153C55.1958 52.0285 55.0643 52.6328 55.2095 53.404C55.2898 54.1069 55.3087 54.6249 55.3226 55.1116C55.345 56.072 55.3272 56.8754 55.313 57.6829C55.2807 59.2863 55.2464 60.8644 55.2559 62.587C55.2568 62.7891 55.2572 62.9826 55.2564 63.1836C55.3046 67.1575 53.4434 72.2379 51.5243 74.8859C49.7565 77.5609 48.0351 78.7916 46.3342 79.8933C45.4725 80.4269 44.6075 80.8801 43.6088 81.2973C42.5188 81.7015 41.7543 82.1389 39.1912 82.4129C36.2116 82.635 34.1165 81.5316 32.996 80.797C31.8297 80.0106 31.2344 79.3517 30.7528 78.8029C28.3825 75.8646 28.3602 73.9992 28.0919 72.9026C27.9014 71.7406 27.8555 70.8964 27.8192 70.0917C27.7178 65.7694 27.9745 62.6321 28.3124 59.116C28.6941 55.4888 29.5217 51.993 30.6766 48.9872C31.686 46.0646 34.3103 43.6768 35.053 43.4185C38.3944 40.8257 41.0573 40.5445 44.6817 41.3785C46.8567 41.7411 49.3937 43.8038 50.1626 45.354C51.0383 46.9092 51.1322 47.8588 51.2291 48.538C51.352 49.862 51.2022 50.3716 51.1136 50.8277C50.9055 51.6554 50.69 52.0226 50.5466 52.0027C49.7983 55.7793 48.0533 57.065 46.7211 58.3598C46.0125 58.9817 45.2997 59.5328 44.5029 60.102C44.1016 60.3871 43.6848 60.673 43.1891 60.9848C42.6548 61.3026 42.2515 61.6076 41.0335 62.0949C40.2178 62.3916 38.8906 62.7009 37.2702 62.3341C35.6367 61.9763 34.3586 60.9493 33.7332 60.2063C32.4719 58.6426 32.4184 57.9167 32.203 57.3178C31.9004 56.1868 31.8744 55.6443 31.8087 55.0861C31.7153 54.1085 31.7065 53.4152 31.7106 52.7241C32.7821 45.3902 35.9127 43.8291 38.0014 41.653C38.4931 41.2561 38.9176 40.8145 40.3557 40.1944C41.1558 39.9825 42.099 39.2155 45.2213 39.9588C46.7617 40.3496 48.6622 41.8537 49.3977 43.3136C50.1808 44.7548 50.2651 45.8149 50.3094 46.5408C50.4275 49.0518 49.34 51.3454 48.3217 52.6161C47.2804 53.9428 46.2793 54.6733 45.3752 55.253C43.5493 56.3722 42.0482 56.8556 40.3348 57.2657C38.65 57.8357 35.7192 57.866 33.4626 55.8619C31.8334 54.4196 31.1273 52.3195 31.0268 51.0115C30.9009 49.6465 31.0936 48.7096 31.2945 47.9213C31.7247 46.3694 32.3101 45.3384 32.9129 44.3543C33.1179 44.0266 33.3366 43.6885 33.5656 43.3461C34.8795 40.977 37.3742 39.3459 39.4401 38.5871C40.1035 38.2477 41.1155 38.0179 42.0567 38.1521C43.0014 38.2749 43.7324 38.6695 44.2094 39.0282C45.1615 39.7753 45.438 40.3795 45.6786 40.8714C46.1005 41.8498 46.1415 42.5603 46.1124 43.2725C45.7385 46.8564 43.4823 48.7813 41.8395 50.0474C40.0973 51.3357 38.3263 52.224 36.7104 53.0731C36.119 53.394 35.4852 53.6891 34.7235 53.9288C33.9046 54.1248 33.2501 54.4933 31.3665 54.1269C31.1654 54.0747 30.9487 54.0054 30.7126 53.9031C30.4684 53.7985 30.1139 53.6114 29.7904 53.3467C29.0005 52.8177 28.2983 51.2352 28.4315 50.3122C28.503 49.3495 28.7661 48.9243 28.9417 48.5799C29.1266 48.2512 29.3007 48.0253 29.4376 47.857C30.018 47.1697 30.4421 46.8506 30.8669 46.5082C31.7006 45.8611 32.4764 45.3598 33.2487 44.8741C34.796 43.9125 36.2902 43.0646 37.8496 42.2537C40.4837 41.1756 41.4984 41.6045 42.6799 41.4929C43.207 41.4988 44.1242 41.5755 45.0628 42.2465C45.9967 42.9311 46.3157 43.7454 46.439 43.9832C47.6816 47.1444 47.1684 49.0284 47.0337 50.8352C46.8029 52.604 46.4926 54.0823 46.1441 55.4605C46.0831 55.6972 46.01 55.9431 45.9251 56.1918C45.2904 58.379 43.1641 61.0972 40.9158 62.2553C40.2291 62.6519 38.6637 63.3676 36.6182 62.6402C34.5917 61.8624 33.8262 60.2562 33.5615 59.3887C33.0716 57.5407 33.4406 56.6579 33.7003 55.857C36.5803 50.0622 40.7966 49.9667 43.5029 49.339C45.9813 48.8677 46.9315 49.4206 47.9702 49.6423C48.4982 49.7151 49.2786 49.9124 49.9962 50.4501C50.7193 50.9822 51.1009 51.6903 51.2282 52.0032C52.4039 55.5244 50.7938 57.1229 50.0436 58.389C49.0671 59.8327 47.8203 60.5161 46.8622 60.9921C45.6081 61.5902 44.5667 61.8143 43.688 62.0047C43.6728 62.013 43.6247 62.0318 43.609 62.039C43.2089 62.1095 42.6761 62.1616 42.3118 62.1116C42.0825 62.0867 41.8809 62.0496 41.6896 62.01C41.1625 61.8977 40.9104 61.5768 40.8809 61.245C40.8809 61.2448 40.8809 61.2446 40.8808 61.2444C40.8428 60.8291 41.1816 60.3975 41.777 60.281C41.8659 60.2629 41.9542 60.2435 42.0381 60.2225C42.3188 60.1537 42.4796 60.0735 42.7755 59.9167L42.7066 59.9467C44.1332 59.0878 46.0997 57.8045 46.1863 56.4691C46.3048 55.9554 46.354 55.4288 46.2747 55.0488C46.2118 54.6597 45.9322 54.5248 45.882 54.8512C45.8536 54.8809 46.0206 55.2826 46.4323 55.6116C46.8409 55.9435 47.2589 56.0575 47.4478 56.1124C47.151 56.1667 46.8714 56.226 46.6208 56.2959C46.029 56.4491 45.5466 56.7237 45.9269 56.786C43.2265 58.3445 42.2553 59.6092 42.4355 59.1745C42.5774 58.6676 42.8592 58.1159 42.4753 56.658C42.2636 55.9781 41.6458 54.613 39.8844 53.9227C38.1002 53.28 36.7645 53.9147 36.2395 54.2233C36.6137 54.0405 36.7143 54.0115 36.8862 53.9253C37.0431 53.8479 37.1982 53.756 37.3644 53.6268C37.6941 53.3714 38.0639 52.9629 38.4098 52.3501C38.7625 51.7312 39.1581 50.6928 39.3701 49.597C39.477 49.0476 39.5418 48.4645 39.5275 47.9414C39.5242 47.4379 39.3778 46.9172 39.2896 47.0229C39.2796 47.0428 39.276 47.0821 39.2848 47.1411C39.2545 47.0888 39.4873 47.8813 40.452 48.6114C41.4206 49.3156 42.2459 49.3628 42.5568 49.3949C41.9866 49.4523 41.481 49.519 41.1833 49.6082C40.9027 49.6683 40.7836 49.9017 41.5927 49.6244C40.365 50.5197 39.0974 51.5542 38.0723 52.5235C37.5668 53.0033 37.0825 53.504 36.8611 53.8479C36.8106 53.9292 36.7793 53.9987 36.7978 54.0221C36.8187 54.0396 36.8809 54.0365 37.0946 53.8084C37.2094 53.675 37.3447 53.5321 37.5878 53.0921C37.7788 52.675 38.2037 52.0706 38.2364 50.3709C38.3572 48.7349 36.9819 46.2731 35.8418 45.556C34.7634 44.7552 34.1769 44.6362 33.7449 44.4949C32.5277 44.1972 32.1735 44.2988 31.8711 44.2892C31.5945 44.301 31.4755 44.3102 31.3975 44.3025C31.2524 44.2885 31.2848 44.2194 31.3422 44.1156C32.6426 43.1221 33.7178 42.2705 34.3738 41.5927C34.6919 41.2707 34.8773 40.986 34.7941 41.0316C34.7424 41.05 34.2544 41.6528 34.1991 42.8367C34.1864 43.6945 34.2264 44.5413 34.8116 45.8827C35.1531 46.5589 35.5279 47.4302 36.999 48.6066C37.7417 49.1726 38.9007 49.8265 40.4601 50.0455C42.012 50.284 43.713 49.9025 44.7956 49.3383C44.4622 49.497 44.355 49.5747 44.406 49.5021C44.4519 49.4344 44.7073 49.144 44.879 48.6645C44.5809 49.1788 44.3225 49.6655 44.1705 49.9183C44.0939 50.0359 44.0518 50.0978 44.0281 49.9262C43.9806 49.7493 44.0645 49.3187 43.6248 48.1413C43.3628 47.4584 42.758 46.5223 41.9746 45.905C39.8517 44.1331 37.3346 44.3265 36.1066 44.8032C36.7684 44.6961 37.5294 44.3306 37.6264 44.2239C37.6821 44.1832 37.5582 44.199 37.2312 44.6141C36.9148 44.9928 36.4181 46.0445 36.4356 47.1452C36.4751 47.7987 36.5419 48.7878 37.3062 50.1699C38.0212 51.5677 39.8852 52.9779 41.3129 53.3118C44.2085 53.953 44.9654 53.259 45.6163 53.1042C46.7542 52.6161 46.9577 52.363 47.2373 52.1671C46.5464 52.9824 46.0755 53.8044 45.9483 54.3902C45.7858 54.9367 46.208 55.3652 46.6762 54.0609C46.7568 54.3506 46.862 54.6614 46.9681 54.5729C47.0059 54.4902 47.1089 54.4163 46.9588 53.5279C46.8076 53.0362 46.8757 52.3744 45.5154 50.4828C44.8402 49.5885 43.3041 48.1264 41.0711 47.513C38.8416 46.8843 36.9014 47.2949 35.8351 47.6731C35.1529 47.8834 35.0945 47.9044 34.9883 47.9071C34.907 47.9049 34.8966 47.8644 34.8948 47.8158C34.896 47.7171 34.9453 47.5786 34.9257 47.5014C34.9063 47.4311 34.8288 47.3885 34.5667 47.6701C34.348 47.9837 33.6929 48.5402 33.4238 50.8322C33.4685 50.004 33.5008 49.6454 33.4699 49.8249C33.4686 49.9624 33.3915 50.1592 33.5239 51.2839C33.6298 51.8696 33.6883 52.7478 34.5919 54.4497C35.3291 56.1166 38.3561 58.7795 40.9983 59.1519C42.6844 59.4606 43.4233 59.3302 44.5132 59.0814C45.5402 58.8136 46.7458 58.2508 47.8237 57.2426C47.2988 57.7075 47.2057 57.7681 47.1113 57.8342C47.0301 57.8871 47.0049 57.8815 46.9684 57.8789C46.9032 57.8677 46.7928 57.8723 46.6024 58.0359C46.2231 58.3468 45.6173 59.2916 45.068 60.7561C45.0289 60.8598 44.9893 60.9713 44.9497 61.0854C44.0961 63.6697 43.7614 66.6904 43.7564 68.7078C43.7548 69.1963 43.7879 69.632 43.8031 69.7767C43.8059 69.8413 43.8123 69.8303 43.7186 69.5819C43.6698 69.458 43.59 69.2647 43.439 68.9967C43.2954 68.7367 43.045 68.3814 42.8366 68.1469C42.6751 67.9702 42.4433 67.6849 41.7888 67.2466C41.17 66.8452 39.8186 66.1197 37.8308 66.2679C37.1421 66.3288 37.0877 66.3759 37.0103 66.3733C36.9566 66.3737 36.9865 66.3437 37.0273 66.2999C37.1154 66.2113 37.2581 66.0687 37.3468 65.9309C37.5332 65.6753 37.5214 65.3097 36.9871 65.7435C37.2747 65.053 37.2479 64.8157 37.2493 64.4872C37.2362 64.1824 37.1764 63.9102 37.0917 63.644C36.9204 63.1124 36.6481 62.6134 36.313 62.0708C36.0235 60.7736 35.7218 59.4461 35.3983 58.1942C35.2362 57.5773 35.0664 56.9644 34.8849 56.5424C34.7955 56.3415 34.6979 56.1755 34.6225 56.2569C34.5876 56.3061 34.5528 56.4096 34.5756 56.7439C34.6436 57.1235 34.5442 57.5386 35.3952 59.3941C35.5812 59.8185 35.7716 60.3046 36.5273 61.2639C37.3787 61.995 38.479 64.5718 44.7331 65.26C49.4235 65.4145 50.9085 63.5516 51.4086 63.3867C50.7198 64.4537 49.9271 65.7161 49.2891 66.904C48.9353 67.5597 48.6546 68.1724 48.5027 68.5889C48.0337 69.7005 47.6382 70.6297 47.5678 70.8488C47.528 70.9578 47.5706 70.8665 47.6297 70.5601C47.6891 70.2605 47.7438 69.7461 47.7211 69.2541C47.7299 70.366 47.7275 71.4471 47.7336 72.2719C47.7347 72.6695 47.7462 73.0304 47.7298 73.046C47.7162 73.0374 47.7107 72.9656 47.596 72.4861C47.531 72.2351 47.4506 71.8822 47.1848 71.1712C46.837 70.4428 46.6858 69.3639 44.4574 66.9193C41.5459 63.3966 34.4249 62.4261 31.3725 64.0154C31.6533 63.9202 31.5492 63.9657 31.4177 64.0321C31.2771 64.1017 31.0833 64.2036 30.9158 64.3046C30.5712 64.5107 30.327 64.7061 30.1984 64.8299C29.9382 65.0854 30.0403 65.0885 30.2247 64.9477C30.6197 64.656 31.3414 63.8676 32.0467 62.9676C33.1505 61.583 34.1124 60.1421 35.0176 58.4866C36.1342 56.4343 37.2185 53.9656 37.9903 51.9168C38.6976 50.0343 38.9663 49.2143 39.1915 47.0112C39.5354 43.4433 39.6649 39.9106 39.4889 38.5059C39.34 37.4238 39.18 36.4695 39.0262 35.8668C38.9355 35.4943 38.8212 35.2044 38.8735 35.4244C38.9555 35.5745 39.1387 36.7637 41.121 38.4366C41.2033 38.5124 41.4041 38.7186 42.1027 39.0486C42.77 39.3523 44.1971 39.8676 46.2157 39.6135C44.4916 39.8688 44.693 39.9809 45.012 39.8812C45.3794 39.7793 45.6602 39.528 45.522 39.7401C44.9919 40.4489 44.1541 41.7732 43.5038 43.0166C43.1787 43.6321 42.8664 44.2927 42.719 44.6793C42.6839 44.7707 42.6623 44.838 42.667 44.8366C42.6729 44.8254 42.7025 44.7842 42.7981 44.4251C42.8421 44.2468 42.9153 43.9693 42.9843 43.4024C42.9658 42.6762 43.4375 42.1918 42.4378 38.8342C42.0685 37.4597 39.9293 33.9381 36.6672 32.6282C33.2123 31.2313 31.3841 31.723 30.0129 31.951C27.9127 32.4771 27.4507 32.9134 26.9589 33.1727C26.28 33.6013 26.1637 33.7429 26.0333 33.8502C25.9229 33.9504 25.8904 33.9865 25.869 34.0074C25.8325 34.0456 25.8482 34.0193 25.8291 34.0478C25.8145 34.0862 25.5973 34.4053 25.5929 35.3372C25.6054 33.882 25.6238 32.4313 25.6274 31.0876C25.629 30.4202 25.6256 29.7708 25.6147 29.2609C25.61 29.0119 25.6011 28.7908 25.6035 28.7205C25.606 28.6903 25.6093 28.6942 25.6384 28.8273C25.6825 28.9853 25.6787 29.1608 26.0087 30.0908C25.895 29.7032 25.831 29.6448 26.2108 30.3189C26.4205 30.6603 26.7515 31.2354 27.5904 32.0745C28.3966 32.8927 29.9685 34.007 31.845 34.4731C32.2738 34.5551 32.805 34.6638 33.8832 34.5726C34.9098 34.4901 36.7438 34.0175 38.2914 32.7295C38.1136 32.8448 38.0122 32.9059 37.9474 32.9357C37.7902 33.01 37.7988 32.9146 37.6368 33.0998C37.4895 33.2716 37.2601 33.6837 37.0365 34.2799C36.2001 36.4696 35.8287 38.7213 35.6261 41.694C35.3425 46.4043 35.4717 52.1216 35.7653 57.2922C35.8102 58.0058 35.8632 58.7044 35.9235 59.2468C35.9524 59.5105 35.9888 59.7546 36.0004 59.767C36.0015 59.7582 36.011 59.7233 35.9301 59.3531C35.8814 59.155 35.8296 58.89 35.5918 58.2537C35.3048 57.6768 35.0239 56.2708 32.6307 54.1141C32.2871 53.8459 31.7477 53.3132 30.2216 52.5789C28.7918 51.8146 25.4449 51.1733 22.9455 51.9326C17.9597 53.6498 17.8474 55.1851 17.1159 55.8126C16.1945 57.0881 16.2043 57.274 16.0495 57.5448C15.8485 57.9702 15.8525 57.9867 15.8366 58.0145C15.8264 58.0302 15.8825 57.8617 15.9344 57.6945C16.0453 57.341 16.1807 56.8988 16.3152 56.457C16.5867 55.5647 16.8664 54.6398 17.1542 53.701C19.2223 46.9335 21.4795 40.1791 23.9962 33.9179C24.1044 33.6489 24.2159 33.368 24.3225 33.1023C24.6896 32.1857 25.0493 31.273 25.3752 30.4132C25.536 29.9909 25.6897 29.5711 25.7998 29.2897C25.8536 29.1603 25.8982 29.0316 25.9013 29.1615C25.9046 29.2557 25.8843 29.3224 25.8742 29.9748C25.874 30.1373 25.8752 30.3881 25.9016 30.7338C25.9427 31.1381 25.9546 31.6214 26.278 32.7415C26.3599 33.0147 26.5058 33.4386 26.695 33.8599C26.7913 34.0754 26.9026 34.3033 27.0336 34.5431C27.1807 34.8133 27.386 35.1528 27.6185 35.4802C28.376 36.6633 30.6456 38.7764 33.4075 39.3005C36.2037 39.862 38.0033 39.185 38.9211 38.8461C39.9891 38.4073 40.424 38.0933 40.861 37.7972C40.7022 37.7958 39.7865 38.4367 38.8649 39.0652C37.8931 39.7202 36.7933 40.4895 35.1357 41.3537C34.8365 41.51 34.5629 41.6562 33.9772 41.9104C33.8274 41.9741 33.6435 42.0513 33.3652 42.153C33.2174 42.2064 33.0618 42.2616 32.7996 42.3411C32.5381 42.4156 32.2416 42.5144 31.5203 42.6336C31.0887 42.688 30.7207 42.7816 29.5242 42.7281C29.2299 42.7087 28.9509 42.6834 28.5227 42.6103C28.0125 42.5205 27.4085 42.3751 26.7018 42.0931C25.5621 41.724 22.6865 39.9028 21.6381 36.9986C20.6514 34.4976 21.0677 32.2916 21.2913 31.4349C21.5256 30.5326 21.8087 29.9266 22.0494 29.4622C22.3929 28.8078 22.7394 28.3442 22.9034 28.1311C23.6704 27.1802 23.8389 27.1059 24.0771 26.8743C24.4746 26.5259 24.6596 26.3978 24.83 26.2727C24.9973 26.1526 25.1269 26.066 25.2461 25.9884C25.4798 25.8369 25.6656 25.7262 25.8417 25.6238C29.1245 23.8201 31.6725 22.9227 34.4752 21.9033C39.2717 20.235 43.8881 18.8728 48.6632 17.6653C51.7645 16.9051 54.865 16.2196 58.3288 15.9181C58.602 15.8958 58.8787 15.8756 59.1942 15.8568C59.3548 15.8472 59.5152 15.8389 59.7208 15.8301C59.9354 15.8227 60.1193 15.8112 60.5852 15.8162C60.7228 15.8187 60.852 15.8215 61.0928 15.839C61.3739 15.8753 61.5875 15.8336 62.6042 16.1241C62.7882 16.1823 63.3955 16.3758 64.0557 16.7894C64.3985 17.004 64.7967 17.2937 65.2193 17.7254C65.8393 18.3492 66.5313 19.3839 66.8192 20.6356C67.1427 21.831 66.9017 23.353 66.7247 23.8383C66.5203 24.517 66.2475 25.0287 65.9953 25.4218C65.7408 25.8155 65.5014 26.0974 65.2912 26.3214C65.096 26.5258 65.0288 26.5844 64.911 26.6916C64.0143 27.4446 63.8548 27.4399 63.5897 27.599C63.1914 27.7996 63.0176 27.8582 62.8565 27.9198C62.6881 27.9816 62.593 28.0109 62.4748 28.0482C62.0693 28.1706 61.8013 28.2301 61.5333 28.2903C60.4817 28.5181 59.6448 28.6484 58.761 28.7922C52.4456 29.7613 46.9917 30.4379 42.8386 30.8654C40.8625 31.0658 39.088 31.2355 37.4466 31.3788C34.8816 31.6043 32.7012 31.7175 30.6636 31.8038C29.6394 31.8456 28.6597 31.8793 27.6516 31.8923C27.1453 31.8975 26.6403 31.9001 26.0624 31.8763C25.7644 31.8609 25.4845 31.8528 25.0006 31.7772C24.8961 31.7598 24.711 31.7256 24.5279 31.6737C24.4205 31.6437 24.2699 31.5967 24.104 31.5263C23.9721 31.468 23.6492 31.334 23.281 31.0127C22.9695 30.8421 22.124 29.5443 22.3341 28.5515C22.3923 28.0687 22.5613 27.6897 22.7235 27.4203C22.8592 27.199 22.9554 27.0855 23.0623 26.9652C23.1658 26.8512 23.2612 26.7624 23.349 26.6876C23.4271 26.6215 23.4731 26.5866 23.5305 26.5441C23.6398 26.464 23.7375 26.4016 23.8288 26.3473C24.5029 25.9726 24.7818 25.9242 25.1115 25.8092C25.4267 25.7104 25.7037 25.6333 25.9838 25.5567C26.5386 25.4061 27.0749 25.2693 27.6201 25.1293C28.7072 24.8511 29.8295 24.563 31.0242 24.2456C33.0294 23.7116 35.2792 23.0537 37.9384 22.2737C41.2535 21.316 45.1297 20.4183 49.5142 20.0253C50.9743 19.9081 52.4533 19.8361 53.9758 19.8326C54.7371 19.8316 55.5019 19.8476 56.2963 19.894C56.6947 19.9177 57.0941 19.9484 57.5297 19.9963C57.7476 20.0209 57.9753 20.0485 58.2481 20.0919C58.3845 20.1145 58.5357 20.1385 58.7615 20.1886C58.8885 20.2194 59.0066 20.2384 59.3136 20.3491C59.4004 20.3818 59.4984 20.422 59.6182 20.4826C59.7897 20.573 59.9882 20.6748 60.2845 20.9543C60.4828 21.1464 60.7212 21.4325 60.8929 21.8557C61.0627 22.2304 61.147 22.9394 61.006 23.4367C60.9468 23.6863 60.8355 23.9344 60.7571 24.0725C60.6822 24.2076 60.6037 24.3212 60.5276 24.4181C60.3746 24.6116 60.2333 24.7399 60.1119 24.8383C58.9519 25.5745 58.0183 25.9004 56.7537 26.1151C55.0516 26.2806 53.3777 26.3665 51.7683 26.4249C49.4616 26.4713 48.5609 26.3766 48.4083 25.7755C48.4181 25.0085 49.8123 23.9321 51.9624 23.0216C53.2155 22.4822 54.4168 22.0365 55.5716 21.6262C55.9474 21.4647 56.6067 21.0382 56.8252 20.7952C56.6862 20.9092 56.5117 21.0675 56.324 21.3375C56.1774 21.5306 55.8289 22.1852 55.8629 22.8979C55.9647 24.3887 56.8508 24.857 56.9802 24.9804C57.1114 25.0719 57.2213 25.1318 57.3082 25.1752C57.372 25.2069 57.4269 25.231 57.4751 25.2508C57.5711 25.29 57.644 25.3129 57.6814 25.3247C57.8592 25.377 57.8729 25.3747 57.8904 25.3821C57.9121 25.3912 57.8563 25.3912 57.796 25.3945C57.6713 25.4002 57.4961 25.4099 57.3248 25.4235C56.9746 25.4508 56.6002 25.4908 56.2312 25.5382C55.4908 25.6335 54.7644 25.7576 54.0752 25.9092C52.6912 26.2143 51.4786 26.6273 50.4537 27.232C50.2725 27.3481 50.0832 27.4748 49.9157 27.6083C44.166 32.1613 41.7672 34.2507 33.2042 34.1578C32.9959 34.1559 32.8031 34.1488 32.5886 34.1446C31.4428 34.1133 30.4078 34.1857 29.5037 34.3373C29.06 34.4111 28.6373 34.5082 28.3169 34.6075C28.1596 34.656 28.0227 34.7077 27.9798 34.7366C27.9613 34.7496 27.9658 34.7581 28.0466 34.7352C28.1303 34.7077 28.2887 34.6653 28.6905 34.4414C28.8593 34.3436 29.0781 34.2095 29.3779 33.9723C29.5253 33.856 29.8198 33.6046 30.1089 33.2827C30.4221 32.9002 30.6902 32.6958 31.2417 31.5202C31.7112 30.4551 32.044 28.8303 31.5356 27.0485C31.0655 25.3415 29.9227 24.2005 29.4976 23.8453C28.9387 23.3637 28.477 23.105 28.1187 22.9239C27.8603 22.7947 27.6472 22.7076 27.4663 22.6401C27.0862 22.502 26.9176 22.4627 26.7675 22.4223C26.6207 22.3845 26.5061 22.3605 26.4445 22.3457C26.3038 22.3136 26.2326 22.297 26.1974 22.2824C26.0683 22.2286 26.2417 22.1858 26.3918 22.1232C26.7247 22.0012 27.1626 21.8366 27.5841 21.6517C28.4406 21.2806 29.2801 20.8307 30.0776 20.4012C31.687 19.5377 33.1499 18.7564 34.8387 18.6393C34.873 18.6369 34.907 18.6346 34.9409 18.6325C38.9702 18.3008 40.2558 20.3386 55.5314 15.8839C56.238 15.6691 56.9924 15.4299 57.5826 15.2046C57.7197 15.1514 57.8579 15.0935 57.8601 15.0779C57.8447 15.0787 57.8555 15.0551 57.5079 15.1995C57.3921 15.2516 57.3184 15.2782 57.0175 15.4402C56.948 15.4783 56.8709 15.522 56.7839 15.5741C56.6886 15.632 56.6301 15.6657 56.4402 15.7939C56.2725 15.9085 56.0754 16.0511 55.8349 16.2537C55.5716 16.4955 55.4053 16.5711 54.7212 17.4205C54.4229 17.811 54.085 18.3179 53.7763 19.025C53.4864 19.7616 53.152 20.4963 53.1472 22.2219C53.158 23.7894 53.789 25.4548 54.5799 26.5183C55.4995 27.7218 55.8548 27.8949 56.3594 28.2883C57.2818 28.9367 58.0105 29.1834 58.3866 29.3119C58.7079 29.4172 58.9605 29.4787 59.1722 29.5241C59.6196 29.6159 59.7907 29.6287 59.9627 29.6487C60.1245 29.6656 60.2718 29.6743 60.3425 29.6781C60.6865 29.6939 60.7752 29.6878 60.853 29.6895C60.9237 29.6898 60.9486 29.6912 60.9612 29.694C60.9823 29.6996 60.9459 29.7105 60.9 29.7239C60.802 29.7511 60.6478 29.7886 60.4865 29.8303C59.5037 30.0841 58.3097 30.4787 56.9853 30.9939C55.8641 31.4299 54.7352 31.9053 53.6219 32.3948C49.2664 34.3284 45.1173 36.3701 41.7134 38.202C39.5054 39.3992 37.255 40.748 36.2646 41.5826C36.2359 41.6109 36.2219 41.6312 36.267 41.6095C36.2914 41.5971 36.3292 41.5755 36.4131 41.5169C36.5043 41.4497 36.6026 41.3906 36.9644 41.0711C37.0667 40.9786 37.175 40.88 37.3583 40.6945C37.4529 40.5982 37.5591 40.4864 37.6812 40.3494C37.8332 40.178 38.011 39.968 38.2246 39.681C38.3473 39.5158 38.5134 39.2801 38.6837 39.006C38.8652 38.7043 39.0121 38.4834 39.3311 37.7844C39.4734 37.4638 39.6207 37.0906 39.7589 36.6407C39.8932 36.1746 40.0309 35.7462 40.1486 34.7208C40.3531 32.9324 40.0871 29.8027 37.7662 27.088C35.3009 24.4366 33.7072 24.2173 32.4088 23.8197C31.7204 23.6614 31.3759 23.6282 31.0282 23.5919C30.6855 23.5596 30.387 23.5483 30.1214 23.5471C29.8634 23.5455 29.5984 23.5567 29.4373 23.5673C29.2774 23.5775 29.1317 23.5905 28.9973 23.605C28.7286 23.634 28.5044 23.6686 28.3087 23.7034C27.987 23.7612 27.7526 23.817 27.5488 23.8697C27.3756 23.9148 27.2378 23.9551 27.1136 23.9934C26.8822 24.0652 26.7256 24.1215 26.6069 24.1651C26.3633 24.2555 26.2275 24.3137 26.1214 24.3587C25.7185 24.5345 25.6447 24.5771 25.5438 24.6232C25.5479 24.5531 26.0504 24.1318 26.6273 23.589C27.2599 23.0198 27.8451 22.4024 29.2872 21.2995C29.8187 20.9406 30.3716 20.5439 31.678 20.0328C32.8294 19.6165 35.2217 18.8513 38.49 19.8005C40.0592 20.271 41.4297 21.0935 42.4816 22.0334C43.4751 22.9295 44.0244 23.6884 44.4935 24.4434C44.945 25.1974 45.1219 25.6168 45.3243 26.1183C45.4174 26.3561 45.4954 26.5797 45.5622 26.7903C45.6173 26.9638 45.662 27.1187 45.7028 27.2712C45.8655 27.8807 45.9405 28.3649 45.9829 28.6808C46.0284 29.0227 46.0516 29.3296 46.0631 29.5292C46.0881 29.9818 46.0847 30.2763 46.0792 30.5352C46.0469 31.5032 45.9851 31.8514 45.941 32.2293C45.8458 32.9367 45.7706 33.3451 45.696 33.7593C45.5481 34.5604 45.4174 35.1814 45.2842 35.7973C45.0212 37.0064 44.7715 38.0624 44.5212 39.0928C43.5766 42.9889 42.7485 46.2096 42.0302 49.0753C41.2798 52.0624 39.9389 55.9503 38.3157 60.3583C37.985 61.2568 37.6486 62.1607 37.2837 63.1283C37.101 63.6117 36.913 64.1085 36.6903 64.6834C36.5755 64.9786 36.46 65.2786 36.2694 65.7466C36.1621 66.0031 36.0732 66.2421 35.7734 66.8745C35.5804 67.2304 35.5166 67.5407 34.5868 68.859C34.4817 69.0019 34.2907 69.2506 34.0888 69.4864C33.9857 69.6073 33.8737 69.7335 33.7509 69.8649C33.6313 69.9926 33.4911 70.1382 33.2952 70.3253C32.9097 70.6896 32.4929 71.0511 31.8517 71.4878C31.1065 71.9832 30.2962 72.4421 29.043 72.8525C26.5282 73.7869 22.856 73.2733 21.2548 72.4426C19.5349 71.6496 18.9544 71.0599 18.5673 70.7599C16.0666 68.5187 15.6609 66.913 15.3001 66.1364C14.988 65.3082 14.8822 64.8414 14.7874 64.4426C14.6163 63.673 14.5659 63.2362 14.5158 62.8259C14.427 62.0334 14.4021 61.4756 14.38 60.9257C14.3423 59.8575 14.3468 58.9354 14.357 58.0139C14.4814 51.983 14.748 46.2372 15.2103 39.9595C15.4382 37.192 15.7599 34.3586 16.352 31.4127C16.5984 30.1679 16.9814 28.727 17.3632 27.5025C18.1942 24.4068 21.0945 18.9583 24.9934 16.0682C30.1009 12.2059 34.7459 13.0849 37.3355 13.6817C42.2589 15.061 44.2135 18.3983 45.0137 19.7318C45.8658 21.2686 46.1276 22.1369 46.3384 22.6616C46.7756 23.8971 46.8533 24.4454 46.9603 24.9684C47.0532 25.4736 47.1026 25.8396 47.1457 26.1856C47.2276 26.86 47.2691 27.3927 47.3037 27.8917C47.3701 28.8822 47.3997 29.7381 47.4233 30.5766C47.4676 32.2415 47.4779 33.8041 47.4877 35.3567C47.4818 39.061 46.3926 42.1464 45.0377 44.6404C43.4408 47.2437 42.6661 48.9149 38.5076 51.8295C38.1619 52.0437 37.7645 52.2708 37.2704 52.5065C36.7515 52.753 35.8928 53.1195 34.7801 53.368C33.2716 53.6264 31.3521 54.1245 27.784 52.6901C24.4226 51.3506 22.1886 47.7137 21.7834 46.2346C20.6972 42.632 21.1817 41.9007 21.1872 40.9115C21.2809 40.1018 21.4066 39.5559 21.5066 39.1404C21.9353 37.4861 22.2583 36.7905 22.5812 35.9946C23.2183 34.5032 23.8092 33.3656 24.4324 32.2275C25.6929 29.9712 26.9335 27.9687 28.759 25.6934C30.551 23.4619 33.2728 21.1555 36.3385 19.8134C39.3543 18.4416 42.3383 18.1221 43.2118 17.9258C50.2252 17.292 52.8583 20.0484 54.6694 21.1373C58.2143 23.9927 59.0211 26.5966 59.6538 27.9961C60.2326 29.4827 60.4867 30.4237 60.731 31.2375C61.2093 32.8906 61.4662 34.0063 61.693 35.0375C62.8431 42.3796 61.9141 44.4315 61.1404 47.3693C60.4343 49.7698 59.3961 53.2486 57.6188 56.9775C57.2147 57.8396 56.7865 58.7324 56.3264 59.6937Z" fill="#84AE7D"/>
<path d="M52.1395 96.8071C52.1395 96.873 51.7994 96.7982 50.1787 95.9435C48.8678 95.2522 46.6873 93.8179 42.0162 90.1639C37.3452 86.5099 30.2809 80.6234 25.6528 76.4506C21.0248 72.2779 19.0471 69.9972 16.3899 65.9573C13.7328 61.9173 10.4562 56.1872 8.44158 52.3921C5.58304 47.0073 5.10021 44.4906 5.27009 42.6191C5.53315 39.721 6.88332 36.1208 8.65241 32.2499C9.57152 30.2389 10.9228 28.3222 12.2831 26.4952C13.6435 24.6682 15.0715 23.0374 17.2193 21.1001C19.3672 19.1629 22.1916 16.9685 24.4578 15.4096C26.7241 13.8507 28.3465 12.9938 31.5273 11.8528C34.7082 10.7118 39.3983 9.3126 44.0644 8.33369C48.7305 7.35477 53.2304 6.83854 60.1278 6.61709C67.0252 6.39565 76.1838 6.48463 83.7832 7.35681C91.3826 8.22898 97.1454 9.88165 100.296 10.733C103.788 11.6765 104.424 11.6767 105.969 12.5775C107.299 13.3525 109.654 14.9081 113.171 17.78C116.688 20.652 121.274 24.8277 124.897 28.7086C128.52 32.5895 131.041 36.0492 132.8 38.7401C135.671 43.1302 136.703 45.8713 137.473 48.8429C138.044 51.0463 138.682 54.7338 139.275 61.4447C139.869 68.1556 140.32 77.7966 140.421 83.3002C140.541 89.8789 139.475 92.0716 138.447 94.0665C137.572 95.7634 135.486 97.6172 132.595 99.9718C129.718 102.314 126.799 103.576 124.354 104.467C123.069 104.935 121.613 105.194 114.85 105.502C108.087 105.811 96.0404 106.1 89.8148 106.13C83.5892 106.159 83.5497 105.921 82.2359 103.399C80.9221 100.878 78.3352 96.0796 76.1159 90.8176C73.8966 85.5556 72.1232 79.975 71.0557 77.256C69.9883 74.5369 69.6806 74.8485 68.2826 77.1676C66.8846 79.4867 64.4056 83.8038 62.8569 86.4242C60.8201 89.8704 59.3015 91.7842 57.7741 93.6522C56.8352 94.7014 55.8399 95.722 54.7236 96.8443C54.2775 97.2667 54.0759 97.3905 53.8681 97.5479" stroke="black" stroke-width="7" stroke-linecap="round"/>
</svg>
