<svg width="142" height="136" viewBox="0 0 142 136" fill="none" xmlns="http://www.w3.org/2000/svg">
<path d="M8.69095 51.0965C9.61368 50.3436 9.66506 49.3165 9.37209 48.1484C8.81159 45.2937 6.76048 41.3754 9.08269 38.8852C12.464 35.3797 16.3088 37.1842 18.432 32.586C20.3445 28.5737 24.6884 26.6345 25.7866 24.4955C25.9362 24.2408 26.637 23.7052 26.8285 23.4804C27.1517 23.1042 27.4047 22.7212 27.5652 22.3136C28.8997 19.2408 31.9217 23.4721 34.3663 20.9033C36.9689 18.356 39.297 18.2784 42.4421 19.1113C44.5741 19.6458 48.9246 19.6912 52.3489 19.198C52.4062 19.1795 52.5888 19.1858 52.6477 19.1728C54.3372 19.0771 55.8219 18.7525 56.7586 18.0472C59.5989 15.9191 62.8515 19.5352 64.7848 20.3888C65.3884 20.6549 65.864 21.02 66.2283 21.4003C66.3828 21.5615 66.4549 21.8994 66.4557 22.2331C66.4557 22.2333 66.4557 22.2336 66.4557 22.2338C66.4567 22.6493 66.3472 23.0581 66.1494 23.1111C65.1895 23.3684 63.753 24.0437 62.0679 25.5577C58.9403 28.3878 58.5501 25.2663 54.3857 26.7965C53.8778 26.9874 53.4006 27.2019 52.9504 27.4289L53.4346 27.388C50.4474 29.3236 48.8168 31.6465 44.7951 31.1792C40.3254 30.9139 42.0721 37.3447 37.9465 37.0879L39.1 35.9641C38.6883 36.1462 38.222 36.3189 37.7027 36.4721C29.978 38.8345 35.8571 44.5498 33.5765 50.0021C32.575 52.4999 30.661 54.6519 28.8384 56.7504C26.2888 59.9944 23.9278 62.498 23.565 64.3539C23.0582 66.824 23.0446 69.4993 22.8622 72.4367C22.7781 74.0945 22.577 75.7681 22.2217 77.4173C21.6504 80.0753 21.788 83.0038 22.0787 85.6158C22.223 86.8965 22.4258 88.1367 22.575 88.8066C22.638 89.1207 22.7217 89.3059 22.566 88.9127C22.3456 88.614 22.1172 87.0537 19.0843 85.1543C17.6063 84.369 16.115 84.4148 15.7839 84.6512C15.2014 85.0351 16.2251 85.2884 17.832 85.3369C18.926 86.2726 22.1231 85.6884 25.3175 84.5577C27.44 83.9262 29.4513 83.136 30.9223 82.6414C35.1692 81.1553 36.2373 80.6536 38.5397 77.1033C39.8582 75.0528 42.5384 73.1552 45.9834 72.6074C47.7172 72.3278 48.5742 73.5667 48.0832 75.0924C47.3598 77.3228 45.6481 78.056 46.1708 80.1285C47.2 84.2779 47.4673 85.9925 43.9526 86.3526C40.4568 86.6805 42.7154 91.1766 41.0523 91.8819C39.4566 92.5085 38.1336 90.7155 33.2981 95.9093C32.8902 96.3392 32.4464 96.8288 31.9431 97.3895C29.3484 100.41 25.3473 103.318 21.3132 104.457C20.3773 104.879 18.8911 105.485 16.5321 105.775C14.2505 106.096 10.5341 105.718 7.60547 104.022C6.62879 103.463 5.77777 102.802 5.10862 102.182C-0.914438 95.3799 0.894316 91.7338 0.793808 88.4324C1.09247 85.166 1.60246 82.2636 1.23283 79.7006C0.933564 77.6106 0.977661 74.7446 0.979387 71.9145C0.952784 66.3396 2.33231 60.6158 2.42431 57.6012C2.61982 52.4242 5.70634 53.6032 8.69095 51.0965Z" fill="#84AE7D"/>
<path d="M66.2068 93.1554C64.884 92.7573 63.6219 92.7899 62.046 92.964C61.2426 93.0417 60.368 93.1769 59.0546 93.1377C58.4013 93.1143 57.5847 93.0265 56.6388 92.7809C55.7076 92.5528 54.656 92.0942 54.1903 91.9738C52.1223 90.9791 50.4824 89.4874 49.3692 88.2781C48.8079 87.676 48.3469 87.1113 48.0154 86.7859C47.855 86.6333 47.7158 86.5249 47.7065 86.6818C47.7096 86.771 47.7314 86.9132 47.9185 87.306C48.1882 87.7304 48.2146 88.2765 50.1269 90.0991C51.6853 91.7424 55.8735 93.1589 57.6842 92.995C59.6556 92.9926 60.4786 92.7041 61.0753 92.5691C62.204 92.2551 62.4567 92.1342 62.7281 92.0595C63.1772 91.9286 63.2315 91.9793 63.2843 92.044C63.3544 92.1881 63.2282 92.444 63.0922 92.6952C62.8034 93.2077 62.3772 93.7525 61.8765 94.2451C61.291 94.8276 60.5754 95.3501 59.7106 95.7574C54.6254 98.1689 51.4625 96.6352 47.286 99.0965C46.4531 99.5909 45.5866 100.242 44.659 101.122C43.8028 101.934 42.9006 102.677 41.9399 103.388C41.4554 103.746 40.9637 104.092 40.3988 104.467C39.8029 104.853 39.2988 105.211 38.0282 105.893C36.6096 106.605 34.965 107.174 33.7788 107.468C32.5528 107.77 32.2107 107.801 32.2996 107.664C31.8326 107.8 31.5624 107.951 31.7735 107.739C31.8741 107.629 32.1225 107.384 32.4132 106.951C32.5542 106.744 32.6997 106.483 32.7906 106.308C32.8753 106.149 32.9403 106.027 32.7708 106.552C33.2473 105.453 33.5069 103.605 33.1929 102.131C32.9007 100.642 32.3436 99.7188 31.9757 99.1512C31.2039 98.0429 30.9093 97.8518 30.7472 97.63C30.7357 97.5428 30.7238 97.4472 30.7139 97.3443C30.0761 95.4136 29.7148 99.1244 32.5602 99.77C32.4256 99.7648 31.3832 99.8493 31.0297 99.9885C30.6261 100.114 30.5504 100.17 30.5367 100.165C30.5336 100.154 30.7831 99.9669 31.0243 99.7141C31.5997 99.1303 32.2645 98.5469 32.9067 98.0498C35.5656 95.9764 38.1433 95.1816 41.7752 94.4704C43.3963 94.1496 45.9787 93.1672 48.6757 91.7944C51.931 90.1499 55.2147 87.8907 57.3719 85.5003C58.4393 84.3475 59.2571 83.2374 59.7033 82.252C60.5744 80.3943 61.8511 79.2283 63.8745 78.028C66.7149 76.5343 70.1124 75.8668 72.4946 75.3622C72.958 75.2627 73.4011 75.2181 73.798 75.2185C73.8239 75.2065 73.9075 75.1889 73.9344 75.1795C74.3324 75.215 74.7119 75.2901 75.0263 75.3955C75.222 75.4602 75.3943 75.5342 75.5515 75.6111C75.834 75.7508 75.9757 76.0794 76.0036 76.4117C76.0036 76.4119 76.0036 76.4122 76.0037 76.4124C76.0389 76.8269 75.8698 77.248 75.5545 77.3275C75.4562 77.3526 75.3575 77.3804 75.2605 77.4118C75.0178 77.4897 74.7834 77.5912 74.5281 77.727L74.6397 77.6952C73.4508 78.4573 72.3188 79.9771 71.3375 82.1914C70.7718 83.4735 70.2322 84.346 69.6404 85.0102C68.1564 86.8527 65.7912 87.1548 62.5019 91.3121C62.4131 91.4235 62.3224 91.5384 62.2306 91.6563C59.5689 95.0814 57.4758 98.1575 54.8297 100.746C52.7152 102.804 50.2178 104.575 46.5014 105.97C43.5508 107.075 41.9556 108.707 40.4728 110.526C39.9213 111.201 39.406 111.892 38.748 112.628C38.4012 113.004 38.0597 113.376 37.4359 113.849C37.1029 114.089 36.744 114.357 35.8906 114.734C35.4612 114.918 34.8531 115.147 33.9832 115.32C33.1329 115.501 32.03 115.527 31.6177 115.522C30.6027 115.705 29.3677 115.848 27.392 115.57C25.5086 115.297 22.2821 114.409 19.5165 111.809C19.043 111.357 18.4059 110.902 17.3186 109.315C16.7975 108.51 16.1006 107.259 15.7866 105.441C15.4484 103.631 15.7845 101.508 16.3588 100.176C16.3057 100.469 16.5713 99.8471 16.8879 99.2801C17.214 98.6827 17.6378 98.0382 18.0754 97.5029C18.9652 96.4094 19.8839 95.6865 20.7076 95.1677C22.3726 94.1497 23.5629 93.7821 24.6131 93.4201C26.862 92.5793 28.1041 92.5037 28.704 92.3192C29.3322 92.1565 29.6653 91.954 30.0131 91.6269C29.8699 91.6365 30.1347 91.3581 30.3345 91.0708C30.5549 90.7726 30.7918 90.4285 31.0229 90.0659C31.484 89.3408 31.9129 88.5484 32.331 87.7253C33.1725 86.0747 33.9813 84.2892 35.1856 82.4193C36.3326 80.6401 37.8068 78.807 39.9913 76.9522C42.0207 75.2327 44.2859 73.6665 46.8299 72.1448C47.4545 71.7728 48.0778 71.4138 48.8129 71.0036C49.1879 70.795 49.5651 70.5859 50.1491 70.2717C50.4612 70.1067 50.7646 69.9355 51.5015 69.5798C51.9108 69.3956 52.3197 69.1632 53.6153 68.7391C54.3371 68.5391 55.2082 68.1933 57.4213 68.107C58.475 68.0816 60.0979 68.1859 61.8551 68.7704C63.6541 69.3435 65.3675 70.4512 66.3392 71.3168C68.5278 73.3439 68.6944 74.065 69.0965 74.6414C69.4088 75.1814 69.5359 75.4592 69.6386 75.6766C69.8244 76.0837 69.859 76.2013 69.8711 76.2602C69.8825 76.3564 69.7561 76.1551 69.5356 75.858C69.1029 75.2645 68.1505 74.1053 66.6606 73.2083C66.6945 73.2667 65.6067 72.6794 64.9939 72.5273C64.3394 72.3357 64.0238 72.3342 63.8974 72.357C63.6592 72.4176 63.9911 72.5728 64.3724 72.6956C65.1806 72.9524 66.3338 73.1764 67.459 73.3685C72.0982 74.064 75.9882 74.6576 78.7476 74.495C81.4069 74.3363 84.5212 74.0934 87.377 73.7796C88.7966 73.6242 90.2674 73.4552 91.3093 73.2768C91.813 73.1941 92.1981 73.0882 92.0938 73.1082C92.0439 73.1206 91.8479 73.1809 91.5635 73.322C91.283 73.4576 90.9413 73.6837 90.787 73.8145C92.139 72.7984 92.4192 72.6245 93.2156 71.7211C93.2838 71.6392 93.3497 71.5507 93.4135 71.454C93.8782 71.1732 94.2527 68.7396 94.1933 66.094C94.1445 62.2433 93.7696 57.7575 93.5563 53.6461C93.3872 50.5815 93.3502 49.5288 93.0205 46.8216C92.9265 46.0833 92.8458 45.3397 92.7845 44.604C92.5616 41.891 92.1943 38.6673 91.8246 36.2658C91.4953 34.7897 91.1769 33.318 91.0252 32.4792C90.9533 32.0604 90.9501 31.8636 91.0859 31.8412C91.214 31.8167 91.4725 31.8656 91.4941 31.7287C90.7982 30.7897 88.8534 29.6661 87.0407 28.8108C84.0588 27.3645 81.1696 26.478 78.9259 25.8006C78.7071 25.735 78.4993 25.6724 78.2877 25.6116C71.7327 23.8273 69.6371 23.5292 62.9051 24.7278C62.8539 24.7376 62.8029 24.7474 62.752 24.7569C60.3261 25.221 57.732 25.2138 55.3744 25.572C53.3332 25.9439 51.208 26.1277 49.1159 26.0538C46.4888 25.972 46.4212 24.4041 48.4439 22.838C50.172 21.5072 51.9182 20.8251 53.2883 20.0168C54.414 19.3793 55.4801 18.773 56.2597 17.85C58.6304 15.1415 60.2346 13.7017 62.1852 13.3414C63.4368 13.1268 64.8523 13.3747 66.7155 14.1616C71.5141 16.2274 73.7812 11.4125 76.695 12.067C77.5761 12.2714 78.1764 12.6863 79.011 13.1265C80.63 14.0607 82.997 14.5782 90.4001 15.6278C91.7805 15.8492 93.3548 16.0956 95.3083 16.576C96.7452 16.9365 98.2447 17.4215 99.8212 18.2029C103.253 19.8725 105.719 23.4219 106.7 25.1185C107.813 26.9847 108.458 28.2219 109.108 29.377C111.901 35.0504 112.982 38.404 114.107 41.4819C114.449 42.4729 114.768 43.4768 115.052 44.4996C115.698 46.6918 115.863 50.1309 115.688 52.8509C115.453 57.1524 114.908 61.8662 114.709 66.7917C114.624 68.6643 114.554 70.5497 114.431 72.5962C114.326 74.2731 114.011 76.6846 112.991 79.3786C111.598 83.5146 107.807 88.4951 104.121 91.1772C102.489 92.4964 100.059 93.6457 98.3964 94.1204C96.6737 94.6401 95.4063 94.8403 94.2676 95.0154C92.0277 95.3378 90.27 95.4732 88.5881 95.6282C84.4113 95.9702 81.1968 96.1965 78.9121 96.6874C72.3994 98.0707 71.8972 95.4147 67.5296 93.5993C67.117 93.4473 66.6871 93.2992 66.2068 93.1554Z" fill="#84AE7D"/>
<path d="M77.6766 14.6239C79.2454 17.69 78.8855 20.3831 78.1926 22.3608C76.7375 25.776 75.7133 26.0082 75.0188 26.7347C74.3086 27.3123 73.7751 27.6614 73.2866 27.9827C72.3256 28.6044 71.5513 29.0636 70.8208 29.522C69.3664 30.4268 68.1109 31.2794 66.8937 32.1866C63.9139 34.3357 59.7151 36.5265 56.0287 37.7767C54.5352 38.2734 52.9754 38.6826 51.2617 38.9498C50.3993 39.082 49.5034 39.1801 48.4901 39.212C47.3707 39.201 46.6709 39.3465 44.1785 38.7646C41.6387 38.1112 39.0345 36.3766 37.6468 34.9469C36.2014 33.4994 35.5603 32.4733 35.115 31.8459C32.7268 27.6932 32.8266 25.8094 32.5254 24.1401C32.3405 22.5262 32.3386 21.3302 32.3715 20.244C32.692 14.2277 35.6018 11.0491 36.649 9.75953C37.3092 9.00971 37.7626 8.57841 38.1179 8.24658C42.7696 3.71323 45.874 2.96203 48.0786 2.10762C52.5269 0.184011 55.8638 0.171364 58.4885 0.0880232C61.9602 -0.160763 64.5212 0.182762 67.4909 0.320087C70.3526 0.477524 73.5792 0.565437 77.751 0.778903C78.9835 0.8453 80.2255 0.961432 81.4759 1.1323C86.7633 1.85975 91.5876 3.46107 95.8581 5.24398C99.5397 6.78539 102.857 8.48096 105.885 10.1509C106.9 10.7107 107.896 11.2794 108.968 11.9554C109.509 12.2985 110.06 12.6598 110.712 13.1424C111.04 13.3875 111.388 13.657 111.818 14.0365C112.261 14.4518 112.729 14.8026 113.613 16.0325C114.925 17.8619 115.348 20.3413 115.158 21.9629C114.99 23.6333 114.514 24.6951 114.109 25.4978C112.848 27.7956 111.674 28.5017 111.14 28.9764C110.534 29.4489 110.126 29.722 109.744 29.9842C108.994 30.4921 108.417 30.8688 107.874 31.242C107.075 31.7899 106.386 32.2959 105.795 32.7917C101.84 36.0599 99.1273 35.3479 95.2204 35.7572C92.9948 35.9733 90.4242 36.4992 86.7841 38.0119C84.8555 38.8086 83.0282 39.4412 81.2638 39.9435C77.7462 40.9433 74.4138 41.4271 71.1031 41.4573C67.6994 41.5022 64.15 40.9927 60.6586 39.9303C59.5755 39.71 58.796 39.3571 58.1492 39.0173C56.7544 38.2652 55.6796 37.4138 54.5405 36.5508C51.7793 34.7285 51.0418 31.8878 50.7292 30.1521C50.1751 27.3876 51.4057 25.7987 51.9695 24.958C52.6362 24.063 53.2262 23.495 53.776 22.9419C56.8826 19.9788 59.8466 18.9129 62.8479 17.4332C65.6068 16.1667 68.2173 15.5007 70.7242 14.8305C73.2093 14.1602 75.835 13.758 78.1242 13.5378C81.203 13.2344 83.9275 13.0421 86.286 12.8205C87.3859 12.7182 88.5102 12.6312 89.5466 12.5972C91.2062 12.5367 92.8423 12.7887 94.2824 13.14C98.4099 14.1709 102.038 16.1261 105.304 18.3632C109.026 20.935 112.011 23.8267 114.431 26.0423C114.776 26.3583 115.111 26.6619 115.434 26.9508C117.087 28.4216 118.211 29.835 118.92 30.9885C119.224 31.479 119.176 31.8992 118.95 32.1441C118.95 32.1442 118.95 32.1444 118.95 32.1445C118.666 32.4489 118.108 32.484 117.563 32.0697C116.269 31.0786 114.559 30.0416 112.413 29.0655C110.178 28.0435 107.526 27.063 104.574 26.3422C103.527 26.0871 102.587 25.8489 101.731 25.6177C97.301 24.4617 94.9049 23.1214 91.5824 21.7571C89.9023 21.1113 88.6424 20.6569 86.1034 20.6899C84.4371 20.6962 82.4672 20.8221 80.2447 21.1563C79.7194 21.2362 79.2062 21.3232 78.712 21.4177C76.4802 21.8358 74.7717 22.4232 73.0037 23.214C70.7264 24.1926 68.6151 25.2557 67.3642 26.2553C65.1403 27.7783 62.4169 29.8714 62.3123 30.3925C61.9447 30.8653 61.641 31.3017 61.6717 31.3111C61.6868 31.2986 61.8151 31.1815 62.0436 30.597C62.2577 30.06 62.5819 28.7018 62.1862 27.1941C62.2723 27.5166 62.3598 27.6599 62.2355 27.4229C62.131 27.2164 61.6159 26.4625 60.7238 25.9775C61.3462 26.3691 61.936 26.7446 62.3487 27.001C62.7276 27.2695 63.0648 27.3289 62.2277 27.248C63.1646 27.4468 64.047 27.6331 64.9785 27.8023C66.7488 28.1249 68.3993 28.1573 69.9396 28.005C73.0027 27.7002 75.5503 26.8049 77.9871 25.7139C81.556 24.0964 84.8544 22.1215 88.9981 20.1202C91.7139 18.7883 95.1665 17.2853 99.1892 15.7237C99.6629 15.5401 100.14 15.3528 100.456 15.2548C100.605 15.2131 100.727 15.1758 100.625 15.3133C100.569 15.3898 100.45 15.5053 100.162 15.8285C99.901 16.1163 99.3163 16.8572 98.9645 17.6133C98.7108 18.1809 98.3516 18.9981 98.237 20.4271C98.0995 21.8078 98.5135 24.0447 99.7027 25.6421C100.226 26.3308 100.445 26.4617 100.606 26.5889C100.761 26.6978 100.833 26.7174 100.873 26.7136C101.021 26.6335 100.568 26.1686 100.153 25.8041C99.7157 25.4198 99.2034 25.0332 98.6765 24.6667C95.6909 22.6289 92.8392 21.2862 90.2508 20.4255C85.82 18.9629 82.0712 18.856 78.5238 19.3201C75.3724 19.7469 71.9735 20.5409 68.0099 21.4435C66.2475 21.8339 64.1439 22.3218 63.6809 22.6991C62.4055 23.1387 61.4254 23.5704 61.201 23.7718C61.1198 23.8362 61.0991 23.8748 61.0898 23.9028C59.0733 25.1472 57.8967 26.1869 58.2232 25.8909C57.7223 26.4436 57.4185 26.835 57.6964 26.4452C57.8873 26.1432 59.1774 24.3096 59.2872 21.2608C59.2533 21.6644 59.2513 21.9599 59.2217 21.8159C59.2021 21.7348 59.1818 21.5414 59.0594 21.0445C58.9139 20.5426 58.7566 19.7251 57.8278 18.1586C57.7752 18.1195 57.5625 17.6764 56.6263 16.6941C55.7469 15.7336 53.7185 14.3001 51.7604 13.7708C51.3434 13.6523 51.1755 13.6262 51.0478 13.6041C50.9259 13.5847 50.8656 13.5813 50.8299 13.5817C50.7618 13.5836 50.7883 13.6016 50.8403 13.6193C50.9509 13.6564 51.1724 13.6965 51.414 13.7268C51.9066 13.7886 52.4992 13.8167 53.0895 13.8084C54.2916 13.7468 54.8214 13.7309 55.5582 13.6251C56.2626 13.5234 57.0355 13.3383 57.8874 13.0503C59.1653 12.5631 60.3978 12.0812 61.3486 11.6891C61.8116 11.5016 62.2229 11.3158 62.317 11.3144C62.3528 11.3265 62.3203 11.3604 61.9896 11.6807C61.8214 11.8498 61.5751 12.0822 61.1521 12.6006C60.746 13.1459 60.0647 13.8865 59.3432 15.9165C58.6549 18.1891 58.2043 21.4701 60.8792 25.3596C61.7601 26.5607 63.4636 27.8167 65.0542 28.2726C65.9275 28.5508 66.0691 28.5412 66.2772 28.5825C66.4484 28.6084 66.5304 28.6124 66.5838 28.6129C66.6881 28.6126 66.6835 28.5953 66.6569 28.5788C66.5958 28.544 66.425 28.5054 66.234 28.4733C65.8444 28.4083 65.3535 28.3637 64.8475 28.3397C63.8275 28.2917 62.7291 28.3219 61.6455 28.4113C60.6316 28.4617 59.8069 28.6292 59.4923 28.6912C57.9272 29.3093 57.6321 29.4499 56.9367 29.9847C55.8641 30.8843 55.1156 31.5656 54.6831 32.0638C54.2585 32.5247 54.1015 32.93 54.4058 32.4464C54.4866 32.3174 54.4325 32.5719 54.5 32.4207C54.5252 32.3386 54.5824 32.1737 54.5832 31.6466C54.5468 31.1225 54.612 30.1536 53.617 28.2591C53.1876 27.2984 51.2397 25.1116 49.2505 24.3844C47.7217 23.7607 46.817 23.7679 46.5244 23.7356C46.2003 23.7191 46.2229 23.7219 46.3138 23.7016C48.6657 23.4223 50.2086 23.0051 51.3596 22.4199C53.1026 21.599 54.5674 20.8017 55.7112 20.0067C56.9729 19.1444 58.2203 18.2672 59.3333 17.4288C59.8849 17.0132 60.4073 16.6017 60.8043 16.2652C61.0005 16.0993 61.1641 15.9518 61.2426 15.8774C61.3123 15.8196 61.3275 15.7652 61.0049 16.1816C61.2347 15.898 61.0711 16.0307 60.7454 16.7292C60.416 17.4044 60.0924 18.7154 60.1351 19.7311C60.1406 19.313 60.1251 18.9813 60.1407 19.0542C60.1537 19.1003 60.1662 19.2484 60.2876 19.6996C60.4376 20.1518 60.5806 20.9475 61.6552 22.4858C61.3981 22.0757 61.5637 22.4275 62.4005 23.0009C63.2088 23.5981 64.8764 24.1259 65.9138 24.068C64.6399 23.9713 63.5384 24.0003 63.0034 24.0369C62.7975 24.0465 62.6908 24.0587 62.729 24.0118C62.1444 24.2323 61.7372 24.4184 61.5392 24.5179C61.3353 24.6211 61.3458 24.6132 61.3814 24.5541C58.9903 26.8613 59.6738 26.8287 59.9764 25.5138C59.7391 26.8287 59.5744 28.0934 59.5576 28.8957C59.545 29.2828 59.5846 29.5568 59.5901 29.421C59.5632 29.297 59.6303 28.6254 58.6906 27.1093C57.9227 25.6939 55.4711 24.2419 53.7932 24.232C55.259 24.2418 56.8195 23.9248 58.833 23.2226C61.1431 22.4252 63.4249 21.4664 64.9724 20.5812C66.2347 19.8727 67.4882 19.1705 68.6244 18.514C69.1891 18.1875 69.7318 17.8661 70.113 17.627C70.2944 17.5147 70.451 17.4063 70.3857 17.4567C70.3427 17.4938 70.2595 17.5439 69.9091 17.8664C69.7308 18.0383 69.4708 18.2697 68.9889 18.8668C68.7256 19.2053 68.414 19.6032 67.9725 20.4166C67.575 21.2303 66.8277 22.5357 66.724 25.2211C66.8599 25.8321 66.2574 27.2587 68.8579 30.746C68.6043 30.4351 68.6226 30.4541 68.6824 30.5135C68.7506 30.582 68.899 30.7309 69.106 30.9041C69.5168 31.2542 70.1937 31.6989 70.935 31.986C71.5221 32.213 71.6799 32.2243 71.7995 32.2484C71.9072 32.2643 71.9246 32.2554 71.9123 32.2443C71.8821 32.22 71.7296 32.1834 71.5521 32.1575C71.1882 32.1035 70.7073 32.0835 70.2275 32.1034C69.3905 32.1712 69.3515 32.0977 68.916 32.1707C68.8278 32.1882 68.7271 32.2159 68.6125 32.2565C66.9476 33.0573 65.8625 33.7215 64.8357 34.7261C63.1205 36.6432 61.5115 38.7675 60.6531 40.3071C59.8567 41.94 59.6542 42.1951 59.4371 43.2377C59.3285 44.0856 59.2607 44.9103 59.2323 45.487C59.2146 45.7655 59.2169 45.9919 59.1672 45.9581C59.1381 45.9359 59.1006 45.8469 58.9656 45.5776C58.8144 45.3109 58.6283 44.833 57.8164 43.9758C57.5362 43.7074 56.7348 42.8903 55.2364 42.3484C53.724 41.8388 52.9482 41.9853 52.941 41.9766C53.868 42.1875 56.4558 41.8156 58.5737 41.2868C61.9879 40.4661 65.4349 39.138 68.7331 37.6971C73.4494 35.6152 78.3302 33.1946 81.2781 31.551C81.3329 31.523 81.3705 31.5053 81.3539 31.5356C81.341 31.5557 81.3234 31.5777 81.2472 31.6649C81.2102 31.7084 81.1691 31.7554 81.0844 31.8617C81.0038 31.9681 80.9107 32.0756 80.715 32.4061C80.6208 32.5772 80.5324 32.7134 80.3653 33.1611C80.2322 33.6272 80.0239 33.9675 80.1262 35.2781C80.2146 36.4703 81.116 37.9286 82.0429 38.5297C82.2646 38.6897 82.5011 38.8253 82.6793 38.9134C82.8327 38.9898 82.9778 39.0515 83.1136 39.1025C83.3854 39.2042 83.6194 39.2642 83.8205 39.3047C83.9212 39.3248 84.0138 39.3398 84.0995 39.3514C84.1647 39.3601 84.2227 39.3665 84.2791 39.3716C84.3911 39.3819 84.4898 39.3867 84.5781 39.3887C84.7534 39.3926 84.8961 39.3843 84.974 39.3778C85.1492 39.3637 85.2794 39.341 85.3421 39.3278C85.625 39.2653 85.5963 39.2475 85.5909 39.24C85.4715 39.2257 85.0386 39.3413 84.679 39.445C83.9224 39.6656 83.1385 39.9323 82.4087 40.1868C82.3131 40.2201 82.2171 40.254 82.1209 40.2882C77.1561 42.0601 73.6671 43.8016 70.6632 45.5622C66.3631 48.1446 62.9354 50.7391 58.3813 55.2853C57.4521 56.2295 56.4929 57.2599 55.5113 58.4149C54.353 59.7782 53.1468 61.2312 51.9477 62.811C50.7834 64.3451 49.6523 65.8523 48.8178 67.3777C47.2971 70.1982 45.9531 72.5786 45.5091 75.2505C45.1263 77.9342 44.563 80.7303 44.3554 82.9828C44.3448 83.106 44.3425 83.2218 44.3223 83.2643C44.3097 83.2841 44.2983 83.2848 44.2319 83.2286C44.1743 83.1819 43.9691 82.9994 43.6447 83.0036C45.2365 83.4904 45.7896 83.9405 46.0626 84.3113C45.8443 84.8737 45.0871 85.3357 43.5289 85.6348C42.7424 85.6147 42.2615 85.1405 42.0647 84.9088C41.8475 84.6482 41.7569 84.4685 41.6749 84.317C41.5169 84.0074 41.4324 83.7769 41.3515 83.5461C41.198 83.1015 41.0924 82.6796 41 82.2446C40.4728 79.5927 40.4038 77.2974 40.3209 75.1337C40.236 70.3156 42.1009 66.8627 42.1799 64.1939C42.2049 63.9853 42.2274 63.7787 42.2465 63.5745C42.5456 60.6584 43.1618 58.4055 43.7769 56.5135C45.091 52.7943 47.1878 49.9194 51.0552 47.1977C52.1514 46.4291 53.3862 45.6806 54.8019 44.9274C59.7239 42.3322 62.2135 39.3863 64.4828 36.6168C66.3975 34.2943 68.122 32.1621 70.709 30.9741C72.8025 30.0243 74.3164 29.8119 76.7183 29.1551C77.4821 28.9485 78.3282 28.7006 79.4025 28.3649C79.9597 28.192 80.5128 28.0111 81.4038 27.7464C81.6395 27.6776 81.8899 27.6041 82.2802 27.5056C82.4735 27.4581 82.7069 27.3999 83.0798 27.3312C83.2907 27.294 83.4689 27.2616 83.8647 27.2211C84.2165 27.1981 84.7221 27.1162 85.8452 27.2684C86.2143 27.3242 86.6497 27.413 87.173 27.5894C87.6976 27.7803 88.2714 27.9723 89.2527 28.6762C91.1972 29.9087 92.5789 33.2701 92.2899 35.207C92.1703 36.775 91.74 37.6149 91.5001 38.1253C91.2771 38.5679 91.0715 38.8826 90.8902 39.1394C90.3014 39.9398 90.0397 40.1419 89.8016 40.3778C89.3485 40.794 89.128 40.9502 88.8699 41.1457C85.0498 43.7025 81.533 45.8096 75.3069 49.7323C73.2404 51.0013 70.9154 52.4017 68.1135 53.8615C66.6399 54.6277 65.1243 55.3401 63.6132 55.9703C60.4968 57.2041 57.7871 58.3349 53.2444 58.7206C52.8622 58.7131 51.551 58.8754 49.4284 58.1383C47.3248 57.3665 46.1128 56.1696 45.5348 55.5868C42.9178 52.571 42.9455 51.1936 42.4975 49.9725C42.1776 48.7862 42.034 47.8888 41.916 47.0545C41.6939 45.4044 41.6255 44.0545 41.5884 42.7602C41.459 39.4163 42.4985 35.5245 43.2052 33.53C44.9214 28.7357 46.8972 25.7024 48.7235 22.8868C51.3075 19.0648 54.6662 16.2668 57.3687 14.4398C60.1464 12.4896 63.9858 11.1463 66.5337 10.6827C69.616 10.0882 72.3755 9.88153 75.8083 10.3682C76.7413 10.5318 77.6266 10.6447 79.4529 11.3539C82.5702 12.4701 85.5178 15.6141 86.0072 16.324C89.46 20.8449 89.0386 23.7661 89.1292 25.6774C88.6594 30.9625 87.1909 31.6357 86.6963 32.5957C86.0567 33.4233 85.673 33.7847 85.3219 34.1269C84.669 34.7411 84.2862 35.0249 83.9329 35.293C83.2489 35.7995 82.7832 36.0916 82.3336 36.3718C81.4527 36.9139 80.708 37.3231 79.9633 37.7234C78.4825 38.5149 77.0438 39.2275 75.5552 39.9545C72.0334 41.7058 68.7106 42.7742 65.2979 43.7112C61.6517 44.7215 57.2243 45.4521 52.689 45.0856C48.4993 44.9757 43.6569 42.1422 41.5091 38.6191C38.2017 32.8509 39.1441 30.0471 39.0797 27.6472C39.2383 25.2916 39.5557 23.4386 39.8477 21.6939C40.5269 17.8769 42.4544 14.8874 43.9486 12.996C44.8535 11.8362 45.8493 10.8033 46.1347 10.4343C48.5969 7.6384 51.8068 5.82546 54.1518 4.74893C58.8691 2.67223 62.7933 2.5296 66.3473 2.52236C69.1226 2.5111 72.5311 3.59537 74.8211 5.2508C77.148 6.87132 78.5012 8.67914 79.2936 9.75057C81.8529 13.7322 81.5041 15.2149 81.8008 16.5486C81.9469 17.8197 81.9619 18.6942 81.9787 19.4812C82.178 24.1193 79.3478 28.3415 78.4505 29.4243C76.8472 31.4555 75.9733 32.1028 75.0363 32.9462C74.1281 33.7249 73.303 34.3701 72.4953 34.9822C70.8834 36.199 69.3548 37.2615 67.8432 38.2845C65.1494 40.0933 62.5299 41.386 60.2335 42.4402C55.7927 44.4668 51.4147 45.1188 48.2234 45.4767C46.9335 45.4596 45.6373 46.219 40.8829 44.5845C38.0367 43.5446 35.3968 40.6572 34.5661 39.0043C31.6228 32.8498 32.8398 30.6058 32.9604 28.3685C33.3323 26.2299 33.835 24.6108 34.6559 22.7655C36.1289 19.6735 37.5212 18.1118 38.5797 16.7926C40.0582 15.0317 41.2139 13.9249 42.093 13.0666C44.9159 10.3976 48.1595 8.81831 49.92 8.1913C53.3447 6.85706 55.7127 6.75982 57.9652 6.792C59.5646 6.88408 61.161 7.08225 63.015 7.36131C63.9417 7.50282 64.9369 7.66409 66.0737 7.87131C66.6444 7.97585 67.2508 8.09085 67.9518 8.23682C68.3084 8.31087 68.6835 8.39132 69.1448 8.49748C69.3751 8.55096 69.6339 8.61124 69.9568 8.6933C70.3112 8.79088 70.5921 8.83328 71.5944 9.18446C73.7073 9.99594 75.8567 11.7138 77.0982 13.6785C77.319 13.9948 77.5099 14.3105 77.6766 14.6239Z" fill="#84AE7D"/>
<path d="M97.3883 126.174C96.7431 126.364 96.0997 126.549 95.4526 126.731C90.9648 128.003 87.051 128.328 83.5056 128.667C77.7989 128.706 75.282 126.927 72.8834 126.033C68.1464 123.691 66.0723 118.689 65.3368 117.575C63.8444 114 63.7296 112.5 63.2945 110.71C62.9365 109.015 62.6561 107.497 62.3885 106.008C61.8491 102.002 61.9463 97.6969 63.1522 93.1719C64.7812 88.3903 65.9277 86.8612 67.0415 84.7351C70.6395 79.4947 72.6932 78.3895 74.8371 76.4795C77.5005 74.2688 81.1108 72.5473 83.8433 71.7568C84.3815 71.5928 84.8763 71.4566 85.3268 71.3397C90.905 69.6324 99.0041 70.0479 104 72.891C111.114 76.7838 111.843 80.7362 113.039 83.3446C114.001 86.0814 114.327 88.3048 114.528 90.3994C114.912 93.9061 114.522 95.3717 114.319 97.1773C114.073 98.8746 113.782 100.437 113.536 101.84C113.105 105.629 111.664 110.731 109.896 114.465C108.585 117.372 107.342 120.309 104.415 124.297C102.767 126.435 100.735 128.616 98.0381 130.617C97.9504 130.681 97.8593 130.748 97.7705 130.812C94.8641 132.857 91.8361 134.287 87.8989 134.995C86.1018 135.289 83.9618 135.486 81.4 135.067C78.8541 134.7 76.0498 133.317 74.5845 132.265C70.3466 129.027 70.1002 126.841 69.3434 125.635C68.369 123.491 68.3866 122.726 68.2216 121.9C68.1068 121.13 68.0606 120.534 68.0259 119.986C67.9616 118.9 67.9577 118.005 67.962 117.139C67.9754 115.427 68.0385 113.887 68.1004 112.383C68.1078 108.309 69.9602 103.793 71.2087 101.629C73.3563 97.6033 75.9172 95.1795 78.0719 93.1546C80.4209 90.8742 83.77 89.2201 85.9447 88.54C89.0454 87.5837 89.9545 87.843 91.1715 87.7644C92.2856 87.7586 93.1926 87.7968 94.0351 87.8272C95.3868 87.8423 97.5715 88.2697 99.3217 89.4046C101.069 90.5264 101.826 91.6082 102.141 91.9586C105.944 97.5391 104.834 99.9881 105.061 102.253C105.006 104.444 104.794 106.155 104.619 107.696C104.318 109.607 103.808 111.014 103.362 112.173C101.56 116.485 99.9063 118.161 98.7196 119.533C95.6564 123.025 92.916 124.087 90.17 125.442C87.3901 126.936 84.0006 128.137 80.1703 128.983C78.1362 129.489 75.5236 129.68 72.9943 129.196C68.8915 128.318 67.2529 125.509 66.4096 124.442C66.2797 124.249 66.1628 124.06 66.0571 123.877C64.783 121.472 64.7492 120.354 64.4789 119.23C64.2706 118.147 64.1413 117.239 64.0214 116.366C63.5486 112.55 63.6793 109.013 64.5848 105.334C65.725 101.22 67.4892 98.8833 68.78 96.8537C70.7476 93.8432 73.1425 91.7216 75.2783 90.0315C78.1061 87.7338 81.4241 86.2343 84.8569 85.4752C87.9496 84.7207 91.102 85.0935 93.4914 85.7353C93.5952 85.7623 93.6981 85.7896 93.7973 85.8164C96.4789 86.4015 97.7096 87.8646 98.5623 88.8496C99.4104 89.8986 99.9561 90.8525 100.475 91.7682C102.48 95.6977 101.786 97.625 101.987 99.8215C102.231 103.667 100.969 108.673 98.5345 112.186C97.539 113.923 95.5883 114.699 94.8641 114.896C93.82 115.299 92.3242 115.11 91.5022 114.62C90.6427 114.146 90.2024 113.605 89.872 113.12C89.4207 112.403 89.3932 112.141 89.299 111.862C89.2296 111.616 89.1923 111.427 89.1625 111.261C89.1052 110.931 89.0799 110.682 89.0583 110.442C89.0172 109.966 89.0025 109.561 88.9915 109.159C88.9716 108.362 88.9749 107.608 88.9813 106.859C88.9958 105.36 89.0275 103.887 89.0508 102.402C89.1175 98.0577 90.733 94.096 93.3352 90.8148C94.0201 89.8426 95.5682 89.3242 95.7769 89.3097C96.6256 89.0374 98.0533 89.1709 98.8228 89.577C101.9 91.1403 102.372 93.6978 102.879 95.1893C103.333 96.8288 103.593 98.2879 103.864 99.7228C104.134 101.181 104.301 102.639 104.352 104.103C104.377 104.833 104.374 105.569 104.331 106.315C104.309 106.69 104.277 107.065 104.228 107.465C104.203 107.663 104.173 107.871 104.131 108.102C104.109 108.217 104.087 108.333 104.048 108.495C104.031 108.566 104.006 108.663 103.969 108.785C103.945 108.861 103.93 108.91 103.879 109.046C103.775 109.221 103.937 109.203 103.245 110.086C103.088 110.26 102.877 110.462 102.569 110.66C102.281 110.853 101.66 111.131 101.037 111.162C100.397 111.211 99.7452 111.031 99.3148 110.8C98.9491 110.608 98.6987 110.395 98.5153 110.212C97.9375 109.588 97.9231 109.375 97.8279 109.204C97.6897 108.878 97.6712 108.767 97.6396 108.657C97.5883 108.452 97.5739 108.354 97.5581 108.259C97.5299 108.078 97.518 107.957 97.5073 107.836C97.488 107.597 97.4783 107.395 97.4861 107.108C97.4834 106.806 97.5933 106.184 97.6879 105.914C97.7837 105.606 97.8648 105.414 97.9366 105.243C98.0801 104.908 98.2019 104.66 98.3193 104.421C98.5554 103.945 98.7741 103.528 98.994 103.111C100.492 100.29 101.842 97.7705 102.934 95.5257C103.601 94.1481 103.783 93.318 103.918 92.2269C104.02 91.3741 104.122 90.3849 104.244 89.3582C104.546 86.3029 104.858 82.7005 105.299 79.2439C105.515 77.5124 105.736 75.8062 105.798 74.4052C105.804 74.1641 105.826 74.332 105.849 74.3478C105.871 74.3685 105.86 74.2492 105.826 74.0852C105.757 73.7498 105.627 73.2815 105.496 72.8248C105.226 71.889 104.935 70.9221 104.647 69.9518C102.535 62.8799 100.797 56.1108 99.125 50.8482L99.1775 50.961C98.8709 50.1762 98.5687 49.431 98.2672 48.7256C97.0274 45.905 96.0915 43.2659 95.1621 42.083C95.159 42.0808 95.1504 42.0738 95.1474 42.0716C94.9423 41.8504 94.7624 41.6438 94.5859 41.4442C93.977 40.7547 93.8367 40.235 94.0373 39.9665C94.0374 39.9664 94.0376 39.9662 94.0377 39.966C94.2842 39.6338 95.0765 39.7061 96.0427 40.4197C96.1304 40.484 96.2175 40.5476 96.3035 40.609L96.2881 40.5971C98.8893 42.9283 100.215 45.9196 102.459 49.3059C102.468 49.3249 102.496 49.3813 102.503 49.4009C104.499 53.0829 106.793 57.2366 109.414 61.6923C110.527 63.5857 111.483 65.3121 112.315 66.9151C112.846 67.9424 113.329 68.9179 113.776 69.9183C114 70.4257 114.217 70.927 114.44 71.5741C114.552 71.906 114.672 72.291 114.771 72.802C114.874 73.312 114.91 73.8965 114.923 74.1508C115.042 76.5051 114.835 78.3738 114.611 80.2182C114.164 83.5381 113.694 86.6877 112.756 91.1033C112.489 92.2369 112.23 93.4392 111.783 94.9192C111.353 96.4035 110.538 98.1483 109.751 99.4967C108.506 101.698 107.12 104.168 105.726 106.922C105.568 107.238 105.414 107.551 105.279 107.846C105.212 107.992 105.15 108.132 105.104 108.248C105.061 108.354 105.026 108.468 105.074 108.379C105.094 108.337 105.134 108.25 105.187 108.051C105.241 107.869 105.285 107.497 105.288 107.43C105.298 107.31 105.303 107.31 105.307 107.256C105.307 107.226 105.31 107.197 105.296 107.082C105.287 107.017 105.282 106.948 105.229 106.726C105.193 106.602 105.179 106.481 104.996 106.048C104.865 105.817 104.858 105.534 104.033 104.653C103.771 104.397 103.424 104.104 102.895 103.832C102.28 103.51 101.363 103.272 100.473 103.349C99.6061 103.399 98.7431 103.792 98.3524 104.057C97.9254 104.332 97.6334 104.612 97.4162 104.852C97.1147 105.192 96.9812 105.416 96.8764 105.59C96.7763 105.761 96.7125 105.895 96.69 105.943C96.6285 106.073 96.5921 106.163 96.5637 106.236C96.5168 106.357 96.5002 106.408 96.4826 106.461C96.4568 106.537 96.4466 106.57 96.4401 106.586C96.4274 106.617 96.4269 106.6 96.4263 106.576C96.4261 106.524 96.4308 106.433 96.4337 106.335C96.44 106.138 96.4421 105.903 96.4369 105.666C96.4269 105.189 96.3912 104.687 96.3333 104.183C96.2174 103.176 96.015 102.171 95.7469 101.197C95.3796 99.7889 94.9973 98.4195 94.6019 97.474C94.4135 97.015 94.1951 96.6713 94.1512 96.7245C94.1331 96.7489 94.1769 96.8892 94.348 97.1025C94.5137 97.3144 94.8237 97.5745 95.1149 97.7339C95.7132 98.1155 97.3872 98.2913 98.0935 98.0541C97.9341 98.1019 98.2553 98.0666 98.8233 97.7995C99.3919 97.5414 100.084 96.9942 100.47 96.5087C99.4148 98.2958 98.8878 100.671 99.187 102.294C99.305 103.736 99.4135 105.169 99.5317 106.545C99.5911 107.231 99.6535 107.906 99.7262 108.488C99.762 108.773 99.8027 109.042 99.8379 109.182C99.8538 109.244 99.8729 109.285 99.8611 109.17C99.8534 109.109 99.841 109.009 99.7772 108.77C99.6693 108.486 99.7188 108.234 98.9461 106.994C98.5295 106.391 97.9633 105.646 96.649 104.915C95.406 104.157 92.9163 103.829 91.2538 104.484C91.4073 104.421 91.1813 104.444 90.6413 104.759C90.1094 105.057 89.3128 105.785 88.884 106.527C90.0552 104.206 90.2304 103.193 90.0916 100.8C90.0107 99.8284 89.941 98.898 89.8652 98.2736C89.8299 97.9676 89.7876 97.7425 89.7904 97.7306C89.8006 97.7139 89.8382 97.9589 90.2168 98.5311C89.851 97.9409 89.5121 97.4444 89.4047 97.2908C89.3614 97.2177 89.3724 97.2441 89.6491 97.44C89.9188 97.6162 90.5551 98.0624 91.773 98.2557C90.0657 97.8868 89.2945 97.8409 88.6369 97.8988C88.2839 97.9734 87.9325 98.0608 87.5854 98.1612C86.2036 98.5612 85.063 99.1817 84.1636 99.9339C82.3117 101.51 81.1111 102.861 80.4412 104.106C79.133 106.326 78.3345 108.169 78.3703 108.962C78.1552 110.8 78.3397 113.06 78.8519 115.048C79.022 115.836 79.2026 116.597 79.3826 117.105C79.4698 117.351 79.563 117.534 79.6044 117.491C79.6254 117.442 79.6823 117.157 79.1423 116.189C79.3628 116.438 79.4256 116.339 79.0599 115.886C78.7257 115.465 77.6315 114.497 75.9507 114.121C76.142 114.006 75.8756 113.881 75.9765 113.759C77.6778 113.1 78.7586 112.446 79.7466 111.615C81.4929 110.233 83.0814 108.838 83.6306 108.146C84.6283 106.873 85.5053 105.833 86.1319 105.017C86.7732 104.245 87.0316 103.562 86.9382 104.312C87.2371 103.236 87.4878 102.157 87.6329 101.409C87.7093 101.048 87.7446 100.764 87.8207 100.824C87.9371 100.873 87.9203 101.405 89.0488 102.746C88.9219 102.51 89.1756 102.911 90.1847 103.571C91.1903 104.243 92.6454 104.58 93.314 104.564C93.4134 104.566 93.5013 104.565 93.5836 104.562C92.7585 104.449 92.0069 104.351 91.4565 104.285C91.186 104.252 90.964 104.228 90.8905 104.2C90.8351 104.157 90.8564 104.176 91.5566 103.902C90.7605 104.101 90.5072 104.145 90.1636 104.261C89.8467 104.368 89.5687 104.502 89.2871 104.696C87.3871 106.275 86.1062 107.71 85.5497 108.739C84.4125 110.903 84.3281 111.436 84.3286 112.643C84.3434 114.253 84.3862 115.78 84.4918 117.12C84.5445 117.783 84.6155 118.408 84.7056 118.858C84.7494 119.077 84.8014 119.256 84.8353 119.275C84.8509 119.282 84.863 119.247 84.8423 119.107C84.8145 118.96 84.7842 118.725 84.523 118.145C84.8321 118.648 85.0785 118.968 85.1658 118.98C85.2362 119.005 85.1788 118.609 84.2765 117.885C84.873 118.099 84.4555 117.677 84.3638 117.54C84.2521 117.373 84.5241 117.249 85.0328 116.993C85.4921 116.611 86.4962 115.858 86.9875 115.079C87.6087 114.274 88.2048 113.282 88.7136 112.124C88.9509 111.243 89.7572 109.061 90.2423 106.873C90.97 104.083 90.8808 103.31 90.7781 101.009C90.7486 99.4886 90.7352 98.1636 90.6859 96.9662C90.6616 96.3762 90.6274 95.8239 90.5821 95.4183C90.5599 95.2182 90.5343 95.0554 90.5139 94.9881C90.4961 94.9267 90.4722 94.9402 90.5224 95.2642C90.4243 94.8956 90.3188 94.5556 90.2169 94.2758C90.0539 93.8078 89.8508 93.4889 89.9534 93.7314C90.1236 93.9033 90.376 95.1354 93.4907 96.6839C93.3812 96.6479 93.5581 96.7291 93.7037 96.7629C93.8574 96.8029 93.9974 96.8149 94.0314 96.8163C94.1119 96.8158 93.7562 96.8216 93.1177 97.0103C91.5428 97.4929 91.8272 97.4511 91.6612 97.4993C90.7865 98.1778 89.9747 98.8206 89.4104 99.2983C89.1315 99.533 88.9184 99.7259 88.8386 99.7935C88.7588 99.854 88.8203 99.8095 89.1125 99.3544C88.558 100.151 88.0453 100.895 87.676 101.459C87.4928 101.737 87.3474 101.969 87.2738 102.082C87.2004 102.187 87.203 102.196 87.3274 101.818C86.8791 102.833 86.5589 104.176 86.4926 105.568C86.4692 106.849 86.4582 108.084 86.4762 109.054C86.484 109.533 86.5028 109.949 86.5074 110.151C86.5084 110.249 86.5064 110.291 86.4747 110.209C86.4388 110.122 86.3884 109.921 86.1769 109.408C86.5245 110.435 86.5718 110.46 86.1997 109.895C85.8518 109.337 84.7681 108.149 83.6049 107.553C84.2324 107.971 84.7545 108.274 84.8402 108.352C84.9376 108.457 84.4397 108.194 82.983 108.252C85.6423 108.336 87.7465 108.171 89.0495 107.866C90.5412 107.458 92.0987 106.911 93.4509 106.339C94.9349 105.71 96.3466 104.972 97.6875 104.135C99.185 103.201 100.143 102.469 101.382 101.265C103.275 99.4081 105.061 97.358 105.652 96.4733C106.467 95.1653 107.171 93.9709 107.553 93.2061C107.745 92.826 107.85 92.5703 107.891 92.4793C107.932 92.3826 107.92 92.4615 107.927 92.5519C108.131 89.8144 108.251 87.416 108.125 86.2512C108.098 85.8723 107.988 85.6067 108.121 86.1303C107.838 85.2768 107.506 84.471 107.318 84.1434C107.242 83.996 107.162 83.9606 107.467 84.3835C107.832 84.6824 108.414 86.2296 112.307 87.1492C111.579 87.0431 111.234 87.102 111.145 87.1423C111.055 87.1931 111.348 87.1475 111.539 87.0296C110.446 87.8891 109.151 89.3433 108.127 91.0422C107.411 92.2128 106.786 93.452 106.194 94.8693C105.842 95.7024 105.523 96.4853 105.277 97.155C105.035 97.7942 104.856 98.4575 104.906 98.3273C104.497 100.417 104.455 102.172 104.73 103.796C104.911 104.899 105.106 105.951 105.257 106.539C105.324 106.815 105.402 106.985 105.29 106.699C105.106 106.447 105.045 105.449 102.681 103.568C102.356 103.308 100.961 102.432 99.5355 102.083C98.1017 101.704 96.9445 101.734 96.237 101.8C96.9149 101.743 97.321 101.643 96.9623 101.73C96.7985 101.774 96.4722 101.893 96.2181 102.026C95.9596 102.158 95.8016 102.274 95.7864 102.287C97.2195 101.237 98.0359 100.394 98.943 99.1328C100.698 96.717 101.924 94.2291 101.882 94.1692C101.966 94.524 101.972 92.4967 101.76 90.3757C101.573 88.2694 101.391 86.2209 101.186 84.2036C100.929 81.6771 100.591 79.0676 100.156 76.9935C99.8583 75.6084 99.5299 74.2299 99.1793 72.9645C99.0051 72.3356 98.8203 71.7228 98.6588 71.2487C98.5815 71.0192 98.5 70.8069 98.4903 70.7827C98.4932 70.7826 98.4915 70.8009 98.6531 71.1034C98.7461 71.262 98.8388 71.4778 99.319 72.1301C99.6525 72.5177 99.8291 72.9537 101.382 74.1514C101.848 74.489 102.442 74.8684 103.258 75.2289C104.238 75.6644 105.797 76.1408 107.641 76.0856C109.627 76.081 112.059 75.1715 113.46 74.0651C114.766 73.0871 115.561 72.0336 116.077 71.1876C117.372 68.8132 117.13 68.4457 117.253 68.1248C117.297 67.855 117.291 67.8445 117.29 67.8658C117.283 67.9313 117.267 68.1918 117.258 68.4711C117.237 69.0403 117.228 69.7412 117.225 70.4479C117.221 74.5017 117.325 78.9205 117.6 82.9149C117.759 85.3174 118.082 87.91 118.349 88.531C118.592 89.3086 118.853 90.0466 118.996 90.351C119.05 90.4824 119.12 90.5336 118.845 90.0603C118.687 89.8153 118.466 89.4157 117.727 88.6718C117.009 87.9923 115.439 86.5605 112.429 86.1059C111.621 86.009 109.552 85.7669 106.941 87.631C106.887 87.6651 107.012 87.5589 107.123 87.4483C107.24 87.3339 107.377 87.1939 107.511 87.0472C107.781 86.7523 108.045 86.4287 108.267 86.1201C108.715 85.5032 108.98 84.9301 109.033 84.6999C110.159 81.4982 110.505 79.8916 110.463 78.2424C110.408 75.1357 110.24 71.6181 109.978 68.5764C109.746 65.9846 109.477 64.4644 108.798 62.0067C107.995 59.1031 107.021 55.8226 106.279 53.9057C105.942 53.0762 105.607 52.2523 105.327 51.5971C105.193 51.2805 105.058 50.9864 105.044 50.9415C105.045 50.9281 105.062 50.969 105.264 51.263C105.544 51.561 105.632 52.1381 107.765 53.6745C109.975 55.213 113.003 55.4976 114.595 55.1807C115.193 55.1163 118.244 54.4468 120.368 51.9416C120.413 51.8863 120.659 51.5852 120.836 51.3164C121.023 51.0373 121.188 50.7475 121.318 50.4803C121.581 49.9414 121.712 49.5028 121.786 49.1816C121.926 48.5361 121.88 48.3227 121.866 48.2912C121.829 49.6231 121.807 50.8751 121.825 51.9233C121.824 52.9311 121.966 53.9113 121.854 53.7034C121.811 53.6337 121.74 53.4612 121.529 53.0955C122.295 54.7276 122.827 55.8847 123.118 56.4193C123.245 56.677 123.296 56.7314 122.985 56.5125C122.698 56.3123 121.851 55.7851 120.709 55.6175C121.268 55.7972 122.163 55.9321 122.797 55.9652C123.114 55.9853 123.38 55.9802 123.472 55.9946C123.559 56.0197 123.47 56.0233 122.935 56.3574C124.076 55.7841 124.471 55.5404 124.17 55.8307C124.018 55.9952 123.619 56.3781 123.193 57.1661C122.763 57.935 122.458 59.1261 122.483 60.0187C122.539 59.3472 122.548 59.1393 122.582 59.0961C122.614 59.0521 122.661 59.0175 122.583 58.7506C121.698 56.5019 120.207 53.9251 118.546 51.298C115.518 46.5677 112.05 41.6187 108.699 37.0067C108.237 36.3768 107.782 35.7609 107.351 35.1939C107.14 34.9153 106.928 34.6412 106.775 34.4457C106.704 34.353 106.634 34.2684 106.679 34.301C106.713 34.3246 106.746 34.3627 107.02 34.5783C107.192 34.7016 107.327 34.845 108.042 35.2338C108.492 35.4323 108.877 35.7567 110.549 35.9968C111.322 36.0826 112.673 36.1062 114.196 35.4506C115.696 34.8244 116.847 33.6187 117.379 32.7652C117.86 31.9997 117.958 31.6688 118.081 31.3539C118.169 31.1094 118.234 30.8763 118.267 30.741C118.345 30.4197 118.37 30.2339 118.389 30.082C118.425 29.7732 118.422 29.6247 118.421 29.5032C118.413 29.2781 118.392 29.2224 118.382 29.2054C118.359 29.1832 118.364 29.3452 118.391 29.5378C118.448 29.94 118.586 30.509 118.762 31.1014C119.12 32.3024 119.621 33.6202 120.179 34.9445C121.404 37.8718 122.832 40.6122 124.166 42.2154C124.481 42.5809 124.787 42.9191 124.951 43.0983C125.027 43.1853 125.07 43.2276 124.969 43.1734C124.867 43.1269 124.598 42.9385 123.939 42.753C123.983 42.7864 123.964 42.7532 123.404 42.7124C123.098 42.7139 122.661 42.6303 121.534 42.9534C120.979 43.1275 120.185 43.4675 119.398 44.182C118.608 44.8818 118.008 45.9294 117.775 46.7486C117.657 47.1633 117.647 47.3305 117.633 47.4624C117.622 47.5889 117.624 47.6546 117.627 47.6995C117.635 47.7856 117.649 47.7844 117.656 47.7611C117.673 47.7083 117.674 47.5561 117.656 47.3849C117.4 45.7181 116.281 42.873 115.214 40.654C114.245 38.6251 113.314 36.9249 112.296 35.5694C111.349 34.3449 110.428 33.1733 109.549 32.1073C109.111 31.5776 108.681 31.0719 108.289 30.636C108.093 30.419 107.908 30.2204 107.759 30.0669C107.622 29.9188 107.465 29.7939 107.622 29.871C107.282 29.6322 107.04 29.4826 106.965 29.4243C106.883 29.3633 107.016 29.3852 107.197 29.3473C106.331 29.2955 105.557 29.3771 105.405 29.3831C105.301 29.3795 105.586 29.2684 105.889 28.7542C105.603 29.1254 105.546 29.1829 105.462 29.307C105.384 29.4241 105.299 29.6395 105.237 29.9492C105.109 30.571 105.079 31.4489 105.104 32.3226C105.207 35.1591 105.405 37.7731 105.725 40.0712C106.12 43.019 106.926 45.5603 107.88 48.178C109.472 52.4981 111.223 56.499 113.648 60.7287C115.546 63.9535 117.767 67.6184 120.873 70.7873C121.949 71.8559 123.086 72.9621 124.281 74.0205C124.837 74.5112 125.411 75.0008 125.939 75.3952C126.197 75.5887 126.458 75.7623 126.602 75.8352C126.666 75.87 126.713 75.8753 126.581 75.8195C126.446 75.8132 126.086 75.4679 124.786 75.8899C123.81 76.3141 123.578 76.7427 123.414 76.925C123.242 77.1568 123.192 77.2646 123.145 77.3538C123.058 77.53 123.05 77.5716 123.038 77.5996C123.022 77.6426 123.038 77.5742 123.049 77.4906C123.075 77.3133 123.1 77.0459 123.115 76.7644C123.146 76.1945 123.147 75.541 123.129 74.8746C123.09 73.53 122.978 72.1017 122.826 70.6367C122.424 66.8914 121.849 62.8835 121.046 59.0369C120.366 55.71 119.309 52.6705 117.828 49.4768C116.114 45.7562 114.243 42.0189 112.42 38.4957C112.149 37.9806 111.883 37.4772 111.613 36.9804C111.064 35.9778 110.609 35.1303 110.248 34.6759C109.169 33.4593 108.368 33.1012 108.392 32.7246C108.46 32.354 109.741 32.0339 111.514 32.9247C113.043 33.8594 113.96 35.0376 115.245 36.5551C115.295 36.6154 115.345 36.6774 115.396 36.7409C118.181 40.224 120.448 43.6413 122.422 46.9537C124.578 50.5085 126.139 54.2902 127.215 57.4412C128.021 59.7253 128.731 61.7246 129.547 63.4314C130.589 65.6218 131.459 67.6272 132.182 69.5946C132.791 71.272 133.291 72.898 133.638 74.6621C133.808 75.5457 133.945 76.4553 133.995 77.5212C134.017 78.0645 134.026 78.6215 133.95 79.3888C133.906 79.7788 133.857 80.1928 133.685 80.8543C133.585 81.2082 133.491 81.5666 133.185 82.2386C133.113 82.3938 133.016 82.5882 132.89 82.8115C132.765 83.0319 132.626 83.2649 132.386 83.5957C131.928 84.1339 131.339 85.2293 128.922 86.2929C125.803 87.4319 124.093 86.7382 123.133 86.5269C122.134 86.2252 121.587 85.9467 121.108 85.7073C120.173 85.219 119.636 84.8511 119.115 84.4913C118.111 83.7839 117.37 83.1609 116.646 82.515C115.221 81.2339 113.98 79.912 112.708 78.4182C110.29 75.5986 108.593 72.5416 106.958 68.9431C106.394 67.6883 105.858 66.5111 105.333 65.3973C102.728 59.8256 100.49 55.7241 98.2986 52.0535C96.5454 49.1427 94.703 45.7983 93.6679 42.487C92.8858 40.0708 92.4163 37.8445 92.2704 35.4695C92.2309 34.8049 92.2115 34.1827 92.2067 33.5794C92.1823 32.1068 92.2184 30.6658 92.5526 28.6948C92.728 27.7145 92.9989 26.5397 93.5332 25.2308C94.0456 23.9312 94.9333 22.5596 95.4768 21.9096C97.5736 18.9617 100.309 17.9873 102.068 17.5536C103.92 17.1236 105.388 17.1012 106.829 17.1301C110.155 17.1099 112.583 18.5744 113.826 19.3678C115.479 20.4415 115.916 21.0114 116.602 21.6653C117.222 22.2936 117.771 22.8961 118.321 23.5121C119.417 24.7418 120.514 26.0308 121.711 27.4363C123.539 29.5675 125.082 32.0316 126.457 34.4808C127.918 37.2096 129.407 39.6184 130.783 44.4452C130.946 45.1239 131.083 45.8427 131.164 46.7017C131.204 47.1342 131.231 47.5981 131.218 48.1729C131.183 48.785 131.222 49.3217 130.821 50.7595C130.28 53.2425 127.17 55.7289 125.582 56.0201C123.904 56.5093 123.069 56.4058 122.407 56.3857C121.146 56.2854 120.576 56.0966 120.092 55.9759C117.339 55.0843 116.557 54.1306 115.778 53.5541C115.053 52.9392 114.557 52.4591 114.073 51.9936C111.194 49.1219 109.316 46.1257 107.538 43.0302C107.242 42.5091 106.959 41.9926 106.684 41.4808C105.805 39.8348 104.977 38.1743 104.206 36.2623C103.827 35.3107 103.455 34.2954 103.128 33.0594C102.965 32.4298 102.809 31.7536 102.694 30.8552C102.64 30.406 102.591 29.8917 102.595 29.1931C102.601 28.8152 102.613 28.4449 102.691 27.8525C102.733 27.5581 102.785 27.2303 102.906 26.7555C102.961 26.5404 103.052 26.223 103.18 25.8759C103.256 25.6688 103.346 25.4468 103.46 25.2007C103.589 24.9223 103.785 24.5357 104.065 24.105C104.721 23.0473 106.17 21.5528 108.017 20.8158C109.904 20.0371 111.539 20.1084 112.441 20.2205C114.435 20.5333 114.941 20.9395 115.504 21.1975C116.439 21.7148 116.671 21.9397 116.958 22.1541C117.446 22.5446 117.642 22.7384 117.84 22.9229C118.198 23.2641 118.416 23.4902 118.625 23.7053C119.029 24.1256 119.348 24.4715 119.659 24.8122C120.278 25.4899 120.829 26.1114 121.381 26.7379C125.75 31.7458 129.542 36.2888 133.153 40.9901C135.407 43.9728 137.607 47.0393 139.487 50.7259C141.08 53.5716 141.729 58.2644 141.63 60.3921C141.735 64.9582 138.574 69.198 136.682 70.6558C134.707 72.3269 133.27 73.0084 132.705 73.3969C124.801 77.1641 121.597 76.022 116.92 75.6012C110.363 74.2252 107.689 70.2916 106.076 68.2333C104.461 65.9666 103.578 64.1853 102.886 63.0045C100.543 58.144 100.776 56.1459 100.422 53.9244C100.21 51.8204 100.144 50.0669 100.088 48.4444C100.068 47.0947 100.132 45.5611 100.615 43.6279C101.01 41.8146 102.392 38.999 103.83 37.4481C106.42 34.4038 110.129 33.5504 111.236 33.4094C113.462 32.9843 117.23 33.3843 119.988 35.2985C123.077 37.5614 123.235 38.5211 123.828 39.2583C124.291 39.9766 124.539 40.4412 124.766 40.8593C125.2 41.6769 125.482 42.2658 125.754 42.8317C126.138 43.6377 126.481 44.3954 126.827 45.1771C128.431 48.9748 129.319 52.1389 130.354 55.9448C131.197 58.9231 131.943 63.251 132.105 66.6925C132.328 70.5303 132.375 74.0969 132.297 78.19C132.284 83.4216 130.511 88.6543 129.146 92.0124C126.812 97.6393 124.093 100.814 119.573 104.416C115.715 107.22 111.952 107.148 109.584 106.83C106.158 106.32 104.192 104.636 103.138 103.627C102.065 102.558 101.556 101.761 101.143 101.107C100.357 99.8084 100.023 98.9619 99.7082 98.1844C99.1184 96.666 98.793 95.523 98.4747 94.4128C97.2726 89.8726 97.3117 87.0461 97.0954 84.1365C96.8469 79.2365 96.7684 74.8448 96.6964 70.3139C96.6879 69.5541 96.681 68.7933 96.6905 67.9465C96.6961 67.5162 96.7044 67.0716 96.732 66.5269C96.7807 65.9247 96.7398 65.4919 97.0731 63.869C97.2442 63.234 97.3714 62.3054 98.4282 60.4776C98.9133 59.6814 99.6253 58.7271 100.748 57.804C101.805 56.8872 103.907 55.7905 105.862 55.5507C109.752 55.0597 112.005 56.5179 112.903 57.0313C114.061 57.7785 114.405 58.1623 114.824 58.5613C115.238 58.9819 115.404 59.188 115.606 59.4342C116.313 60.3348 116.489 60.6932 116.711 61.0644C117.09 61.7354 117.258 62.1078 117.425 62.4685C117.741 63.1695 117.942 63.6846 118.134 64.1906C118.51 65.1892 118.801 66.0719 119.08 66.9607C119.632 68.7303 120.103 70.4708 120.548 72.2592C121.839 77.7002 122.431 82.6901 123.084 87.9638C123.291 90.4332 123.967 93.042 123.177 98.073C121.795 104.691 119.066 108.158 116.986 111.425C114.843 114.641 111.8 117.731 108.84 119.883C107.435 120.975 105.001 122.283 102.913 122.832C100.828 123.406 99.437 123.513 98.3291 123.635C97.2423 123.739 95.7028 123.759 93.9063 123.285C92.117 122.842 90.388 121.78 89.7521 121.292C86.4172 118.701 85.7243 116.567 85.0558 115.183C84.461 113.75 84.1895 112.718 83.952 111.789C83.5032 109.956 83.2815 108.564 83.0589 107.228C82.2848 102.515 82.6217 97.8158 83.4645 93.791C84.3968 89.8271 85.324 88.1086 86.1465 86.0731C87.1425 83.7499 88.3489 81.4075 89.7198 79.2323C92.0753 75.5098 94.9314 72.1922 98.6103 69.4019C104.651 64.8493 111.824 64.8232 116.145 65.5618C122.107 66.9046 123.667 69.706 124.913 71.0491C126.075 72.5647 126.657 73.675 127.174 74.6742C128.16 76.6439 128.712 78.1488 129.215 79.541C129.94 81.8079 130.09 83.2419 130.25 84.5004C130.692 89.0545 130.476 91.5262 130.431 93.8488C129.411 103.042 126.559 105.234 125.245 107.761C122.129 112.432 119.87 114.03 117.445 116.063C115.33 117.82 112.629 119.712 109.755 121.193C107.656 122.288 105.285 123.399 102.475 124.47C100.894 125.071 99.225 125.633 97.3883 126.174Z" fill="#84AE7D"/>
<path d="M82.1128 64.9234C81.8209 64.8507 81.5367 64.7921 81.2578 64.7469C77.787 64.7586 73.2369 62.1711 71.776 61.0211C67.5765 57.1426 67.0707 53.9034 66.1693 51.375C65.4271 48.7727 65.0041 46.4526 65.0474 43.8232C66.0783 38.03 69.9039 34.5808 72.1445 32.9632C74.5688 31.2478 76.5197 30.5068 78.3219 30.0696C79.9164 29.7027 81.1022 29.601 82.0993 29.5817C89.3415 28.4802 93.4605 31.3109 95.9199 32.9832C100.158 35.1466 101.713 37.9235 103.09 39.4622C104.595 41.1812 105.607 42.8182 106.603 44.3829C107.122 45.2055 107.549 45.9785 107.922 46.6981C109.563 50.5241 109.326 51.9448 109.509 53.6246C109.589 55.1999 109.551 56.5266 109.497 57.7827C109.529 62.9003 106.974 67.3667 105.333 69.6C103.338 72.455 101.36 74.5106 100.274 76.2713C99.6819 77.2257 99.029 77.8493 98.3747 78.2557C94.8571 80.372 91.9017 78.5679 87.24 80.3113C86.8548 80.4375 86.4511 80.5665 86.0266 80.696C82.6276 81.7166 79.6646 81.4042 77.4997 80.8756C73.2174 79.6967 71.5901 77.2406 70.4702 75.4478C69.3848 73.553 68.8738 71.7456 68.4922 69.8393C68.4576 69.6629 68.4198 69.479 68.3786 69.2869C67.7728 67.2527 67.4532 64.4463 67.4621 61.9111C67.4807 58.6425 67.3235 55.4348 68.2127 51.0918C68.6621 49.3306 69.9093 48.0038 70.5772 47.3539C72.3952 45.5599 74.7166 45.5485 76.1962 45.817C77.1117 46.0006 77.8264 46.5368 78.2041 46.931C78.5993 47.3399 78.7969 47.6649 78.9568 47.9341C79.2619 48.4697 79.4033 48.8387 79.5393 49.1774C79.7975 49.8445 79.9646 50.3581 80.1356 50.8487C80.4683 51.8152 80.7681 52.6111 81.0924 53.2916C81.167 53.4519 81.242 53.607 81.3175 53.754C82.7897 56.6059 82.787 59.7153 82.5101 62.4815C82.1788 65.1758 81.9954 67.4242 82.0686 70.2721C82.1573 70.7182 81.8097 71.4665 81.5098 71.8085C80.9887 72.257 80.5563 72.3075 80.2834 72.3434C79.6911 72.3854 79.4311 72.2763 79.1672 72.1968C78.9159 72.1096 78.7162 72.0122 78.5348 71.9136C78.1748 71.7155 77.8907 71.5087 77.6433 71.3084C77.3248 71.0494 77.0421 70.7874 76.8045 70.5267C76.5481 70.244 76.5593 69.8741 76.6939 69.5698C76.694 69.5696 76.6941 69.5694 76.6942 69.5692C76.8652 69.1891 77.241 68.9166 77.6081 69.0068C77.8442 69.0651 78.1056 69.1178 78.389 69.1656C78.7145 69.22 79.0562 69.2631 79.3728 69.2607C79.5275 69.2589 79.6826 69.2444 79.7671 69.2057C79.8062 69.1872 79.8306 69.1589 79.7739 69.1401C79.7242 69.1331 79.5365 69.0814 79.1721 69.3674L78.7089 70.6409C78.1681 69.6973 76.8465 67.8886 75.5498 65.9604C75.0453 65.2145 74.6592 64.5091 74.3623 63.8452C72.7269 60.2557 73.5935 58.3479 73.05 54.6091C72.9519 53.9764 72.8153 53.2919 72.6164 52.6145C72.5174 52.2796 72.3997 51.9394 72.2757 51.6883C72.2151 51.566 72.1498 51.4628 72.1105 51.4542C72.0893 51.457 72.0073 51.5104 72.3381 52.0341C72.5519 52.3604 73.2548 53.1744 74.5327 53.4822C74.5588 53.5698 74.613 53.6957 74.97 53.7293C75.3061 53.7718 75.9645 53.5958 76.4397 53.2441C75.9499 54.0031 76.5733 53.8264 76.9028 53.293C77.0229 53.1755 77.058 53.4739 77.1284 53.7043C77.1927 53.9571 77.2616 54.2445 77.3351 54.5393C77.482 55.1319 77.646 55.7563 77.815 56.3895C78.1538 57.6558 78.5085 58.9591 78.827 60.3547C79.1731 61.8954 79.4175 62.9256 79.5704 63.6628C79.8778 64.4935 80.1616 65.3286 80.4143 66.1111C80.6872 66.9723 81.0495 67.5451 81.2546 67.7162C81.4638 67.9096 81.4167 67.5693 80.7143 67.207C82.4479 67.1632 83.2914 66.23 83.4812 65.498C84.9879 64.4607 86.0926 63.5074 86.9169 63.1526C88.0304 62.4741 89.1863 61.9779 90.7354 61.1825C90.9853 61.0524 91.2211 60.9112 91.4429 60.7606C93.1964 59.4324 93.4103 59.075 93.3264 58.2912C93.2102 56.8915 92.9234 55.6807 92.5015 54.77C92.292 54.3215 92.0449 53.9465 91.7949 53.7796C91.5648 53.633 91.237 53.6221 91.3411 54.4759C90.6457 53.8899 89.9507 53.4071 89.3283 53.1336C88.7264 52.8713 88.1132 52.7952 88.118 53.381C87.4208 53.0049 86.8674 52.7945 86.6907 52.9418C86.5302 53.0612 86.7609 53.7265 88.3715 54.5126C87.866 54.4434 87.7464 54.5093 87.6755 54.5714C87.6187 54.6377 87.6838 54.7257 87.8691 54.7916C88.1583 54.9007 88.7889 54.9322 89.4277 54.7659C87.8527 55.2532 86.5204 55.6569 86.077 55.7844C85.875 55.8207 85.9278 55.829 86.6169 55.2452C87.2192 54.723 88.9771 53.0241 89.6472 50.0887C89.4525 50.3427 89.2815 50.83 89.143 50.6972C89.061 50.6205 89.0019 50.3876 88.7313 49.6907C88.4457 49.0314 87.9357 47.6538 86.2047 46.0606C86.3803 46.3493 85.6742 45.7389 84.5739 45.3149C83.4702 44.8634 82.1962 44.7438 81.5065 44.8352C82.6636 45.0101 83.704 45.1645 84.4471 45.2746C84.8131 45.331 85.1048 45.3737 85.2077 45.4281C85.299 45.494 85.2388 45.5208 84.5603 45.8339C86.1337 45.4544 87.1348 45.162 87.4932 45.0502C87.8792 44.9316 87.3992 45.1819 86.8473 46.0433C86.8081 46.1043 86.769 46.1683 86.7306 46.235C86.456 46.7455 86.3931 46.9446 86.3323 47.0794C86.2784 47.2072 86.2555 47.2446 86.2335 47.2457C86.1923 47.2428 86.1581 47.0953 86.0911 46.9015C85.8933 45.8371 85.5376 45.3192 85.4845 45.4251C84.8805 44.5057 84.2507 43.5949 83.7363 42.9383C83.4905 42.6214 83.246 42.3515 83.2544 42.3817C83.2744 42.4056 83.3303 42.501 83.7566 42.8506C84.3314 43.1224 84.5871 44.1274 88.7674 44.7467C89.249 44.8064 92.2152 44.9609 94.9274 43.3116C97.6044 41.6889 98.5925 39.7575 99.0723 38.7918C99.9494 36.7634 99.8152 36.3448 99.9009 35.9541C99.9391 35.5716 99.9275 35.4837 99.9275 35.4677C99.9252 35.4575 99.9249 35.5381 99.9305 35.6547C99.9412 35.8931 99.973 36.2718 100.017 36.6848C100.107 37.5251 100.24 38.5185 100.386 39.5538C100.606 41.117 100.848 42.7792 101.076 44.4496C101.451 47.1951 102.134 50.0838 103.007 52.7709C103.387 53.9323 103.816 55.0924 104.276 56.1974C104.505 56.7478 104.744 57.2862 104.97 57.7545C105.082 57.9846 105.195 58.2054 105.273 58.3356C105.31 58.3977 105.343 58.4438 105.323 58.3879C105.309 58.3545 105.29 58.3049 105.198 58.1389C105.152 58.0573 105.083 57.9361 104.951 57.7346C104.773 57.4914 104.691 57.258 103.789 56.2989C103.57 56.0765 103.301 55.8183 102.928 55.5136C102.51 55.1966 102.25 54.9198 100.965 54.2518C100.372 53.9593 99.6297 53.6545 98.6754 53.4312C98.1675 53.3182 97.7743 53.2398 96.9983 53.1812C96.2045 53.127 95.318 53.1601 94.4043 53.326C92.5693 53.6396 90.7047 54.574 89.4363 55.6778C88.4056 56.5581 87.7254 57.4632 87.2457 58.2532C86.7679 59.0464 86.4877 59.7275 86.2911 60.2985C86.1549 60.6984 86.0689 61.0193 85.9985 61.3202C85.8614 61.9155 85.8049 62.368 85.7702 62.7407C85.7223 63.2841 85.7245 63.6488 85.7315 63.9484C85.7448 64.4197 85.7802 64.712 85.7984 64.8737C85.8205 65.0581 85.8392 65.1785 85.8529 65.2661C85.9091 65.6091 85.9201 65.6475 85.9216 65.6828C85.9219 65.7267 85.879 65.6107 85.8286 65.4866C85.7241 65.2232 85.5792 64.8626 85.4249 64.4943C85.1131 63.7485 84.7552 62.9375 84.3844 62.1238C82.6922 58.4356 80.7187 54.3838 79.1266 50.7523C78.5581 49.478 78.0291 48.2366 77.5674 47.0946C77.0943 45.9107 76.5608 44.7494 76.2608 44.069C75.6781 43.1699 75.0982 42.2849 74.721 41.6877C74.5496 41.4 74.3908 41.1776 74.6119 41.2527C74.7375 41.2909 74.9538 41.4252 75.5937 41.6749C76.2147 41.8932 77.5123 42.3891 79.5728 42.0701C80.1471 41.9745 82.0011 41.5837 83.6294 40.1045C85.2395 38.6358 85.7383 37.1214 85.9423 36.3762C86.2964 34.8434 86.1157 34.5757 86.1083 34.4912C86.0709 34.4214 86.0434 34.5508 86.0252 34.7024C85.9888 35.0215 85.9791 35.4802 85.975 35.9439C85.9575 38.8266 86.0983 41.7859 86.371 44.5609C86.767 48.5466 87.4789 52.3816 88.2216 55.5959C88.6949 57.6386 89.1887 59.4724 89.6028 60.992C90.0245 62.5365 90.4309 63.8649 90.8269 65.0032C91.0269 65.5802 91.2336 66.1191 91.3657 66.4559C91.3953 66.5358 91.4205 66.6018 91.4128 66.6235C91.3954 66.6414 91.3911 66.6307 91.132 66.4549C90.9943 66.3741 90.787 66.2128 90.2443 66.0735C89.735 65.9093 88.6359 66.0201 88.0562 66.4502C87.467 66.8533 87.316 67.1769 87.2106 67.355C87.1135 67.5431 87.0952 67.6288 87.0811 67.6889C87.0613 67.9115 87.1698 67.6365 87.2115 67.4223C87.2628 67.1887 87.3002 66.9034 87.3256 66.6142C87.3763 66.0304 87.3826 65.3975 87.3576 64.7506C87.3057 63.4448 87.1287 62.041 86.8249 60.3804C86.6356 59.3536 86.3911 58.2134 86.0914 56.9342C85.2336 53.2277 84.758 48.3549 85.3121 43.4496C85.5009 41.9074 85.7831 40.3876 86.1833 38.9188C87.0578 35.845 88.545 36.5366 89.4632 39.3539C89.8782 40.6197 90.1447 41.8383 90.3667 42.9737C90.8795 45.5155 91.218 47.7028 92.6782 49.0846C96.4921 52.7037 98.226 54.4308 97.3519 59.3511C97.2626 59.8404 97.1457 60.3566 96.9998 60.9105C96.5578 62.5916 96.5931 63.9996 96.842 65.3701C96.965 66.0574 97.144 66.7365 97.3187 67.5245C97.4405 68.4072 97.8369 68.9312 97.3711 71.2967C97.2449 71.7598 97.0938 72.3111 96.5865 73.2031C96.0637 74.0388 95.0875 75.6454 92.3983 76.7196C89.6532 77.774 87.0228 77.0274 85.9304 76.532C84.7242 75.999 84.1714 75.5598 83.721 75.2358C82.1458 73.9939 81.8629 73.6307 81.3647 73.1948C80.512 72.4067 80.0052 71.899 79.6058 71.312C79.4134 71.0267 79.2565 70.7278 79.1392 70.406C78.2608 67.8279 79.2427 66.6075 76.6457 60.3212C75.6417 57.7717 74.1324 54.4415 72.1545 49.5578C71.9805 49.1245 71.812 48.6936 71.6488 48.2649C70.2912 44.6798 69.3239 41.4266 68.5694 38.3738C68.4268 37.7854 68.2885 37.2027 68.1566 36.4607C68.0915 36.0795 68.0243 35.6736 67.976 35.0413C67.9626 34.3962 67.7846 33.502 68.3338 31.3078C68.6562 30.1612 69.3831 28.1329 71.4577 26.2731C73.5508 24.4012 75.9312 23.8892 76.8699 23.7438C80.1002 23.2769 82.2232 24.1469 83.4699 24.6718C84.7592 25.2573 85.4814 25.7566 86.1033 26.1843C87.296 27.0328 87.9741 27.6437 88.602 28.1948C89.8145 29.2803 90.6516 30.1027 91.4429 30.8645C95.4431 35.1972 96.8446 37.8217 98.4712 40.2285C98.7772 40.7071 99.0649 41.1638 99.3399 41.604C101.074 44.3961 102.754 48.7014 104.459 53.9097C104.806 54.9796 105.148 56.084 105.49 57.2727C105.663 57.8739 105.833 58.4836 106.018 59.2031C106.112 59.5694 106.207 59.944 106.326 60.4775C106.388 60.7591 106.454 61.045 106.551 61.6222C106.593 61.9295 106.669 62.2317 106.715 63.2444C106.724 63.5425 106.729 63.9449 106.688 64.4805C106.666 64.7582 106.614 65.264 106.495 65.8267C106.339 66.4347 106.315 66.9658 105.479 68.6265C105.074 69.382 104.485 70.2734 103.572 71.169C102.735 72.043 100.834 73.3311 99.0052 73.7784C94.7802 74.7011 93.1858 73.6449 91.853 73.1482C91.2396 72.8641 90.6526 72.4922 90.4149 72.3273C90.1484 72.1456 89.923 71.9747 89.7256 71.8152C89.3319 71.496 89.0469 71.223 88.8136 70.9851C87.8806 69.9945 87.7433 69.688 87.5177 69.3719C87.3436 69.106 87.2246 68.9025 87.1371 68.749C86.9553 68.4275 86.855 68.2254 86.7595 68.0315C86.5782 67.6587 86.4591 67.3838 86.3457 67.1169C86.1282 66.6006 85.9575 66.1557 85.7959 65.724C85.4762 64.8667 85.2022 64.0761 84.9332 63.2893C84.3999 61.7241 83.9083 60.2195 83.4149 58.7457C83.0582 57.679 82.71 56.6559 82.3548 55.6754C81.2 52.47 80.0732 48.3732 79.0839 43.6411C78.8332 42.4206 78.592 41.1559 78.3794 39.7231C78.2049 38.1546 77.8554 37.1002 78.1011 33.6005C78.2359 32.7512 78.1777 31.8677 79.2301 29.4434C79.8004 28.2791 80.9011 26.1741 83.7495 24.4362C86.6341 22.667 89.8421 22.8005 90.5516 22.8802C95.3515 23.5486 96.2344 24.9419 97.3535 25.6282C98.3325 26.4038 98.8849 26.9793 99.3836 27.5055C100.345 28.5427 100.959 29.3517 101.535 30.1257C102.657 31.6534 103.507 32.9823 104.31 34.2596C106.686 38.1853 107.423 41.8802 107.85 44.66C108.266 48.4112 108.419 51.6233 106.471 56.3203C106.375 56.5336 106.278 56.7413 106.179 56.9434C102.467 63.6003 98.9992 64.5144 97.0638 65.4872C95.0002 66.2805 93.6295 66.3176 92.3569 66.2474C87.2017 67.0646 85.5011 65.6081 82.1128 64.9234Z" fill="#84AE7D"/>
<path d="M36.7483 66.9525C36.2664 63.0492 36.7817 62.066 36.5941 60.6775C36.5999 56.154 37.9563 51.8586 39.0411 48.8371C42.03 43.9825 43.2 42.3631 46.1009 40.9252C47.097 40.4813 47.9908 40.1964 48.8266 39.9992C54.882 37.8522 58.1939 39.4754 62.1611 39.1242C63.0822 39.0266 64.1116 38.9036 65.5534 38.8942C66.285 38.8966 67.1136 38.9191 68.2282 39.1096C69.3678 39.3763 70.7008 39.4424 73.19 41.2804C73.4646 41.4991 73.7497 41.7496 74.0402 42.0417C76.265 44.3427 76.6141 46.9222 76.6697 48.1337C76.7172 49.4587 76.5542 50.1834 76.441 50.7438C76.1891 51.8339 75.9683 52.3266 75.7876 52.7767C75.4312 53.6128 75.1733 54.0694 74.9372 54.4922C74.4702 55.3089 74.0852 55.8723 73.7014 56.4068C72.9396 57.4576 72.2108 58.3003 71.4748 59.0939C68.3883 62.3942 65.9188 63.6363 64.1026 65.0437C62.4197 66.3171 61.0555 67.468 59.9728 68.8459C59.713 69.1694 59.4291 69.4535 59.0471 69.7363C58.8567 69.8768 58.642 70.0177 58.3468 70.1785C58.1981 70.259 58.0235 70.3476 57.7939 70.4503C57.5283 70.5632 57.3059 70.6745 56.5843 70.8932C56.1652 70.9974 55.7072 71.1938 54.2477 71.2626C53.4959 71.2608 52.4184 71.3109 50.5701 70.6024C49.6606 70.2367 48.54 69.6118 47.5012 68.5684C46.2137 67.3202 45.2332 65.354 44.9732 63.7025C44.4888 60.2861 45.4843 58.749 45.8896 57.8355C46.3793 56.9265 46.7289 56.5213 46.9935 56.197C47.3186 55.8199 47.2902 55.8647 47.3797 55.7674C47.4478 55.6962 47.5094 55.6341 47.5661 55.5782C47.7917 55.3567 47.9434 55.2253 48.0679 55.1188C48.1942 55.0115 48.281 54.9429 48.3226 54.91C48.5192 54.755 48.6646 54.6523 48.7243 54.6107C48.8832 54.5002 48.9665 54.4482 49.0473 54.3984C49.1979 54.3068 49.2995 54.2542 49.3994 54.2059C49.589 54.1164 49.757 54.0562 49.9105 54.0163C50.2256 53.9318 50.5207 53.9058 50.8204 53.9051C51.4205 53.9037 52.0231 54.0136 52.6554 54.0948C53.9225 54.2587 55.2714 54.3178 56.8631 53.2958C57.1278 53.1359 57.3872 52.9681 57.6786 52.7758C59.6404 51.4725 61.7627 50.7218 63.9172 50.53C64.9978 50.4356 66.0902 50.4759 67.2382 50.6884C67.8164 50.7969 68.4078 50.9454 69.0803 51.1795C69.4184 51.2986 69.773 51.4347 70.2293 51.6435C70.4526 51.7478 70.702 51.866 71.0679 52.0688C71.2244 52.1576 71.4781 52.3025 71.7433 52.4827C72.0856 52.7377 72.4397 52.886 73.3257 53.8979C74.944 56.1734 74.7066 57.1482 74.8148 57.9636C74.8335 58.758 74.7391 59.3076 74.6295 59.8106C74.401 60.7997 74.0713 61.5583 73.7006 62.3004C73.0673 63.5615 72.2604 65.253 71.331 67.1387C70.8584 68.1488 70.3034 69.1889 69.6737 70.2052C69.3599 70.7126 69.0256 71.2171 68.6884 71.6977C68.5204 71.9376 68.3514 72.1716 68.1991 72.3799C68.1259 72.4793 68.0528 72.5799 68.0117 72.6306C67.9923 72.6533 67.9795 72.6689 67.9996 72.6178C68.0129 72.5837 68.0295 72.5495 68.0796 72.4141C68.1013 72.3524 68.136 72.2579 68.178 72.0888C68.2074 71.9499 68.2975 71.6362 68.2598 71.0792C68.2331 70.883 68.1813 70.5713 67.9557 70.1599C67.7325 69.7376 67.286 69.316 66.9079 69.1275C66.1321 68.7627 65.9377 68.9019 65.9087 68.8918C65.8794 68.9272 66.2825 68.8697 66.6485 68.7598C67.4236 68.5374 68.3248 68.1631 69.1867 67.775C70.9843 67.0067 72.4029 66.0398 74.7859 65.4491C75.2055 65.4178 75.7792 65.4009 76.5875 65.6786C77.39 65.9331 78.3993 66.7064 78.8842 67.5649C79.696 69.0164 79.5665 69.9366 79.5519 70.544C79.4991 71.1652 79.3968 71.5803 79.2413 72.0312C78.3241 74.5657 77.0364 75.4024 76.0397 76.1264C75.0055 76.8022 74.0398 77.1518 73.1394 77.3928C69.9967 78.4891 67.5767 77.6553 65.8447 77.0625L65.8531 72.199C66.5735 72.4719 67.2383 72.7296 67.8638 72.95C68.521 73.1832 69.1505 73.507 69.6408 73.9477C69.6491 73.9502 69.6721 73.9628 69.6803 73.9657C70.0539 74.301 70.2567 74.6879 70.3485 74.9714C70.4519 75.2742 70.307 75.6028 70.0841 75.8504C70.084 75.8506 70.0839 75.8507 70.0837 75.8509C69.8041 76.1592 69.3932 76.3329 69.1429 76.1924C68.9599 76.0894 68.8559 76.0642 68.6896 76.0455L68.7239 76.0611C68.0926 75.9947 67.0077 76.2319 65.8222 76.7367C63.295 76.7195 63.3022 72.5331 65.8294 72.5247C66.5952 72.1891 67.3269 71.7178 67.8891 71.0851C68.4828 70.4102 68.7312 69.9394 68.8425 69.6779C69.5734 69.0095 70.1933 68.6789 70.7239 68.4414C70.9853 68.3259 71.223 68.2305 71.3716 68.1861C71.5231 68.1565 71.5494 68.1205 71.3839 68.5515C71.2825 68.9204 71.0799 69.05 71.1933 70.3281C71.2447 70.9323 71.7794 72.2763 72.8682 72.9553C73.9222 73.6199 74.6363 73.5747 75.0046 73.5814C75.0124 73.541 73.9688 73.8717 72.8013 74.6646C71.7728 75.3279 70.7907 76.0838 69.4934 76.8525C68.8077 77.2293 68.1476 77.6562 66.6796 77.9705C65.8991 78.0654 64.8582 78.3907 62.6702 77.5087C61.6088 77.0612 60.3354 76.0233 59.6302 74.8101C58.9354 73.653 58.7104 72.6167 58.6068 71.806C58.5293 70.7809 58.6969 70.0808 58.7565 69.7957C58.8368 69.4423 58.9274 69.1725 58.9772 69.0246C59.0984 68.6768 59.1719 68.5083 59.236 68.354C59.3542 68.0741 59.4153 67.935 59.4691 67.8047C59.5675 67.5649 59.6124 67.4289 59.6545 67.2956C59.7325 67.041 59.7745 66.8491 59.8121 66.6635C59.8852 66.2962 59.9309 65.9736 59.9765 65.6528C60.0647 65.0158 60.1364 64.42 60.2374 63.8106C60.4082 62.979 60.6277 62.135 60.8884 61.3237C61.0183 60.9192 61.1578 60.5224 61.2979 60.175C61.4398 59.8448 61.5694 59.4937 61.7107 59.5672C61.7662 59.6078 61.8049 59.7086 61.9097 60.0462C62.0602 60.3864 62.0583 60.9948 63.1978 62.4181C63.8074 63.1215 64.2009 63.3699 64.4147 63.5263C64.6691 63.7006 64.8085 63.7761 64.9366 63.8459C65.195 63.9829 65.318 64.0291 65.425 64.0712C65.6369 64.151 65.7205 64.1674 65.7896 64.1838C65.9168 64.2105 65.9321 64.2055 65.93 64.2083C65.917 64.2102 65.8053 64.2267 65.6873 64.2756C65.4424 64.371 65.1475 64.5828 64.8914 64.8649C64.3638 65.4331 63.9834 66.253 63.5689 67.0449C62.9921 67.6891 62.3666 68.3204 61.636 68.8971C61.271 69.1853 60.8773 69.4614 60.4663 69.7123C60.262 69.837 60.0496 69.9577 59.8562 70.0583C59.7588 70.109 59.6647 70.1556 59.6019 70.1808C59.5727 70.1919 59.5465 70.2011 59.5686 70.1779C59.5809 70.1651 59.5999 70.1488 59.6917 70.08C59.7486 70.037 59.7846 70.0121 59.9793 69.8618C60.0853 69.7753 60.134 69.7534 60.5709 69.3653C60.6761 69.2698 60.801 69.1534 60.9633 68.9892C61.0507 68.9001 61.1151 68.8344 61.2581 68.6772C61.5557 68.3298 61.9615 67.9263 62.6098 66.7663C62.9238 66.1668 63.3344 65.3556 63.6167 63.9361C63.8854 62.5632 63.973 60.2766 62.8379 57.8958C59.9652 52.777 56.8129 52.7735 55.3046 52.3987C52.2364 52.1418 51.857 52.6128 51.24 52.7073C50.6102 52.9041 50.4516 52.9923 50.2769 53.0688C50.1259 53.1397 50.0401 53.1873 49.973 53.2265C49.8484 53.301 49.8074 53.3392 49.7845 53.3674C49.7461 53.4207 49.7971 53.4289 49.8689 53.4254C50.0183 53.4155 50.2703 53.3514 50.5571 53.2746C51.1384 53.1163 51.8846 52.8943 52.7531 52.6502C52.9581 52.5933 53.16 52.5309 53.3595 52.463C56.5938 51.2376 58.3047 49.7948 58.6615 48.6507C59.1197 47.729 59.3854 46.7819 59.438 45.9346C59.4593 45.5196 59.4358 45.1069 59.2439 44.9213C59.1419 44.8466 59.002 44.7892 58.6955 45.1369C58.5395 45.3431 58.3258 45.5929 58.0368 46.4971C57.9046 46.972 57.7091 47.6134 57.7176 48.9361C57.7376 50.1355 58.0405 52.8321 60.3756 55.314C62.2526 57.3327 63.2385 57.598 63.9324 58.0205C64.6194 58.3738 65.0143 58.5581 65.3078 58.7324C65.8779 59.0661 66.0354 59.3161 66.0696 59.5998C64.6681 60.5522 63.4838 61.4191 63.0361 61.8765C62.8764 62.0288 62.7931 62.1313 62.7201 62.2052C61.4626 63.0453 60.1604 63.828 58.9792 64.5077C58.3935 64.8442 57.8342 65.1599 57.4105 65.3846C57.2018 65.4941 57.0254 65.5834 56.9433 65.5958C56.8687 65.5956 56.8581 65.5743 57.1917 65.1388C56.2864 65.7819 56.9387 64.888 56.8363 63.1658C56.6603 63.6024 56.5677 63.8827 56.4444 63.331C56.3648 63.0356 56.3132 62.5067 55.9035 61.3541C55.5191 60.2702 54.4616 58.1406 52.3036 56.5971C50.7779 55.6237 50.3499 55.722 49.9076 55.6494C49.5072 55.6284 49.2903 55.6931 49.1463 55.7601C48.868 55.902 48.9018 56.0661 49.0433 56.1392C50.4414 56.017 51.5053 55.7815 52.2934 55.4056C53.306 54.9226 54.2802 54.3182 55.2706 53.5611C56.5801 52.5872 58.1825 51.2834 59.5224 50.0703C60.5977 49.0936 61.3301 48.3353 62.1074 47.414C62.7535 46.6278 63.2685 46.0416 63.5277 45.7488C63.6539 45.6116 63.7107 45.5473 63.637 45.7177C63.5732 45.9076 63.3179 46.2709 63.0231 47.5795C63.2722 46.815 63.4882 46.1523 63.6438 45.7651C63.7913 45.4341 63.8 45.289 63.9031 45.828C63.979 46.2976 64.4652 47.9101 65.63 49.0645C65.0469 48.4726 65.0624 48.6373 65.0985 48.7112C65.1454 48.8092 65.0763 48.8372 64.6005 48.9223C61.4928 49.1252 57.9337 49.4723 55.2114 49.7378C53.25 49.936 51.6437 50.1155 50.1292 50.2465C50.0502 50.254 49.9708 50.2622 49.8908 50.2713C49.1686 50.4073 48.7327 50.4656 48.711 50.3113C48.6825 50.1675 48.8689 49.7945 48.6887 49.7491C47.5406 50.6677 46.4101 51.6185 45.4573 52.478C44.9838 52.9027 44.555 53.3112 44.2408 53.5916C44.0843 53.7289 43.9586 53.8329 43.8791 53.8422C43.7975 53.8466 43.7737 53.7687 43.7736 53.3932C43.629 53.3659 43.4395 53.8981 43.3161 54.3756C43.1872 54.8785 43.0951 55.4473 43.0363 56.0282C42.9187 57.1961 42.9332 58.4191 43.0431 59.6017C43.1906 60.9177 42.8713 60.932 43.2574 61.7232C44.0333 62.7895 44.7061 63.6561 45.2651 64.3223C46.4348 65.7127 47.2978 66.3693 48.2293 66.6842C50.5323 67.2047 52.5001 67.2611 55.15 66.7121C55.9544 66.5383 56.8297 66.2959 57.797 65.9595C58.8204 65.6027 59.9599 65.2734 61.1266 64.9621C62.112 64.7069 63.3302 64.3626 63.8538 64.2617C63.9109 64.2673 63.9404 64.2534 63.7661 64.4862C63.6832 64.6157 63.5018 64.8124 63.331 65.3696C63.1314 65.9105 63.2623 66.9435 63.5716 67.3818C63.6793 67.3889 63.6843 67.237 63.7694 67.1759C63.842 67.1032 63.9966 67.0313 64.0343 66.8992C63.8635 66.8126 63.8866 66.7936 64.1747 66.6194C64.3172 66.5303 64.5695 66.3417 64.7277 66.0662C64.8897 65.792 64.9064 65.5328 64.8792 65.4113C64.6337 65.8526 64.3876 66.2992 64.1429 66.7511C63.5652 67.8132 63.0292 68.2731 62.4337 68.289C61.8029 68.1334 61.2021 67.3339 60.9449 66.0057C60.8733 65.6333 60.8264 65.2686 60.7995 64.9075C60.8221 64.492 60.9659 63.9087 61.3552 63.3915C61.7391 62.8709 62.2739 62.5504 62.6721 62.3936C63.4779 62.0879 63.9716 62.1245 64.2444 62.0931C66.4003 62.0826 67.8276 63.3866 68.65 64.6363C69.0686 65.2674 69.1805 66.5478 68.9044 67.235C68.6599 67.9503 68.3766 68.2751 68.1733 68.5357C67.7575 69.0264 67.494 69.2394 67.2562 69.4613C66.2727 70.3246 65.7008 70.8706 65.24 71.6928C64.7508 72.5708 64.2853 73.3276 63.823 73.9882C61.8597 76.7538 59.9576 77.9381 56.2334 77.1651C55.8391 77.08 55.4314 76.9698 55.0087 76.8336C51.664 75.7154 49.7629 77.1267 47.6573 78.1466C45.6682 78.6947 43.5763 78.7357 41.9408 77.8711C39.1224 76.2298 38.7324 74.4265 35.0352 70.978C33.4889 69.7084 31.1476 66.3718 30.2402 63.7969C29.6114 62.2936 28.9367 60.5498 28.3329 58.3899C27.6992 55.9287 27.209 53.8158 27.48 50.4802C28.5608 44.9005 29.8775 43.6534 30.8954 41.5868C31.9492 39.7535 32.914 38.2946 33.8122 36.9828C34.9999 35.378 36.8198 33.7437 38.3743 32.7452C39.9389 31.7243 41.0546 31.1983 41.8523 30.7732C44.3683 29.5169 46.6465 28.7546 48.5381 28.1968C49.6324 27.8755 50.9269 27.647 52.3359 27.517C56.1267 27.1815 60.1662 27.515 64.636 27.8396C69.9338 27.74 77.3566 31.4165 80.4016 34.7312C80.8168 35.1378 81.2104 35.5722 81.5757 36.0276C84.2736 39.3344 84.8712 43.5084 84.8336 46.0498C84.8086 48.7243 84.4111 50.6707 84.0541 52.4344C82.9864 56.4129 81.8242 57.4595 81.0652 58.6626C80.2734 59.752 79.6604 60.4888 79.2375 61.0439C77.5298 63.2574 75.408 65.3424 73.552 66.9269C71.1718 68.96 69.0235 70.5727 66.8073 72.1289C64.3503 73.8297 62.0031 75.1188 60.2566 76.1207C57.6451 77.6071 55.7363 78.0669 54.2596 78.1402C52.0055 78.3892 50.087 78.0406 48.061 77.345C45.9119 76.4611 44.2446 76.1477 40.1093 72.7319C37.9787 70.9627 36.9997 68.485 36.7483 66.9525Z" fill="#84AE7D"/>
<path d="M53.1583 98.5878C52.6472 99.0079 52.1572 99.4225 51.6844 99.8372C49.637 101.736 47.1867 103.421 45.3463 104.612C43.8235 105.611 42.2555 106.647 40.3321 107.654C39.3529 108.158 38.3047 108.656 36.9245 109.097C36.2229 109.315 35.461 109.521 34.4249 109.655C33.9032 109.719 33.3293 109.769 32.5257 109.739C32.1054 109.719 31.6807 109.69 31.0246 109.568C30.8776 109.541 30.6854 109.499 30.4925 109.452C30.3025 109.405 30.089 109.347 29.8268 109.262C29.3437 109.089 28.7167 108.934 27.4047 108.094C24.4937 106.368 22.8082 102.461 22.6706 100.546C22.4097 98.48 22.6287 97.3723 22.7558 96.4828C23.0577 94.7795 23.3723 93.915 23.5362 93.2558C24.7574 90.4437 25.4142 89.803 26.007 88.856C26.5887 88.0081 27.0636 87.3529 27.5174 86.7324C28.4193 85.5042 29.2207 84.4563 30.0342 83.431C31.3623 81.8774 32.9025 80.2974 35.0363 78.7337C36.1256 77.9472 37.3381 77.1709 38.9647 76.4205C39.7886 76.046 40.6915 75.6833 41.8743 75.3513C42.4671 75.1876 43.1158 75.0319 43.9621 74.9031C44.3991 74.8387 44.8393 74.7837 45.4678 74.7481C45.6067 74.7403 45.7908 74.7328 45.9666 74.729C46.1402 74.7252 46.3351 74.7237 46.5653 74.728C46.9949 74.7421 47.5048 74.7387 48.629 74.9168C49.6501 75.0926 50.9282 75.408 52.4422 76.1589C53.6588 76.6946 56.448 78.6485 57.8898 81.1295C61.0007 86.3738 59.716 90.6708 59.4007 91.9592C58.8342 93.8278 58.468 94.3598 58.112 95.0336C57.7268 95.7012 57.5422 95.9575 57.3097 96.2897C56.4718 97.4349 56.1168 97.7582 55.7677 98.1361C55.1256 98.7973 54.7465 99.128 54.3935 99.4407C53.6963 100.048 53.1672 100.461 52.6321 100.863C51.5795 101.648 50.6007 102.291 49.5804 102.901C48.3468 103.637 47.1968 104.26 46.0907 104.819C41.9126 106.964 37.7387 108.449 32.3615 108.546C30.7455 108.511 29.1724 108.353 27.4447 108.004C26.5747 107.824 25.6705 107.603 24.5889 107.245C23.4675 106.83 22.35 106.557 20.0681 105.016C15.4165 101.592 14.5965 96.666 14.5122 94.3958C14.3504 90.7884 15.1117 87.565 16.1913 84.6145C18.3082 79.374 20.2286 78.1397 21.9316 75.7815C23.2967 74.103 24.9596 72.3084 27.5646 70.6312C27.7619 70.5059 27.9652 70.3826 28.1608 70.2684C29.6585 69.2503 34 68.3512 37.0953 70.1607C40.0743 71.8346 40.9413 73.7677 41.5435 75.1598C42.3595 77.4748 42.1693 78.3147 42.19 79.068C42.1609 79.7695 42.0896 80.2073 42.0323 80.5535C41.9077 81.2574 41.7913 81.6725 41.686 82.0494C41.4789 82.7671 41.3001 83.2601 41.1294 83.7207C40.7906 84.6227 40.4792 85.3455 40.1654 86.0494C39.5407 87.4426 38.9207 88.6927 38.2891 89.9202C35.8471 94.6772 32.2738 98.0232 29.5027 100.357C28.7423 101.016 27.8307 101.728 26.5955 102.412C25.426 103.092 23.6087 103.682 22.8008 103.829C19.5828 104.526 17.4291 103.899 15.9336 103.452C12.9454 102.451 11.898 101.078 11.1388 100.286C10.4113 99.4392 10.0428 98.8369 9.7297 98.3258C9.13212 97.3187 8.82884 96.6606 8.57208 96.1505C7.84337 94.7582 7.6995 94.1341 7.48018 93.468C7.28582 92.8262 7.15209 92.2948 7.02844 91.7792C6.7883 90.7658 6.6082 89.862 6.4412 88.9985C6.11076 87.275 5.84028 85.7148 5.56902 84.253C4.80292 79.7614 4.69099 76.8042 4.13773 74.5198C4.0071 73.9606 3.908 73.4466 3.83346 73.0142C3.7066 72.0431 3.65473 71.1102 3.75168 69.8848C3.80723 69.26 3.88687 68.5617 4.14092 67.5485C4.34851 66.6129 5.06356 64.846 5.77926 63.8877C6.87992 62.1611 8.59632 60.8231 10.4179 60.1597C12.3458 59.6086 13.9865 58.8844 17.8958 60.5847C20.7533 61.9528 22.4953 65.3267 22.7059 66.9534C23.0378 68.7185 22.8629 69.6612 22.7429 70.4248C22.4519 71.8887 22.0656 72.5974 21.7124 73.2752C20.9941 74.5647 20.2828 75.4169 19.5827 76.3317C18.842 77.4859 17.8583 78.8776 16.303 80.2042C14.7852 81.5461 12.6215 82.4845 11.3623 82.8869C10.2535 83.3385 8.48869 83.5219 7.04667 83.0902C5.59397 82.6796 4.65268 81.9497 4.03766 81.3675C2.79717 80.1131 2.59638 79.3882 2.34053 78.8516C2.12224 78.3175 2.01979 77.9538 1.93109 77.633C1.7631 77.003 1.67847 76.5514 1.59498 76.1163C1.43645 75.2667 1.31628 74.5323 1.17888 73.7755C1.02059 72.8959 0.890782 72.0833 0.773304 71.2899C0.24733 67.063 0.288914 63.9302 0.438576 60.7721C0.569205 58.1657 0.987427 55.2218 1.81752 52.5836C2.55112 50.2056 3.50317 47.9563 4.73363 45.6713C5.52583 44.2085 6.43202 42.7485 7.48242 41.2913C8.3936 40.0294 9.55766 38.4462 11.0461 36.7355C12.4056 35.1646 13.2267 34.6143 14.2548 33.5584C16.4203 31.4006 18.8803 28.7999 21.5377 26.1449C23.9016 23.7858 26.3743 21.4206 28.8803 19.0809C30.9576 17.1732 32.8178 15.8471 32.896 15.057C32.8384 15.2657 32.7117 15.586 32.7938 16.2864C32.8367 16.9796 33.5021 18.0076 34.0766 18.3253C34.6392 18.6822 34.9642 18.7134 35.1642 18.7533C35.3657 18.783 35.4653 18.7799 35.5335 18.7794C35.7686 18.7657 35.6274 18.7698 35.5179 18.8047C34.4134 19.1077 33.0583 19.6849 31.9141 20.2784C28.7083 21.9255 26.2031 23.9857 24.7695 25.8691C24.4478 26.3242 24.1603 26.8585 23.8903 27.4253C23.0267 29.2617 21.9214 31.3536 20.699 33.3421C16.8677 39.6452 11.7606 45.4756 7.92822 50.2488C6.70917 51.7758 5.62973 53.2005 4.78335 54.5114C3.93099 55.8302 3.20588 56.9408 2.5882 57.9401C2.21477 58.5427 1.88325 59.0435 1.61097 59.5181C1.29939 60.0681 0.910092 60.3024 0.582901 60.2272C0.582689 60.2272 0.582478 60.2271 0.582266 60.2271C0.182961 60.1336 -0.142373 59.6006 0.0638543 58.7077C0.188685 58.1893 0.343752 57.6731 0.500691 57.1401C1.25622 54.5381 2.4792 51.4617 3.77941 47.9176C4.46809 46.0482 5.18844 44.0429 5.90506 41.9184C8.18195 35.2152 10.2517 32.0781 12.8892 28.3854C14.5772 26.1806 15.7202 24.0518 19.1913 20.1831C21.1632 18.2211 23.5872 16.255 26.694 14.2623C27.289 13.8814 27.8834 13.5188 28.4756 13.1725C30.0655 12.2671 31.474 11.5 33.4604 10.8012C33.9062 10.6725 34.3072 10.5101 35.3605 10.4426C35.9471 10.5082 36.5991 10.1267 38.777 11.3914C39.8845 12.0363 41.0332 13.8978 41.1172 15.1808C41.2673 16.4791 41.0359 17.1702 40.896 17.6711C40.299 20.0867 38.6227 22.1122 37.6408 23.1738C36.6058 24.3019 35.9414 25.02 35.3803 25.7614C33.3492 28.2792 31.3832 30.8126 29.4443 33.3426C27.5448 35.8196 25.627 38.3772 23.2439 41.2444C22.7775 41.8012 22.2793 42.3724 21.7913 42.9118C21.5513 43.1776 21.3169 43.4329 21.1589 43.6078C20.9958 43.7886 20.9502 43.84 20.909 43.8846C19.5194 45.7038 18.1412 47.8539 16.8316 50.4166C16.7056 50.6628 16.58 50.9141 16.455 51.1699C15.7296 52.6562 15.2085 54.1456 14.8693 55.5342C14.3654 57.5633 14.3276 59.3419 14.4336 61.3861C14.6069 64.6328 15.0616 67.8337 15.7335 70.2352C15.9585 71.1609 16.1889 72.0891 16.4247 72.8918C16.5413 73.2837 16.665 73.6606 16.7652 73.817C16.8109 73.8831 16.8627 73.9114 16.8296 73.654C16.8069 73.5166 16.7732 73.3125 16.5994 72.8569C16.3782 72.3983 16.2308 71.6573 14.7429 70.1302C14.1093 69.5159 13.0647 68.6427 11.2655 68.0975C9.48523 67.5222 7.15404 67.7231 5.76283 68.2899C6.3246 67.9741 5.78552 68.0136 5.16078 68.4545C4.52313 68.8901 4.14989 69.453 4.08196 69.5049C4.32833 68.8443 4.55575 68.1951 4.61544 67.9476C4.64514 67.8589 4.61082 67.7856 4.50793 68.4724C4.47927 68.8524 4.34568 69.3962 4.60806 70.8988C4.75968 71.6507 5.04791 72.7231 5.85625 74.0006C6.63726 75.2723 8.08066 76.593 9.46705 77.2619C13.6711 79.0464 15.2382 78.2175 17.1574 77.66C18.9539 76.9763 20.6333 75.6246 21.6919 73.9216C21.8557 73.6684 22.186 73.0368 22.3475 72.5761C22.5211 72.1025 22.5958 71.761 22.6363 71.5426C22.7102 71.1094 22.6818 71.0697 22.6691 71.1161C22.633 71.2379 22.5961 71.7307 22.5761 72.265C22.5074 75.4319 22.2447 78.5566 22.1739 81.0833C22.1903 81.4459 22.2049 81.8051 22.2196 82.1686C22.2799 83.6568 22.3728 85.0512 22.4994 86.2874C22.5625 86.9037 22.635 87.4796 22.702 87.9417C22.7346 88.1701 22.7666 88.3695 22.7769 88.485C22.7756 88.5853 22.8075 88.6648 22.5742 88.2857C22.9036 88.9939 23.1559 89.547 23.2374 89.7426C23.2674 89.8329 23.2674 89.8287 23.024 89.5822C22.762 89.3706 22.2743 88.69 20.5106 88.122C20.5781 88.1958 20.1772 87.9786 18.9869 88.2484C19.1561 88.2103 19.0301 88.24 18.9147 88.2868C18.7922 88.334 18.669 88.3954 18.6019 88.4327C18.462 88.5121 18.5089 88.4855 18.6165 88.3656C21.2124 85.8997 22.3908 83.8167 22.727 81.9478C23.1058 80.7143 23.4356 79.4956 23.6675 78.3703C23.7798 77.8155 23.8721 77.2685 23.8744 76.8852C23.8727 76.7042 23.8509 76.5425 23.7505 76.6242C23.6994 76.6783 23.6251 76.7723 23.5118 77.1753C23.4582 77.382 23.3859 77.6597 23.3382 78.2476C23.3462 78.8849 23.0984 79.6092 23.9153 82.0117C24.4459 83.2913 25.1972 85.1803 28.2086 86.9273C31.3444 88.8235 35.8809 87.9271 37.3409 86.9473C37.5503 87.2022 37.4785 87.6486 37.3714 88.3047C36.865 89.259 36.3835 90.1852 36.1063 90.8985C35.9713 91.2481 35.8907 91.5473 35.9391 91.6507C35.9837 91.7342 36.189 91.6917 36.5714 90.7922C36.5816 91.5491 36.9025 91.9439 37.0335 91.3095C37.0462 91.0946 37.0562 90.5509 36.5979 89.3941C36.1794 88.2803 34.9229 86.3981 33.1854 85.2383C31.557 84.1826 30.9913 84.0946 30.5411 83.9146C30.1192 83.7742 29.9228 83.728 29.7953 83.6901C29.5549 83.6223 29.6006 83.6081 29.6962 83.5752C29.7441 83.5607 29.8095 83.5445 29.884 83.5257C29.1067 83.5992 30.5926 83.2057 32.0122 82.2517C33.1351 81.5499 34.2658 80.8209 35.2946 80.1243C35.8039 79.7796 36.2976 79.4339 36.647 79.1795C36.8118 79.0615 36.9599 78.9444 36.8938 79.0124C36.8481 79.0632 36.7791 79.1108 36.3771 79.5465C36.1707 79.7938 35.8818 80.0347 35.105 81.2245C34.6959 82.0716 33.8822 82.58 33.1878 86.6007C32.8142 88.9279 33.2579 93.8406 36.775 97.4414C37.5756 98.2801 38.4404 98.9614 39.2714 99.4874C39.9273 99.9029 40.5566 100.223 41.1464 100.476C42.3281 100.98 43.33 101.22 44.1558 101.362C45.1122 101.514 45.4984 101.512 45.8276 101.526C46.1701 101.535 46.3799 101.529 46.5904 101.52C46.9708 101.503 47.2393 101.472 47.4433 101.444C47.863 101.386 48.1046 101.326 48.2965 101.276C48.6669 101.174 48.8054 101.105 48.8768 101.066C49.0051 100.987 48.833 101.027 48.5927 101.14C48.0887 101.37 47.2587 101.891 46.3972 102.542C45.5666 103.189 44.7679 103.821 44.1772 104.304C43.8888 104.537 43.6467 104.746 43.5938 104.764C43.5709 104.766 43.5955 104.726 43.7417 104.51C43.8891 104.268 44.1625 103.968 44.724 102.728C44.6758 102.807 44.684 102.769 44.7316 102.612C44.7791 102.448 44.8746 102.175 45.0039 101.573C45.1082 100.947 45.3699 100.061 45.1514 97.9322C45.0829 95.9948 43.2358 91.4761 39.9481 89.4828C38.3394 88.4432 37.6598 88.2867 37.1298 88.0833C36.844 87.9867 36.6276 87.9244 36.4323 87.8719C36.234 87.8188 36.051 87.7761 35.9087 87.7457C35.2866 87.6154 34.9414 87.5839 34.6184 87.5568C34.0177 87.514 33.6946 87.5367 33.4426 87.5567C32.9534 87.6034 32.7869 87.6656 32.6962 87.703C32.5392 87.7813 32.7395 87.7846 33.0132 87.727C33.5823 87.6126 34.5027 87.2794 35.4522 86.8511C36.728 86.2648 36.9833 86.1909 37.568 85.7948C38.6455 84.8538 39.6653 83.9289 40.4634 83.1573C40.8552 82.7816 41.1983 82.4269 41.3552 82.2864C41.4304 82.2243 41.458 82.2077 41.3662 82.4143C41.283 82.684 41.0133 82.896 40.6142 84.7873C40.5733 85.3828 40.2466 86.0405 40.7587 88.6374C41.0517 89.9004 41.8365 92.1175 43.9464 94.0369C46.0517 95.976 48.6498 96.6317 50.0822 96.7304C49.6772 96.6584 49.9198 96.6527 50.0795 96.601C50.2627 96.5542 50.4478 96.4814 50.5306 96.4227C50.7081 96.2988 50.5137 96.2784 50.1623 96.4373C48.2621 97.4505 46.9072 98.484 46.2655 99.1708C45.9668 99.5001 45.7349 99.8025 45.8018 99.6879C45.8378 99.612 45.965 99.4474 46.2343 98.7998C46.4514 98.1695 47.0815 96.8304 46.7262 94.1968C46.6248 93.6622 46.5687 93.1213 45.9837 91.8437C45.6612 91.2024 45.2178 90.3112 44.0144 89.1182C42.8865 87.9457 40.399 86.5042 37.9093 86.3659C36.8517 86.299 36.58 86.3716 36.2914 86.3977C36.031 86.4322 35.894 86.4623 35.7933 86.4839C35.5995 86.5277 35.5638 86.5407 35.563 86.5324C35.5846 86.5061 35.9478 86.3141 36.3509 86.0228C37.3948 85.3167 38.4058 84.6071 39.2218 83.9654C40.0148 83.365 40.6919 82.6371 40.4172 82.8689C40.7858 82.3813 41.1286 81.8969 41.3216 81.5811C41.4124 81.435 41.4714 81.3086 41.3831 81.4444C41.3365 81.5241 41.2497 81.6543 41.0634 82.1013C40.9697 82.3367 40.8447 82.6489 40.6951 83.2463C40.5722 83.8702 40.2884 84.6984 40.4997 86.7692C40.5878 86.7755 40.3577 88.8103 42.7613 91.8701C43.9423 93.3122 45.6547 94.3785 46.9299 94.8442C48.2277 95.3325 49.1546 95.4328 49.83 95.4836C49.9668 95.4989 49.8859 95.5009 49.8184 95.5125C49.7421 95.523 49.6364 95.538 49.5279 95.5575C49.3083 95.5965 49.0701 95.6538 48.8564 95.7223C48.4233 95.8595 48.0923 96.0376 47.8823 96.1968C46.6846 96.9565 45.4834 97.7254 44.3361 98.4825C43.7654 98.8594 43.2048 99.2359 42.7169 99.5778C42.4757 99.7468 42.2514 99.9089 42.1038 100.022C42.0338 100.075 41.9793 100.12 41.9945 100.11C42.0275 100.079 42.0441 100.102 42.5387 99.6184C42.5405 99.6172 42.5662 99.5941 42.6708 99.4815C42.7247 99.4229 42.7969 99.3444 42.9223 99.1954C43.0521 99.036 43.2153 98.854 43.5747 98.3218C43.7584 98.0366 43.9974 97.6937 44.383 96.871C44.5717 96.4521 44.8297 95.8601 45.0667 94.9C45.2797 93.8133 45.7392 92.2222 44.9154 89.1912C44.1516 86.0421 40.8548 83.0001 38.8081 82.2832C37.8548 81.8689 37.0777 81.6716 36.3938 81.5435C35.8342 81.4411 35.3541 81.3961 34.9365 81.3762C33.4626 81.3289 32.9022 81.4777 32.4582 81.5458C31.6151 81.7114 31.3406 81.8213 31.1016 81.8952C30.8714 81.9724 30.7476 82.0207 30.6447 82.0608C30.2705 82.2119 30.292 82.2123 30.2795 82.2145C30.2838 82.211 30.3361 82.183 30.4 82.1469C30.531 82.0734 30.7159 81.9654 30.9102 81.847C31.3025 81.6082 31.7438 81.3228 32.1893 81.0201C34.1751 79.6931 35.4785 78.6986 36.1984 77.9539C37.2583 76.8508 38.304 75.7539 39.1964 74.7662C39.6337 74.2831 40.0434 73.8076 40.2738 73.5245C40.385 73.3915 40.4535 73.2924 40.3774 73.4313C40.3383 73.5069 40.2583 73.6416 40.1039 73.9853C39.9587 74.3544 39.6823 74.8401 39.4384 76.3203C39.4949 76.0172 39.5361 75.7518 39.5453 75.7544C39.5512 75.7644 39.5443 75.8361 39.5514 76.1524C39.5889 76.5033 39.4883 76.964 39.999 78.6933C40.5869 80.4124 41.8527 82.5344 44.8787 83.8348C45.7384 84.1742 46.0096 84.1998 46.2474 84.2528C46.4681 84.2932 46.5715 84.2995 46.6365 84.3019C46.7589 84.3036 46.7156 84.2827 46.627 84.2686C46.4379 84.2377 46.0471 84.2227 45.6053 84.2344C45.2242 84.2529 44.8556 84.2712 44.502 84.2901C42.5679 84.3621 40.878 84.692 40.8751 84.7038C38.4043 85.7092 36.9407 86.5145 36.708 86.7937C35.5734 87.8215 34.4636 88.8757 33.6994 89.7136C33.3308 90.1106 33.0395 90.5053 33.1213 90.4188C33.1629 90.3543 33.3275 90.1802 33.6315 89.4306C33.8971 88.7399 34.4562 87.0231 33.9273 84.6557C33.978 84.8657 33.997 84.931 33.9829 84.8636C33.9651 84.7918 33.9233 84.59 33.7497 84.1308C33.5569 83.6723 33.2996 82.9206 32.2964 81.6748C31.3851 80.4652 28.9767 78.6782 26.4958 78.3143C27.0856 78.3923 27.6308 78.3597 27.9847 78.2755C28.3442 78.1899 28.47 78.0841 28.5294 78.0105C29.7036 77.2741 30.8401 76.5 31.6926 75.8248C32.11 75.4963 32.4641 75.1749 32.5599 75.0577C32.6033 75.0076 32.5796 75.0014 32.392 75.2202C32.2151 75.4746 31.7994 75.8107 31.1976 77.4598C31.2456 77.2843 30.8651 78.1578 31.0658 79.6678C31.1198 80.058 31.2223 80.6816 31.7575 81.6465C32.2626 82.592 33.4247 83.8379 34.7059 84.4887C34.2628 84.2623 33.9805 84.1555 34.0937 84.2087C34.189 84.2519 34.8064 84.4702 35.7033 84.4836C33.1194 84.4507 31.7915 84.6451 30.6376 84.9885C29.6686 85.2984 28.789 85.5989 28.2118 85.8246C27.6381 86.0277 27.3987 86.2479 27.9626 85.763C26.5308 86.9138 25.4369 87.7433 25.0378 88.0758C24.8388 88.2265 24.8485 88.2265 25.0466 87.8316C25.2354 87.459 25.5949 86.5489 25.6316 85.5217C25.5334 86.0137 25.461 86.5967 25.4141 86.9441C25.3812 87.1357 25.3783 87.2924 25.2926 87.0256C25.2381 86.8758 25.19 86.6347 24.9008 85.9594C24.5023 85.3372 24.3588 83.8781 21.0861 81.7684C20.6364 81.4715 18.9607 80.8269 18.1162 80.7562C17.197 80.6299 16.7068 80.6794 16.3902 80.708C17.3653 80.7278 17.9227 80.692 17.798 80.7971C17.68 80.8872 17.1716 81.2961 17.299 81.3253C18.6108 80.2808 19.8797 79.3127 20.3793 78.9139C20.6346 78.7176 20.6527 78.7276 20.5911 78.9482C20.5273 79.161 20.4784 79.5177 20.5268 79.5934C20.7835 78.5128 20.9535 77.7005 21.0327 77.2767C21.1237 76.8371 21.1005 76.9589 21.4503 77.5017C21.1019 76.6678 20.8618 76.1119 20.8745 76.043C20.8921 76.0124 20.9813 76.1286 21.3375 76.4288C21.6814 76.7157 22.3986 77.2281 23.4136 77.5094C23.3363 77.4241 23.8132 77.5318 24.5662 77.338C24.3098 77.3232 24.5215 77.29 25.0212 76.9162C25.5263 76.5675 26.1676 75.7072 26.3098 75.1435C26.5231 74.5724 26.4961 74.515 26.5075 74.4429C26.5076 74.3899 26.4899 74.4125 26.4718 74.4545C26.4336 74.5451 26.3884 74.7234 26.349 74.9219C26.2689 75.325 26.2066 75.8167 26.1647 76.3233C26.0806 77.3434 26.0733 78.4388 26.1303 79.5325C26.1979 81.1492 26.439 82.3207 26.8341 83.2175C26.8144 83.2031 26.7833 83.1457 26.5497 82.8606C26.4238 82.7145 26.2573 82.5057 25.8448 82.1457C25.4236 81.8155 24.7461 81.1681 23.0601 80.7717C21.3485 80.3241 19.0965 81.0314 18.2568 81.6833C17.3209 82.3276 17.0091 82.7854 16.7711 83.0845C16.3423 83.6826 16.2982 83.8646 16.2296 84.0075C16.1319 84.2552 16.171 84.2199 16.1988 84.1709C16.2321 84.113 16.2799 84.0034 16.3298 83.8786C17.2861 81.2192 18.3589 77.7369 19.5396 74.7828C21.2043 70.5788 22.9354 66.9458 24.6116 63.6748C25.7766 61.3322 27.3817 58.7663 28.7121 57.121C28.8255 56.9749 28.9379 56.8313 29.051 56.6872C29.8995 55.6127 30.7176 54.588 31.6995 53.5287C32.2627 52.971 32.5334 52.5227 33.9355 51.5993C34.3663 51.4027 34.8124 50.9163 36.5292 50.9288C37.3968 50.9515 38.5312 51.4662 39.1154 52.1035C39.7037 52.7153 39.9074 53.2165 40.0566 53.6135C40.4684 54.999 40.2965 55.3554 40.2876 55.8573C38.4227 64.1309 36.4792 67.8335 34.8483 73.4059C34.5628 74.3031 34.2811 75.2054 33.9704 76.1714C33.8147 76.6534 33.6553 77.1445 33.4665 77.6782C33.3708 77.9466 33.2714 78.221 33.1321 78.5502C33.0591 78.7194 32.9829 78.8952 32.8444 79.1473C32.7729 79.2747 32.6858 79.4254 32.5326 79.63C32.3919 79.824 32.0963 80.1389 31.8206 80.3354C31.4336 80.6171 30.6888 81.0686 29.5812 80.9793C28.4675 80.8804 27.7059 80.2214 27.3524 79.7817C25.7999 77.6962 25.9904 76.4293 25.7227 75.1216C25.5555 73.8221 25.4675 72.5398 25.4015 71.1856C25.3696 70.5553 25.3347 69.9017 25.2983 69.228C25.0807 64.8138 24.9744 59.7542 25.6043 54.1374C26.1371 51.1703 25.8827 48.5054 28.194 44.4542C29.2837 42.879 31.1432 40.8417 33.0261 39.8527C35.0713 38.7084 37.0971 37.6828 39.0798 36.7125C39.5075 36.5032 39.8997 36.3209 40.2509 36.1676C41.0961 35.7938 41.7428 35.5775 42.2112 35.4952C42.4449 35.4545 42.6327 35.4484 42.7799 35.4721C42.8534 35.4839 42.9174 35.5029 42.9787 35.5219C43.0135 35.5245 43.0326 35.5561 43.1014 35.503C43.1147 35.4866 43.1764 35.4304 43.1574 35.2783C43.1376 35.1461 43.0085 35.05 42.9527 35.0329C42.8912 35.009 42.8655 35.0083 42.8515 35.0035C42.8306 34.9999 42.8296 34.9761 42.9534 35C43.0112 35.0102 43.16 35.0918 43.2032 35.2459C43.234 35.359 43.221 35.4031 43.2127 35.455C43.1389 35.6907 43.1638 35.6375 43.1609 35.6952C43.1636 35.7316 43.1663 35.7665 43.1682 35.8016C43.1715 35.8723 43.1667 35.9479 43.1517 36.0303C43.1221 36.1947 43.0522 36.3858 42.9412 36.6031C42.7161 37.04 42.3309 37.5778 41.7841 38.2076C41.2724 38.7929 40.629 39.4407 39.8602 40.1472C38.4798 41.4167 37.0996 42.5742 35.8136 43.6462C34.4501 44.788 33.8294 45.7885 32.962 47.3849C32.2949 48.8987 32.344 52.6245 32.904 54.7831C32.9626 54.9887 33.0274 55.2034 33.1001 55.4039C35.3682 61.6479 36.926 65.3748 36.7274 71.2205C36.6961 72.109 36.6339 73.0219 36.5638 73.8529C36.5271 74.2556 36.4961 74.6524 36.4382 74.8329C36.4045 74.9131 36.3761 74.949 36.2518 74.7312C36.1859 74.6198 36.094 74.4319 35.8943 74.1072C35.7927 73.9426 35.6571 73.7399 35.5001 73.5403C35.3596 73.3587 35.1275 73.1065 35.2941 73.3315C34.6339 72.5329 33.0774 71.1158 30.6096 70.8712C28.1487 70.6562 26.5626 71.6674 25.8813 72.1811C25.5815 72.4031 25.1615 72.788 24.9163 73.0737C24.6598 73.3652 24.4949 73.6045 24.3925 73.7659C24.1815 74.1035 24.1327 74.2446 24.099 74.3399C24.0313 74.5783 24.1373 74.4673 24.2152 74.3729C24.3013 74.2647 24.3985 74.111 24.4942 73.9467C24.6869 73.6144 24.8743 73.2406 25.0483 72.8635C25.3975 72.1046 25.6935 71.3327 25.9455 70.5699C27.109 67.0356 27.2512 63.9361 27.2503 61.2186C27.2488 59.8589 27.2109 58.5905 27.2227 57.4373C27.2276 56.8645 27.2444 56.3192 27.2694 55.8604C27.2812 55.6352 27.296 55.4236 27.3062 55.2848C27.318 55.1495 27.3216 55.0382 27.3222 55.2618C27.3282 55.4284 27.3091 55.6284 27.4102 56.3557C27.6104 56.9437 27.2964 57.9497 29.4427 60.7588C30.4734 62.1067 33.1014 63.6939 35.2393 63.8423C36.2688 63.9583 37.0942 63.8888 37.7985 63.7663C38.422 63.6542 38.9077 63.5027 39.3166 63.3491C40.768 62.7605 41.0913 62.3843 41.3894 62.1599C41.6576 61.9273 41.755 61.8028 41.818 61.7148C42.0054 61.4058 41.7168 61.5584 41.4759 61.707C40.9437 62.0504 40.2391 62.6353 39.4002 63.4939C38.1603 64.8403 37.2544 65.5825 35.8861 68.459C34.7132 70.9119 33.2971 74.3291 32.0301 78.7439C31.3085 81.2489 30.8391 83.7656 29.9461 87.8485C29.7969 88.3872 29.7555 88.7756 29.2222 90.0435C29.0534 90.3998 28.8948 90.8086 28.293 91.6592C27.9493 92.1068 27.545 92.6896 26.4225 93.5187C25.4203 94.3334 22.7397 95.3943 20.4014 94.92C18.1124 94.4918 17.089 93.5815 16.4628 93.0934C15.8393 92.5602 15.561 92.218 15.3303 91.9458C14.8988 91.4152 14.7425 91.1598 14.603 90.957C13.7352 89.6924 13.0024 88.3009 12.43 86.8862C11.6765 85.0246 11.2288 83.2449 10.9238 81.6027C10.5941 79.8542 10.3703 78.1093 10.2766 76.2996C10.2313 75.3879 10.2166 74.468 10.2635 73.4538C10.2884 72.9432 10.3265 72.4152 10.4091 71.7859C10.4515 71.4696 10.503 71.1334 10.5917 70.7098C10.6928 70.2685 10.7678 69.8347 11.1464 68.8634C12.0201 66.4875 14.0444 64.0529 16.1429 62.7455C18.2348 61.3932 20.1718 60.8813 21.5707 60.5776C24.3773 60.0226 26.8522 60.4593 28.5365 60.9312C32.9406 62.362 34.5977 64.971 35.6164 66.3029C36.6227 67.7619 37.1218 68.7674 37.5213 69.443C40.5859 76.0006 39.2341 80.0244 39.1431 82.5501C38.7619 86.4419 36.1278 90.5526 34.451 92.28C32.7195 94.1829 31.609 95.1484 30.6691 96.1093C28.8319 97.915 25.9169 99.6238 23.417 100.342C20.9056 101.096 19.13 101.226 17.8275 101.379C17.1145 101.43 16.2125 101.478 14.8567 101.278C13.5806 101.139 11.4365 100.309 10.6495 99.8024C6.77056 97.3375 6.24803 95.2481 5.61299 94.0743C5.0783 92.8228 4.88664 92.0166 4.71941 91.308C4.4147 89.9234 4.32947 88.9896 4.25744 88.1138C4.13371 86.3949 4.15356 85.0451 4.23546 83.6287C4.85414 77.3677 8.10399 74.225 9.67551 72.4683C11.4388 70.6626 12.6742 69.6684 13.5086 68.8676C13.5222 68.8548 13.5358 68.842 13.5493 68.8293C17.79 65.3458 20.7875 64.7096 23.5573 63.7258C27.6577 62.3593 32.4337 62.1047 35.9603 62.3176C40.6993 62.5035 43.3697 64.2387 44.9035 65.0373C50.1237 67.7582 52.25 73.2807 52.5726 76.4936C53.0312 79.8614 52.2448 82.6568 51.667 84.2715C49.8621 88.7371 48.4886 89.3232 47.3957 90.5175C46.2881 91.5282 45.3397 92.2305 44.4215 92.8789C42.5983 94.1511 40.9161 95.1392 39.2316 96.0801C33.807 99.1724 27.8698 99.5036 22.9374 98.5956C20.1969 98.1892 17.562 96.2535 16.4719 94.8283C15.2889 93.3675 14.8967 92.3473 14.593 91.6089C14.0524 90.1584 13.9807 89.5183 13.9175 89.2975C12.8582 82.5188 15.4393 80.4047 16.1819 78.8809C17.2098 77.3928 18.0312 76.5037 18.8042 75.6582C20.3347 74.0195 21.656 72.7707 22.9377 71.5365C23.8906 70.6457 24.8645 69.8861 25.794 69.2387C28.2179 67.5551 30.5793 66.4863 32.4174 65.6066C37.1562 63.5481 40.6298 63.4054 43.6704 63.025C44.6782 62.9247 45.7401 62.8505 47.0193 62.8631C47.6618 62.8717 48.3543 62.8994 49.2087 62.9966C50.1425 63.1445 50.8475 63.1026 53.1527 63.9823C57.4044 65.7996 59.576 69.1079 60.5647 72.1317C61.1924 74.2456 61.1201 75.1381 61.1601 75.9121C61.1683 76.6522 61.1333 77.1492 61.0999 77.5826C61.029 78.4328 60.9461 79.0089 60.8701 79.547C60.2006 82.9994 59.4739 83.6315 59.0056 84.5797C58.5052 85.4168 58.1065 85.9727 57.7264 86.4915C56.9749 87.5048 56.3326 88.2694 55.7013 89.0076C54.4458 90.4657 53.2702 91.7336 52.0921 92.9938C49.3874 95.8592 46.5648 97.766 44.4535 99.2108C43.7284 99.7041 42.9854 100.187 42.1753 100.677C41.7672 100.924 41.3449 101.171 40.8627 101.435C40.324 101.718 40.0102 101.927 38.7406 102.455C38.5631 102.525 38.3696 102.6 38.0663 102.703C37.7574 102.801 37.4066 102.934 36.4944 103.113C36.0182 103.188 35.4189 103.342 33.9243 103.295C33.5 103.275 33.0146 103.23 32.4512 103.128C31.7735 103.003 30.9803 102.803 30.04 102.397C27.9933 101.685 24.696 98.684 23.9069 95.5228C23.0619 92.4743 23.5219 90.8589 23.7367 89.7544C23.9768 88.7729 24.2414 88.1631 24.437 87.7276C24.8378 86.8697 25.0959 86.4947 25.3005 86.1772C26.0666 85.0675 26.2646 84.9293 26.4955 84.6565C26.7048 84.428 26.838 84.2925 26.9492 84.1791C27.7032 83.4313 28.0159 83.2052 28.3439 82.9345C28.6542 82.6865 28.9096 82.4942 29.1398 82.3236C29.6063 81.9791 29.9977 81.7051 30.3819 81.4399C31.1432 80.9157 31.8382 80.4575 32.525 80.01C33.8931 79.1204 35.2014 78.2963 36.4903 77.4908C41.3505 74.6251 45.6395 73.5447 51.2048 73.666C52.7196 73.7456 56.5458 74.3147 59.5028 77.8139C62.2309 81.2685 62.0502 83.7319 62.1907 84.0632C62.4437 86.4756 62.1088 87.5545 61.9345 88.4135C61.7301 89.2445 61.5348 89.7671 61.3622 90.2111C61.0214 91.064 60.7487 91.5792 60.5098 92.0265C60.0335 92.9 59.6626 93.4688 59.3115 94.0007C58.6181 95.0382 58.0267 95.8292 57.4503 96.586C52.922 101.795 50.5217 102.757 48.2407 104.582C46.8396 105.555 45.357 106.449 43.5707 107.23C42.8138 107.558 41.9936 107.868 40.9786 108.142C39.8548 108.387 39.0875 108.756 36.1478 108.641C32.8895 108.462 29.7389 106.556 28.3148 105.041C26.7892 103.491 26.1948 102.303 25.7456 101.396C24.9204 99.5874 24.7595 98.6062 24.5781 97.632C24.0103 93.3095 25.1306 91.1727 25.6199 89.8556C26.203 88.5329 26.6641 87.8171 27.0493 87.207C27.8169 86.0312 28.3418 85.3834 28.8244 84.7807C32.6151 80.3009 35.6632 78.7726 38.2411 77.533C40.0945 76.619 42.1584 75.8627 44.6102 75.4565C46.9559 75.0212 50.229 75.1838 51.9933 75.7206C53.4791 75.8666 55.9404 76.5183 57.9836 78.3751C60.0335 80.2135 60.8739 82.4561 61.1696 83.8351C61.6987 86.6676 61.2717 87.724 61.0841 88.7017C60.2532 91.765 59.4212 92.4227 58.765 93.3598C58.09 94.1946 57.484 94.7966 56.8737 95.3798C55.6626 96.5227 54.461 97.5138 53.1583 98.5878Z" fill="#84AE7D"/>
<path d="M38.8712 108.2C40.043 107.394 48.9961 100.98 57.3604 95.4657C61.3959 92.8052 65.3237 89.7889 72.8986 86.5636C74.3715 85.9364 74.9294 86.7856 75.1235 87.8381C76.0208 92.7028 74.2313 98.0772 72.5411 109.946C71.6854 115.955 70.9539 119.41 70.159 122.745C69.9637 123.564 69.7672 124.283 70.1485 124.975C72.4969 129.241 86.2892 128.359 98.219 126.326C103.009 125.509 107.834 121.281 112.546 117.418C116.398 114.258 120.22 110.117 124.704 103.718C130.012 96.1417 129.802 89.1942 130.78 84.4C131.397 81.3746 131.427 71.8167 130.903 58.6097C130.583 50.522 127.191 45.2798 124.505 40.0738C119.319 30.0259 113.76 22.9452 110.921 19.1423C108.218 15.5234 102.755 12.374 93.603 8.74824C89.691 7.19846 84.8569 6.79954 77.7643 6.26991C67.8732 5.53131 60.1072 6.46711 56.1553 7.79176C51.9389 9.20507 44.1148 14.569 33.903 21.6787C22.8435 29.3785 19.8626 32.8393 16.9695 35.9311C13.8054 39.3126 9.6379 48.4114 6.22135 62.4687C1.54467 81.7106 7.07566 87.2389 8.56738 91.4395C10.2193 96.0914 14.3095 101.586 16.8126 104.66C19.4606 107.912 23.5395 109.437 28.413 110.571C32.6562 110.696 35.8547 110.317 37.1161 109.527C37.7415 109.117 38.3367 108.686 39.9687 107.826" stroke="black" stroke-width="7" stroke-linecap="round"/>
</svg>
