<svg xmlns="http://www.w3.org/2000/svg" aria-label="Vite logo" viewBox="0 0 410 404"><path fill="#41D1FF" d="M399.641 59.524L215.643 388.545c-3.35 5.99-11.926 5.995-15.283.01L9.239 59.53c-3.678-6.5 1.945-14.42 9.39-13.22l184.06 29.825a8 8 0 0 0 2.56 0l184.777-29.84c7.446-1.204 13.07 6.72 9.39 13.23Z"/><path fill="#BD34FE" d="M292.965.082L156.017 26.686a4 4 0 0 0-3.238 3.366l-8.417 142.58a4 4 0 0 0 4.858 4.143l38.11-8.79a4 4 0 0 1 4.769 4.665l-11.32 55.485a4 4 0 0 0 4.916 4.75l23.53-5.437a4 4 0 0 1 4.88 4.792l-17.986 87.333c-1.125 5.468 6.152 8.45 9.183 3.761l2.024-3.13 111.57-222.66c1.87-3.734-1.363-8.01-5.522-7.307l-39.25 6.658a4 4 0 0 1-4.61-5.182l25.6-88.553c1.14-3.944-2.277-7.71-6.315-6.927Z"/></svg>
