<svg width="179" height="175" viewBox="0 0 179 175" fill="none" xmlns="http://www.w3.org/2000/svg">
<path d="M133.17 24.0868C134.448 25.6533 135.713 27.0803 137.007 28.411C143.33 34.9841 150.763 39.3363 158.03 46.4588C161.473 49.8731 164.797 53.916 167.568 59.0542C168.869 61.4707 169.903 63.6945 170.752 65.7657C173.064 71.3395 174.201 76.4831 174.817 81.0594C175.476 85.8186 176.056 90.699 176.945 97.4646C177.269 99.9807 177.62 102.711 178.017 105.808C178.396 108.804 178.643 111.761 178.71 114.912C178.728 116.69 178.778 118.874 178.176 121.689C177.55 124.525 176.454 126.653 175.657 128.184C172.77 133.528 169.805 137.85 166.716 141.995C163.187 146.705 159.487 150.644 156.5 153.735C154.899 155.401 153.466 156.879 152.313 158.195C150.313 160.471 148.414 161.771 146.596 162.646C141.75 164.827 137.568 164.847 128.012 169.354C127.107 169.767 126.221 170.147 125.357 170.501C116.903 173.706 110.611 174.103 104.041 174.222C100.475 174.241 96.8813 174.023 92.9153 173.653C88.4309 173.23 80.6283 172.919 71.823 172.392C66.1475 172.066 59.6228 171.453 53.8459 169.926C47.2703 168.346 41.1193 166.506 36.24 165.043C34.1726 164.426 32.3395 163.89 30.7885 163.502C26.2196 162.354 21.7662 160.345 17.6163 157.869C13.168 155.184 8.96723 151.948 5.85645 148.038C5.80218 147.989 5.6602 147.825 5.61214 147.77C3.67125 144.571 2.33248 141.437 1.38179 138.809C0.512501 136.421 0.163563 134.363 0.0403699 132.716C0.0393417 132.713 0.0369825 132.703 0.0360134 132.7C0.0212274 132.41 0.00996757 132.133 0.00155705 131.867C-0.0217692 131.128 0.219851 130.719 0.542949 130.634C0.543159 130.634 0.543369 130.634 0.543579 130.634C0.945349 130.53 1.47315 130.928 1.75556 131.82C1.79814 131.955 1.84134 132.091 1.88566 132.23L1.88122 132.213C3.03864 135.725 5.59435 140.286 10.097 144.142L9.87649 143.901C10.7621 144.494 11.6994 145.011 12.7234 145.497C16.4799 147.237 19.3809 148.408 21.89 149.671C26.8072 152.038 30.4062 154.76 38.981 157.771C40.7502 158.373 42.7379 158.964 45.0017 159.512C48.8292 160.437 52.4031 161.039 55.8244 161.472C61.5175 162.258 66.2355 161.897 72.0084 161.601C79.5712 161.163 87.841 160.923 98.324 161.096C99.9124 161.116 101.406 161.08 102.811 160.993C110.516 160.498 116.146 158.679 120.625 156.275C125.522 153.721 129.884 151.087 136.037 147.096C138.557 145.452 141.238 143.637 144.339 141.252C145.53 140.336 146.752 139.368 148.019 138.308C150.157 136.521 151.965 134.658 153.523 132.792C157.003 128.58 159.434 124.371 160.904 120.815C161.485 119.405 161.623 118.564 161.51 118.091C161.426 117.586 161.248 116.516 160.976 115.192C160.017 110.58 158.524 105.725 156.806 100.415C155.593 96.7401 154.221 92.7965 152.385 88.2021C151.822 86.7932 151.26 85.4625 150.625 84.0911C149.784 82.2722 148.793 80.3702 147.636 78.2791C144.665 72.9047 141.208 67.3555 137.43 61.9113C132.717 55.1514 127.442 48.2196 122.387 42.1015C118.671 37.6242 115.473 34.1379 111.958 31.4226C108.378 28.6356 104.442 26.291 101.047 24.6637C98.7971 23.5897 96.7164 22.7672 95.257 22.3881C94.8483 22.281 94.4728 22.2022 94.2507 22.1732C90.8608 21.7381 83.4917 21.9577 76.9451 22.4414C73.6625 22.6649 71.7791 23.025 68.2953 23.9194C63.6352 25.1269 58.4815 26.5762 53.8032 28.1033C50.5163 29.1971 48.3743 29.9936 46.2276 31.3209C41.9941 33.9173 37.2618 36.8566 35.6289 38.4544C35.5448 38.5317 35.4732 38.6003 35.4158 38.6559C32.2705 42.3007 28.5738 47.3827 27.748 49.6516C27.9521 49.0623 27.8876 49.182 27.8786 49.2828C27.8562 49.4095 27.8216 49.6428 27.7918 49.9035C27.7308 50.4298 27.6814 51.0862 27.6501 51.7721C27.5872 53.1462 27.5886 54.6635 27.6374 56.2022C27.7364 59.3013 28.0194 62.538 28.4248 65.8212C28.9163 69.8221 29.736 73.0654 31.1524 77.0076C32.7192 81.3789 34.6396 85.9372 36.6457 90.1213C38.3452 93.654 40.0542 96.7218 42.0165 99.4601C44.0622 102.317 45.9197 104.576 47.6852 106.142C48.1938 106.569 48.698 106.99 49.1979 107.405C52.6939 110.331 57.0301 113.525 59.6735 114.662C63.0611 116.026 67.878 116.615 72.7702 116.455C79.5389 116.191 86.3313 115.858 91.0018 114.286C95.4597 112.678 99.7408 111.015 101.792 109.384C104.652 106.993 107.635 104.228 108.413 103.02C109.669 100.905 110.229 97.7878 110.225 95.1236C110.199 92.7568 110.183 90.6828 110.052 88.9928C109.966 87.855 109.818 86.8609 109.618 86.1155C107.821 77.8392 104.177 74.5126 100.049 70.5341C96.7216 67.7288 92.6528 63.2535 88.9176 63.6256C87.1929 63.7745 85.3671 63.9645 83.4204 64.242C79.5414 64.8096 74.1518 65.6102 72.1287 67.4291C71.326 68.1934 70.8033 68.6967 70.5592 69.0501C70.32 69.3992 70.214 69.5978 70.183 70.1393C70.3646 76.1864 70.209 83.1711 72.5909 87.4126C72.7326 87.5876 72.8742 87.7597 73.0178 87.9307C75.0129 90.2955 75.9106 91.2571 75.5538 91.7136C75.0117 92.132 73.0247 91.6643 70.4236 89.8307C70.1078 89.5937 69.8126 89.322 69.5458 89.039C64.3337 81.8903 64.975 75.4018 63.816 70.5575C63.2819 67.8542 64.6758 64.7848 65.5405 63.2507C65.8577 62.6272 66.1342 62.1086 66.3032 61.6875C74.7608 52.3741 79.9438 52.8133 88.4469 52.6919C91.781 52.616 95.6342 54.2333 97.8131 56.0785C101.89 59.5332 103.856 61.6466 106.315 63.2894C111.923 67.3335 117.751 70.0655 120.46 77.1835C121.173 79.1859 121.371 80.6075 121.414 81.3569C122.492 85.3943 122.224 88.7659 122.399 94.1073C122.456 97.6638 122.672 102.07 120.045 108.39C117.378 113.629 114.526 115.962 111.429 119.38C108.616 122.222 105.569 124.03 102.588 125.706C100.674 126.766 98.8869 127.669 97.1825 128.526C87.9582 132.671 80.8302 133.146 74.5121 134.225C67.4687 135.199 60.7123 135.188 54.0284 133.443C44.0305 130.202 39.6884 126.376 34.9091 123.301C30.0462 119.821 27.0425 116.23 24.6162 113.324C24.509 113.193 24.4018 113.062 24.2943 112.928C21.5613 109.563 18.792 104.851 16.5436 99.7955C14.3877 94.9734 12.4342 89.7479 10.665 83.8974C9.19073 79.15 7.99445 73.2407 7.62957 67.9546C7.33427 64.1803 7.13553 60.3799 7.09678 56.4958C7.07973 54.5553 7.10015 52.5988 7.20645 50.5456C7.26164 49.5112 7.33596 48.4616 7.46901 47.3028C7.65112 46.0517 7.63988 45.1449 8.47105 42.5995C9.15098 40.6871 9.84141 39.3 10.5103 37.9967C12.8064 33.6266 15.614 29.6945 18.7884 25.5312C24.5114 18.7437 29.5667 16.3556 34.5219 12.9551C38.4743 10.3315 43.2622 8.50732 46.8762 7.30478C52.5184 5.43074 57.7534 3.98151 63.1628 2.60912C66.8537 1.61299 72.158 0.760725 75.8264 0.602235C84.1435 0.14883 90.4548 -0.427485 98.4702 0.480243C99.5941 0.658094 100.501 0.852819 101.325 1.04055C105.362 2.00014 107.922 3.02725 110.212 3.99537C117.483 7.23982 120.435 10.0811 124.08 13.7225C126.63 16.3306 129.494 19.5675 133.17 24.0868Z" fill="#839FB6"/>
</svg>
