<svg xmlns="http://www.w3.org/2000/svg" xmlns:xlink="http://www.w3.org/1999/xlink" aria-hidden="true" role="img" class="iconify iconify--logos" width="35.93" height="32" preserveAspectRatio="xMidYMid meet" viewBox="0 0 256 228"><path fill="#00D8FF" d="M128 141.165c-7.944 0-14.501-6.557-14.501-14.501s6.557-14.501 14.501-14.501s14.501 6.557 14.501 14.501s-6.557 14.501-14.501 14.501Zm0-44.117c-16.538 0-29.616 13.078-29.616 29.616s13.078 29.616 29.616 29.616s29.616-13.078 29.616-29.616s-13.078-29.616-29.616-29.616Zm0 0"/><path fill="#00D8FF" d="M128 178.879c-37.45 0-67.785-15.503-83.211-39.703c-6.781-10.645-10.343-22.276-10.343-33.512c0-11.236 3.562-22.867 10.343-33.512C60.215 47.952 90.55 32.45 128 32.45c37.45 0 67.785 15.503 83.211 39.703c6.781 10.645 10.343 22.276 10.343 33.512c0 11.236-3.562 22.867-10.343 33.512C195.785 163.376 165.45 178.879 128 178.879Zm0-130.029c-32.858 0-59.054 13.182-72.122 33.708c-5.16 8.106-7.827 16.729-7.827 24.106s2.667 16 7.827 24.106c13.068 20.526 39.264 33.708 72.122 33.708c32.858 0 59.054-13.182 72.122-33.708c5.16-8.106 7.827-16.729 7.827-24.106s-2.667-16-7.827-24.106C187.054 62.032 160.858 48.85 128 48.85Zm0 0"/><path fill="#00D8FF" d="M72.078 197.509c-9.727 0-18.036-2.199-24.229-6.785c-6.192-4.586-10.049-11.231-11.24-19.412c-1.504-10.334 1.517-22.679 8.785-35.703c13.916-24.938 41.545-46.874 73.26-60.68c31.714-13.806 66.521-16.58 91.459-8.323c13.024 4.312 23.369 11.032 29.497 19.604c6.128 8.572 8.101 19.013 5.836 30.362c-2.858 14.321-12.539 29.175-27.483 42.114c-14.944 12.939-34.445 23.959-56.296 31.839c-21.851 7.88-44.229 11.447-64.823 10.505c-8.289-.379-16.18-1.452-23.516-3.52c-.41-.115-.825-.242-1.24-.379Zm97.911-117.487c-15.093 0-32.002 3.546-48.503 10.73c-29.131 12.678-54.302 32.267-66.44 54.017c-5.943 10.648-8.412 20.206-7.14 28.014c.803 4.925 3.037 8.767 6.806 11.548c3.769 2.781 9.193 4.596 16.013 5.222c14.35 1.318 32.805-1.604 52.959-8.879c20.154-7.275 38.021-17.306 50.835-29.223c12.814-11.917 20.392-24.548 22.173-36.349c1.161-7.698-.125-14.255-3.905-19.196c-3.78-4.941-10.012-9.089-18.164-12.06c-6.39-2.33-13.628-3.824-21.634-3.824Zm0 0"/></svg>
